<?xml version="1.0" encoding="utf-8" standalone="no"?>
<!DOCTYPE svg PUBLIC "-//W3C//DTD SVG 1.1//EN"
  "http://www.w3.org/Graphics/SVG/1.1/DTD/svg11.dtd">
<svg xmlns:xlink="http://www.w3.org/1999/xlink" width="432pt" height="288pt" viewBox="0 0 432 288" xmlns="http://www.w3.org/2000/svg" version="1.1">
 <metadata>
  <rdf:RDF xmlns:dc="http://purl.org/dc/elements/1.1/" xmlns:cc="http://creativecommons.org/ns#" xmlns:rdf="http://www.w3.org/1999/02/22-rdf-syntax-ns#">
   <cc:Work>
    <dc:type rdf:resource="http://purl.org/dc/dcmitype/StillImage"/>
    <dc:date>2022-04-03T17:47:30.687937</dc:date>
    <dc:format>image/svg+xml</dc:format>
    <dc:creator>
     <cc:Agent>
      <dc:title>Matplotlib v3.5.1, https://matplotlib.org/</dc:title>
     </cc:Agent>
    </dc:creator>
   </cc:Work>
  </rdf:RDF>
 </metadata>
 <defs>
  <style type="text/css">*{stroke-linejoin: round; stroke-linecap: butt}</style>
 </defs>
 <g id="figure_1">
  <g id="patch_1">
   <path d="M 0 288 
L 432 288 
L 432 0 
L 0 0 
L 0 288 
z
" style="fill: none"/>
  </g>
  <g id="axes_1">
   <g id="patch_2">
    <path d="M 54 252 
L 388.8 252 
L 388.8 34.56 
L 54 34.56 
z
" style="fill: #ffffff"/>
   </g>
   <g id="PathCollection_1">
    <defs>
     <path id="mbfdd724c89" d="M 0 3 
C 0.795609 3 1.55874 2.683901 2.12132 2.12132 
C 2.683901 1.55874 3 0.795609 3 0 
C 3 -0.795609 2.683901 -1.55874 2.12132 -2.12132 
C 1.55874 -2.683901 0.795609 -3 0 -3 
C -0.795609 -3 -1.55874 -2.683901 -2.12132 -2.12132 
C -2.683901 -1.55874 -3 -0.795609 -3 0 
C -3 0.795609 -2.683901 1.55874 -2.12132 2.12132 
C -1.55874 2.683901 -0.795609 3 0 3 
z
" style="stroke: #1f77b4"/>
    </defs>
    <g clip-path="url(#p7df5ec4af9)">
     <use xlink:href="#mbfdd724c89" x="118.956872" y="100.017838" style="fill: #1f77b4; stroke: #1f77b4"/>
    </g>
   </g>
   <g id="PathCollection_2">
    <defs>
     <path id="ma73744447c" d="M 0 3 
C 0.795609 3 1.55874 2.683901 2.12132 2.12132 
C 2.683901 1.55874 3 0.795609 3 0 
C 3 -0.795609 2.683901 -1.55874 2.12132 -2.12132 
C 1.55874 -2.683901 0.795609 -3 0 -3 
C -0.795609 -3 -1.55874 -2.683901 -2.12132 -2.12132 
C -2.683901 -1.55874 -3 -0.795609 -3 0 
C -3 0.795609 -2.683901 1.55874 -2.12132 2.12132 
C -1.55874 2.683901 -0.795609 3 0 3 
z
" style="stroke: #ff7f0e"/>
    </defs>
    <g clip-path="url(#p7df5ec4af9)">
     <use xlink:href="#ma73744447c" x="209.337272" y="144.667624" style="fill: #ff7f0e; stroke: #ff7f0e"/>
    </g>
   </g>
   <g id="PathCollection_3">
    <defs>
     <path id="m024dcfcdfa" d="M 0 3 
C 0.795609 3 1.55874 2.683901 2.12132 2.12132 
C 2.683901 1.55874 3 0.795609 3 0 
C 3 -0.795609 2.683901 -1.55874 2.12132 -2.12132 
C 1.55874 -2.683901 0.795609 -3 0 -3 
C -0.795609 -3 -1.55874 -2.683901 -2.12132 -2.12132 
C -2.683901 -1.55874 -3 -0.795609 -3 0 
C -3 0.795609 -2.683901 1.55874 -2.12132 2.12132 
C -1.55874 2.683901 -0.795609 3 0 3 
z
" style="stroke: #2ca02c"/>
    </defs>
    <g clip-path="url(#p7df5ec4af9)">
     <use xlink:href="#m024dcfcdfa" x="141.618963" y="172.575946" style="fill: #2ca02c; stroke: #2ca02c"/>
    </g>
   </g>
   <g id="PathCollection_4">
    <defs>
     <path id="m6a90e68b26" d="M 0 3 
C 0.795609 3 1.55874 2.683901 2.12132 2.12132 
C 2.683901 1.55874 3 0.795609 3 0 
C 3 -0.795609 2.683901 -1.55874 2.12132 -2.12132 
C 1.55874 -2.683901 0.795609 -3 0 -3 
C -0.795609 -3 -1.55874 -2.683901 -2.12132 -2.12132 
C -2.683901 -1.55874 -3 -0.795609 -3 0 
C -3 0.795609 -2.683901 1.55874 -2.12132 2.12132 
C -1.55874 2.683901 -0.795609 3 0 3 
z
" style="stroke: #d62728"/>
    </defs>
    <g clip-path="url(#p7df5ec4af9)">
     <use xlink:href="#m6a90e68b26" x="274.901338" y="207.25524" style="fill: #d62728; stroke: #d62728"/>
    </g>
   </g>
   <g id="PathCollection_5">
    <defs>
     <path id="m77e7ef0163" d="M 0 3 
C 0.795609 3 1.55874 2.683901 2.12132 2.12132 
C 2.683901 1.55874 3 0.795609 3 0 
C 3 -0.795609 2.683901 -1.55874 2.12132 -2.12132 
C 1.55874 -2.683901 0.795609 -3 0 -3 
C -0.795609 -3 -1.55874 -2.683901 -2.12132 -2.12132 
C -2.683901 -1.55874 -3 -0.795609 -3 0 
C -3 0.795609 -2.683901 1.55874 -2.12132 2.12132 
C -1.55874 2.683901 -0.795609 3 0 3 
z
" style="stroke: #9467bd"/>
    </defs>
    <g clip-path="url(#p7df5ec4af9)">
     <use xlink:href="#m77e7ef0163" x="262.225617" y="117.077706" style="fill: #9467bd; stroke: #9467bd"/>
    </g>
   </g>
   <g id="PathCollection_6">
    <defs>
     <path id="md16615be06" d="M 0 3 
C 0.795609 3 1.55874 2.683901 2.12132 2.12132 
C 2.683901 1.55874 3 0.795609 3 0 
C 3 -0.795609 2.683901 -1.55874 2.12132 -2.12132 
C 1.55874 -2.683901 0.795609 -3 0 -3 
C -0.795609 -3 -1.55874 -2.683901 -2.12132 -2.12132 
C -2.683901 -1.55874 -3 -0.795609 -3 0 
C -3 0.795609 -2.683901 1.55874 -2.12132 2.12132 
C -1.55874 2.683901 -0.795609 3 0 3 
z
" style="stroke: #8c564b"/>
    </defs>
    <g clip-path="url(#p7df5ec4af9)">
     <use xlink:href="#md16615be06" x="323.843128" y="166.1557" style="fill: #8c564b; stroke: #8c564b"/>
    </g>
   </g>
   <g id="PathCollection_7">
    <path d="M 66.707673 252 
L 69.988323 252 
L 73.268974 252 
L 76.549624 252 
L 79.830274 252 
L 83.110924 252 
L 86.391574 252 
L 89.672224 252 
L 92.952874 252 
L 96.233524 252 
L 99.514174 252 
L 102.794825 252 
L 106.075475 252 
L 109.356125 252 
L 112.636775 252 
L 115.917425 252 
L 119.198075 252 
L 122.478725 252 
L 125.759375 252 
L 129.040025 252 
L 132.320676 252 
L 135.601326 252 
L 138.881976 252 
L 142.162626 252 
L 145.443276 252 
L 148.723926 252 
L 152.004576 252 
L 155.285226 252 
L 158.565876 252 
L 161.846527 252 
L 165.127177 252 
L 168.407827 252 
L 171.688477 252 
L 174.969127 252 
L 178.249777 252 
L 181.530427 252 
L 184.811077 252 
L 188.091727 252 
L 191.372378 252 
L 194.653028 252 
L 197.933678 252 
L 201.214328 252 
L 204.494978 252 
L 207.775628 252 
L 211.056278 252 
L 214.336928 252 
L 217.617578 252 
L 220.898229 252 
L 224.178879 252 
L 227.459529 252 
L 230.740179 252 
L 234.020829 252 
L 237.301479 252 
L 240.582129 252 
L 243.862779 252 
L 247.14343 252 
L 250.42408 252 
L 253.70473 252 
L 256.98538 252 
L 260.26603 252 
L 263.54668 252 
L 266.82733 252 
L 270.10798 252 
L 270.272013 252 
L 270.10798 251.890182 
L 266.82733 251.890182 
L 263.710713 249.803636 
L 263.54668 249.693818 
L 260.26603 249.693818 
L 257.149412 247.607273 
L 256.98538 247.497455 
L 253.70473 247.497455 
L 250.588112 245.410909 
L 250.42408 245.301091 
L 247.14343 245.301091 
L 244.026812 243.214545 
L 243.862779 243.104727 
L 240.582129 243.104727 
L 237.465512 241.018182 
L 237.301479 240.908364 
L 234.184862 238.821818 
L 234.020829 238.712 
L 230.904211 236.625455 
L 230.740179 236.515636 
L 227.623561 234.429091 
L 227.459529 234.319273 
L 224.342911 232.232727 
L 224.178879 232.122909 
L 221.062261 230.036364 
L 220.898229 229.926545 
L 217.781611 227.84 
L 217.617578 227.730182 
L 214.500961 225.643636 
L 214.500961 223.447273 
L 214.500961 221.250909 
L 214.336928 221.141091 
L 211.220311 219.054545 
L 211.220311 216.858182 
L 211.220311 214.661818 
L 211.220311 212.465455 
L 214.336928 210.378909 
L 214.500961 210.269091 
L 214.500961 208.072727 
L 217.617578 205.986182 
L 217.781611 205.876364 
L 217.781611 203.68 
L 220.898229 201.593455 
L 221.062261 201.483636 
L 224.178879 199.397091 
L 224.342911 199.287273 
L 227.459529 197.200727 
L 227.623561 197.090909 
L 230.740179 195.004364 
L 230.904211 194.894545 
L 234.020829 192.808 
L 234.184862 192.698182 
L 237.301479 190.611636 
L 240.582129 190.611636 
L 240.746162 190.501818 
L 243.862779 188.415273 
L 244.026812 188.305455 
L 247.14343 186.218909 
L 247.307462 186.109091 
L 250.42408 184.022545 
L 250.588112 183.912727 
L 250.588112 181.716364 
L 250.588112 179.52 
L 250.588112 177.323636 
L 250.588112 175.127273 
L 250.588112 172.930909 
L 250.42408 172.821091 
L 247.307462 170.734545 
L 247.307462 168.538182 
L 247.307462 166.341818 
L 247.14343 166.232 
L 244.026812 164.145455 
L 244.026812 161.949091 
L 243.862779 161.839273 
L 240.746162 159.752727 
L 240.746162 157.556364 
L 240.582129 157.446545 
L 237.465512 155.36 
L 237.465512 153.163636 
L 237.301479 153.053818 
L 234.184862 150.967273 
L 234.020829 150.857455 
L 230.904211 148.770909 
L 230.904211 146.574545 
L 230.740179 146.464727 
L 227.623561 144.378182 
L 227.623561 142.181818 
L 227.459529 142.072 
L 224.342911 139.985455 
L 224.342911 137.789091 
L 224.178879 137.679273 
L 221.062261 135.592727 
L 220.898229 135.482909 
L 217.781611 133.396364 
L 217.781611 131.2 
L 217.617578 131.090182 
L 214.500961 129.003636 
L 214.336928 128.893818 
L 211.220311 126.807273 
L 211.220311 124.610909 
L 211.056278 124.501091 
L 207.939661 122.414545 
L 207.775628 122.304727 
L 204.659011 120.218182 
L 204.659011 118.021818 
L 204.494978 117.912 
L 201.37836 115.825455 
L 201.214328 115.715636 
L 198.09771 113.629091 
L 198.09771 111.432727 
L 197.933678 111.322909 
L 194.81706 109.236364 
L 194.81706 107.04 
L 194.81706 104.843636 
L 194.653028 104.733818 
L 191.53641 102.647273 
L 191.53641 100.450909 
L 191.53641 98.254545 
L 191.53641 96.058182 
L 191.53641 93.861818 
L 191.53641 91.665455 
L 191.53641 89.469091 
L 191.53641 87.272727 
L 191.53641 85.076364 
L 191.53641 82.88 
L 191.53641 80.683636 
L 191.53641 78.487273 
L 191.53641 76.290909 
L 191.53641 74.094545 
L 191.372378 73.984727 
L 188.25576 71.898182 
L 188.25576 69.701818 
L 188.25576 67.505455 
L 188.25576 65.309091 
L 188.25576 63.112727 
L 188.25576 60.916364 
L 188.25576 58.72 
L 188.25576 56.523636 
L 188.25576 54.327273 
L 188.25576 52.130909 
L 188.25576 49.934545 
L 188.25576 47.738182 
L 188.25576 45.541818 
L 188.091727 45.432 
L 184.97511 43.345455 
L 184.97511 41.149091 
L 184.97511 38.952727 
L 184.97511 36.756364 
L 184.97511 34.56 
L 184.811077 34.56 
L 181.530427 34.56 
L 178.249777 34.56 
L 174.969127 34.56 
L 171.688477 34.56 
L 168.407827 34.56 
L 165.127177 34.56 
L 161.846527 34.56 
L 158.565876 34.56 
L 155.285226 34.56 
L 152.004576 34.56 
L 148.723926 34.56 
L 145.443276 34.56 
L 142.162626 34.56 
L 138.881976 34.56 
L 135.601326 34.56 
L 132.320676 34.56 
L 129.040025 34.56 
L 125.759375 34.56 
L 122.478725 34.56 
L 119.198075 34.56 
L 115.917425 34.56 
L 112.636775 34.56 
L 109.356125 34.56 
L 106.075475 34.56 
L 102.794825 34.56 
L 99.514174 34.56 
L 96.233524 34.56 
L 92.952874 34.56 
L 89.672224 34.56 
L 86.391574 34.56 
L 83.110924 34.56 
L 79.830274 34.56 
L 76.549624 34.56 
L 73.268974 34.56 
L 69.988323 34.56 
L 66.707673 34.56 
L 63.427023 34.56 
L 63.427023 36.756364 
L 63.427023 38.952727 
L 63.427023 41.149091 
L 63.427023 43.345455 
L 63.427023 45.541818 
L 63.427023 47.738182 
L 63.427023 49.934545 
L 63.427023 52.130909 
L 63.427023 54.327273 
L 63.427023 56.523636 
L 63.427023 58.72 
L 63.427023 60.916364 
L 63.427023 63.112727 
L 63.427023 65.309091 
L 63.427023 67.505455 
L 63.427023 69.701818 
L 63.427023 71.898182 
L 63.427023 74.094545 
L 63.427023 76.290909 
L 63.427023 78.487273 
L 63.427023 80.683636 
L 63.427023 82.88 
L 63.427023 85.076364 
L 63.427023 87.272727 
L 63.427023 89.469091 
L 63.427023 91.665455 
L 63.427023 93.861818 
L 63.427023 96.058182 
L 63.427023 98.254545 
L 63.427023 100.450909 
L 63.427023 102.647273 
L 63.427023 104.843636 
L 63.427023 107.04 
L 63.427023 109.236364 
L 63.427023 111.432727 
L 63.427023 113.629091 
L 63.427023 115.825455 
L 63.427023 118.021818 
L 63.427023 120.218182 
L 63.427023 122.414545 
L 63.427023 124.610909 
L 63.427023 126.807273 
L 63.427023 129.003636 
L 63.427023 131.2 
L 63.427023 133.396364 
L 63.427023 135.592727 
L 63.427023 137.789091 
L 63.427023 139.985455 
L 63.427023 142.181818 
L 63.427023 144.378182 
L 63.427023 146.574545 
L 63.427023 148.770909 
L 63.427023 150.967273 
L 63.427023 153.163636 
L 63.427023 155.36 
L 63.427023 157.556364 
L 63.427023 159.752727 
L 63.427023 161.949091 
L 63.427023 164.145455 
L 63.427023 166.341818 
L 63.427023 168.538182 
L 63.427023 170.734545 
L 63.427023 172.930909 
L 63.427023 175.127273 
L 63.427023 177.323636 
L 63.427023 179.52 
L 63.427023 181.716364 
L 63.427023 183.912727 
L 63.427023 186.109091 
L 63.427023 188.305455 
L 63.427023 190.501818 
L 63.427023 192.698182 
L 63.427023 194.894545 
L 63.427023 197.090909 
L 63.427023 199.287273 
L 63.427023 201.483636 
L 63.427023 203.68 
L 63.427023 205.876364 
L 63.427023 208.072727 
L 63.427023 210.269091 
L 63.427023 212.465455 
L 63.427023 214.661818 
L 63.427023 216.858182 
L 63.427023 219.054545 
L 63.427023 221.250909 
L 63.427023 223.447273 
L 63.427023 225.643636 
L 63.427023 227.84 
L 63.427023 230.036364 
L 63.427023 232.232727 
L 63.427023 234.429091 
L 63.427023 236.625455 
L 63.427023 238.821818 
L 63.427023 241.018182 
L 63.427023 243.214545 
L 63.427023 245.410909 
L 63.427023 247.607273 
L 63.427023 249.803636 
L 63.427023 252 
z
" clip-path="url(#p7df5ec4af9)" style="fill: #0000c8; fill-opacity: 0.5"/>
   </g>
   <g id="PathCollection_8">
    <path d="M 266.82733 251.890182 
L 270.10798 251.890182 
L 270.272013 252 
L 270.76411 252 
L 270.10798 251.560727 
L 266.82733 251.560727 
L 264.20281 249.803636 
L 263.54668 249.364364 
L 260.26603 249.364364 
L 257.64151 247.607273 
L 256.98538 247.168 
L 253.70473 247.168 
L 251.08021 245.410909 
L 250.42408 244.971636 
L 247.14343 244.971636 
L 244.518909 243.214545 
L 243.862779 242.775273 
L 240.582129 242.775273 
L 237.957609 241.018182 
L 237.301479 240.578909 
L 234.676959 238.821818 
L 234.020829 238.382545 
L 231.396309 236.625455 
L 230.740179 236.186182 
L 228.115659 234.429091 
L 227.459529 233.989818 
L 224.835009 232.232727 
L 224.178879 231.793455 
L 221.554359 230.036364 
L 220.898229 229.597091 
L 218.273709 227.84 
L 217.617578 227.400727 
L 214.993058 225.643636 
L 214.993058 223.447273 
L 214.993058 221.250909 
L 214.336928 220.811636 
L 211.712408 219.054545 
L 211.712408 216.858182 
L 211.712408 214.661818 
L 211.712408 212.465455 
L 214.336928 210.708364 
L 214.993058 210.269091 
L 214.993058 208.072727 
L 217.617578 206.315636 
L 218.273709 205.876364 
L 218.273709 203.68 
L 220.898229 201.922909 
L 221.554359 201.483636 
L 224.178879 199.726545 
L 224.835009 199.287273 
L 227.459529 197.530182 
L 228.115659 197.090909 
L 230.740179 195.333818 
L 231.396309 194.894545 
L 234.020829 193.137455 
L 234.676959 192.698182 
L 237.301479 190.941091 
L 240.582129 190.941091 
L 241.238259 190.501818 
L 243.862779 188.744727 
L 244.518909 188.305455 
L 247.14343 186.548364 
L 247.79956 186.109091 
L 250.42408 184.352 
L 251.08021 183.912727 
L 251.08021 181.716364 
L 251.08021 179.52 
L 251.08021 177.323636 
L 251.08021 175.127273 
L 251.08021 172.930909 
L 250.42408 172.491636 
L 247.79956 170.734545 
L 247.79956 168.538182 
L 247.79956 166.341818 
L 247.14343 165.902545 
L 244.518909 164.145455 
L 244.518909 161.949091 
L 243.862779 161.509818 
L 241.238259 159.752727 
L 241.238259 157.556364 
L 240.582129 157.117091 
L 237.957609 155.36 
L 237.957609 153.163636 
L 237.301479 152.724364 
L 234.676959 150.967273 
L 234.020829 150.528 
L 231.396309 148.770909 
L 231.396309 146.574545 
L 230.740179 146.135273 
L 228.115659 144.378182 
L 228.115659 142.181818 
L 227.459529 141.742545 
L 224.835009 139.985455 
L 224.835009 137.789091 
L 224.178879 137.349818 
L 221.554359 135.592727 
L 220.898229 135.153455 
L 218.273709 133.396364 
L 218.273709 131.2 
L 217.617578 130.760727 
L 214.993058 129.003636 
L 214.336928 128.564364 
L 211.712408 126.807273 
L 211.712408 124.610909 
L 211.056278 124.171636 
L 208.431758 122.414545 
L 207.775628 121.975273 
L 205.151108 120.218182 
L 205.151108 118.021818 
L 204.494978 117.582545 
L 201.870458 115.825455 
L 201.214328 115.386182 
L 198.589808 113.629091 
L 198.589808 111.432727 
L 197.933678 110.993455 
L 195.309158 109.236364 
L 195.309158 107.04 
L 195.309158 104.843636 
L 194.653028 104.404364 
L 192.028508 102.647273 
L 192.028508 100.450909 
L 192.028508 98.254545 
L 192.028508 96.058182 
L 192.028508 93.861818 
L 192.028508 91.665455 
L 192.028508 89.469091 
L 192.028508 87.272727 
L 192.028508 85.076364 
L 192.028508 82.88 
L 192.028508 80.683636 
L 192.028508 78.487273 
L 192.028508 76.290909 
L 192.028508 74.094545 
L 191.372378 73.655273 
L 188.747858 71.898182 
L 188.747858 69.701818 
L 188.747858 67.505455 
L 188.747858 65.309091 
L 188.747858 63.112727 
L 188.747858 60.916364 
L 188.747858 58.72 
L 188.747858 56.523636 
L 188.747858 54.327273 
L 188.747858 52.130909 
L 188.747858 49.934545 
L 188.747858 47.738182 
L 188.747858 45.541818 
L 188.091727 45.102545 
L 185.467207 43.345455 
L 185.467207 41.149091 
L 185.467207 38.952727 
L 185.467207 36.756364 
L 185.467207 34.56 
L 184.97511 34.56 
L 184.97511 36.756364 
L 184.97511 38.952727 
L 184.97511 41.149091 
L 184.97511 43.345455 
L 188.091727 45.432 
L 188.25576 45.541818 
L 188.25576 47.738182 
L 188.25576 49.934545 
L 188.25576 52.130909 
L 188.25576 54.327273 
L 188.25576 56.523636 
L 188.25576 58.72 
L 188.25576 60.916364 
L 188.25576 63.112727 
L 188.25576 65.309091 
L 188.25576 67.505455 
L 188.25576 69.701818 
L 188.25576 71.898182 
L 191.372378 73.984727 
L 191.53641 74.094545 
L 191.53641 76.290909 
L 191.53641 78.487273 
L 191.53641 80.683636 
L 191.53641 82.88 
L 191.53641 85.076364 
L 191.53641 87.272727 
L 191.53641 89.469091 
L 191.53641 91.665455 
L 191.53641 93.861818 
L 191.53641 96.058182 
L 191.53641 98.254545 
L 191.53641 100.450909 
L 191.53641 102.647273 
L 194.653028 104.733818 
L 194.81706 104.843636 
L 194.81706 107.04 
L 194.81706 109.236364 
L 197.933678 111.322909 
L 198.09771 111.432727 
L 198.09771 113.629091 
L 201.214328 115.715636 
L 201.37836 115.825455 
L 204.494978 117.912 
L 204.659011 118.021818 
L 204.659011 120.218182 
L 207.775628 122.304727 
L 207.939661 122.414545 
L 211.056278 124.501091 
L 211.220311 124.610909 
L 211.220311 126.807273 
L 214.336928 128.893818 
L 214.500961 129.003636 
L 217.617578 131.090182 
L 217.781611 131.2 
L 217.781611 133.396364 
L 220.898229 135.482909 
L 221.062261 135.592727 
L 224.178879 137.679273 
L 224.342911 137.789091 
L 224.342911 139.985455 
L 227.459529 142.072 
L 227.623561 142.181818 
L 227.623561 144.378182 
L 230.740179 146.464727 
L 230.904211 146.574545 
L 230.904211 148.770909 
L 234.020829 150.857455 
L 234.184862 150.967273 
L 237.301479 153.053818 
L 237.465512 153.163636 
L 237.465512 155.36 
L 240.582129 157.446545 
L 240.746162 157.556364 
L 240.746162 159.752727 
L 243.862779 161.839273 
L 244.026812 161.949091 
L 244.026812 164.145455 
L 247.14343 166.232 
L 247.307462 166.341818 
L 247.307462 168.538182 
L 247.307462 170.734545 
L 250.42408 172.821091 
L 250.588112 172.930909 
L 250.588112 175.127273 
L 250.588112 177.323636 
L 250.588112 179.52 
L 250.588112 181.716364 
L 250.588112 183.912727 
L 250.42408 184.022545 
L 247.307462 186.109091 
L 247.14343 186.218909 
L 244.026812 188.305455 
L 243.862779 188.415273 
L 240.746162 190.501818 
L 240.582129 190.611636 
L 237.301479 190.611636 
L 234.184862 192.698182 
L 234.020829 192.808 
L 230.904211 194.894545 
L 230.740179 195.004364 
L 227.623561 197.090909 
L 227.459529 197.200727 
L 224.342911 199.287273 
L 224.178879 199.397091 
L 221.062261 201.483636 
L 220.898229 201.593455 
L 217.781611 203.68 
L 217.781611 205.876364 
L 217.617578 205.986182 
L 214.500961 208.072727 
L 214.500961 210.269091 
L 214.336928 210.378909 
L 211.220311 212.465455 
L 211.220311 214.661818 
L 211.220311 216.858182 
L 211.220311 219.054545 
L 214.336928 221.141091 
L 214.500961 221.250909 
L 214.500961 223.447273 
L 214.500961 225.643636 
L 217.617578 227.730182 
L 217.781611 227.84 
L 220.898229 229.926545 
L 221.062261 230.036364 
L 224.178879 232.122909 
L 224.342911 232.232727 
L 227.459529 234.319273 
L 227.623561 234.429091 
L 230.740179 236.515636 
L 230.904211 236.625455 
L 234.020829 238.712 
L 234.184862 238.821818 
L 237.301479 240.908364 
L 237.465512 241.018182 
L 240.582129 243.104727 
L 243.862779 243.104727 
L 244.026812 243.214545 
L 247.14343 245.301091 
L 250.42408 245.301091 
L 250.588112 245.410909 
L 253.70473 247.497455 
L 256.98538 247.497455 
L 257.149412 247.607273 
L 260.26603 249.693818 
L 263.54668 249.693818 
L 263.710713 249.803636 
z
" clip-path="url(#p7df5ec4af9)" style="fill: #0040ff; fill-opacity: 0.5"/>
   </g>
   <g id="PathCollection_9">
    <path d="M 266.82733 251.560727 
L 270.10798 251.560727 
L 270.76411 252 
L 271.256208 252 
L 270.10798 251.231273 
L 266.82733 251.231273 
L 264.694908 249.803636 
L 263.54668 249.034909 
L 260.26603 249.034909 
L 258.133607 247.607273 
L 256.98538 246.838545 
L 253.70473 246.838545 
L 251.572307 245.410909 
L 250.42408 244.642182 
L 247.14343 244.642182 
L 245.011007 243.214545 
L 243.862779 242.445818 
L 240.582129 242.445818 
L 238.449707 241.018182 
L 237.301479 240.249455 
L 235.169057 238.821818 
L 234.020829 238.053091 
L 231.888406 236.625455 
L 230.740179 235.856727 
L 228.607756 234.429091 
L 227.459529 233.660364 
L 225.327106 232.232727 
L 224.178879 231.464 
L 222.046456 230.036364 
L 220.898229 229.267636 
L 218.765806 227.84 
L 217.617578 227.071273 
L 215.485156 225.643636 
L 215.485156 223.447273 
L 215.485156 221.250909 
L 214.336928 220.482182 
L 212.204506 219.054545 
L 212.204506 216.858182 
L 212.204506 214.661818 
L 212.204506 212.465455 
L 214.336928 211.037818 
L 215.485156 210.269091 
L 215.485156 208.072727 
L 217.617578 206.645091 
L 218.765806 205.876364 
L 218.765806 203.68 
L 220.898229 202.252364 
L 222.046456 201.483636 
L 224.178879 200.056 
L 225.327106 199.287273 
L 227.459529 197.859636 
L 228.607756 197.090909 
L 230.740179 195.663273 
L 231.888406 194.894545 
L 234.020829 193.466909 
L 235.169057 192.698182 
L 237.301479 191.270545 
L 240.582129 191.270545 
L 241.730357 190.501818 
L 243.862779 189.074182 
L 245.011007 188.305455 
L 247.14343 186.877818 
L 248.291657 186.109091 
L 250.42408 184.681455 
L 251.572307 183.912727 
L 251.572307 181.716364 
L 251.572307 179.52 
L 251.572307 177.323636 
L 251.572307 175.127273 
L 251.572307 172.930909 
L 250.42408 172.162182 
L 248.291657 170.734545 
L 248.291657 168.538182 
L 248.291657 166.341818 
L 247.14343 165.573091 
L 245.011007 164.145455 
L 245.011007 161.949091 
L 243.862779 161.180364 
L 241.730357 159.752727 
L 241.730357 157.556364 
L 240.582129 156.787636 
L 238.449707 155.36 
L 238.449707 153.163636 
L 237.301479 152.394909 
L 235.169057 150.967273 
L 234.020829 150.198545 
L 231.888406 148.770909 
L 231.888406 146.574545 
L 230.740179 145.805818 
L 228.607756 144.378182 
L 228.607756 142.181818 
L 227.459529 141.413091 
L 225.327106 139.985455 
L 225.327106 137.789091 
L 224.178879 137.020364 
L 222.046456 135.592727 
L 220.898229 134.824 
L 218.765806 133.396364 
L 218.765806 131.2 
L 217.617578 130.431273 
L 215.485156 129.003636 
L 214.336928 128.234909 
L 212.204506 126.807273 
L 212.204506 124.610909 
L 211.056278 123.842182 
L 208.923856 122.414545 
L 207.775628 121.645818 
L 205.643206 120.218182 
L 205.643206 118.021818 
L 204.494978 117.253091 
L 202.362555 115.825455 
L 201.214328 115.056727 
L 199.081905 113.629091 
L 199.081905 111.432727 
L 197.933678 110.664 
L 195.801255 109.236364 
L 195.801255 107.04 
L 195.801255 104.843636 
L 194.653028 104.074909 
L 192.520605 102.647273 
L 192.520605 100.450909 
L 192.520605 98.254545 
L 192.520605 96.058182 
L 192.520605 93.861818 
L 192.520605 91.665455 
L 192.520605 89.469091 
L 192.520605 87.272727 
L 192.520605 85.076364 
L 192.520605 82.88 
L 192.520605 80.683636 
L 192.520605 78.487273 
L 192.520605 76.290909 
L 192.520605 74.094545 
L 191.372378 73.325818 
L 189.239955 71.898182 
L 189.239955 69.701818 
L 189.239955 67.505455 
L 189.239955 65.309091 
L 189.239955 63.112727 
L 189.239955 60.916364 
L 189.239955 58.72 
L 189.239955 56.523636 
L 189.239955 54.327273 
L 189.239955 52.130909 
L 189.239955 49.934545 
L 189.239955 47.738182 
L 189.239955 45.541818 
L 188.091727 44.773091 
L 185.959305 43.345455 
L 185.959305 41.149091 
L 185.959305 38.952727 
L 185.959305 36.756364 
L 185.959305 34.56 
L 185.467207 34.56 
L 185.467207 36.756364 
L 185.467207 38.952727 
L 185.467207 41.149091 
L 185.467207 43.345455 
L 188.091727 45.102545 
L 188.747858 45.541818 
L 188.747858 47.738182 
L 188.747858 49.934545 
L 188.747858 52.130909 
L 188.747858 54.327273 
L 188.747858 56.523636 
L 188.747858 58.72 
L 188.747858 60.916364 
L 188.747858 63.112727 
L 188.747858 65.309091 
L 188.747858 67.505455 
L 188.747858 69.701818 
L 188.747858 71.898182 
L 191.372378 73.655273 
L 192.028508 74.094545 
L 192.028508 76.290909 
L 192.028508 78.487273 
L 192.028508 80.683636 
L 192.028508 82.88 
L 192.028508 85.076364 
L 192.028508 87.272727 
L 192.028508 89.469091 
L 192.028508 91.665455 
L 192.028508 93.861818 
L 192.028508 96.058182 
L 192.028508 98.254545 
L 192.028508 100.450909 
L 192.028508 102.647273 
L 194.653028 104.404364 
L 195.309158 104.843636 
L 195.309158 107.04 
L 195.309158 109.236364 
L 197.933678 110.993455 
L 198.589808 111.432727 
L 198.589808 113.629091 
L 201.214328 115.386182 
L 201.870458 115.825455 
L 204.494978 117.582545 
L 205.151108 118.021818 
L 205.151108 120.218182 
L 207.775628 121.975273 
L 208.431758 122.414545 
L 211.056278 124.171636 
L 211.712408 124.610909 
L 211.712408 126.807273 
L 214.336928 128.564364 
L 214.993058 129.003636 
L 217.617578 130.760727 
L 218.273709 131.2 
L 218.273709 133.396364 
L 220.898229 135.153455 
L 221.554359 135.592727 
L 224.178879 137.349818 
L 224.835009 137.789091 
L 224.835009 139.985455 
L 227.459529 141.742545 
L 228.115659 142.181818 
L 228.115659 144.378182 
L 230.740179 146.135273 
L 231.396309 146.574545 
L 231.396309 148.770909 
L 234.020829 150.528 
L 234.676959 150.967273 
L 237.301479 152.724364 
L 237.957609 153.163636 
L 237.957609 155.36 
L 240.582129 157.117091 
L 241.238259 157.556364 
L 241.238259 159.752727 
L 243.862779 161.509818 
L 244.518909 161.949091 
L 244.518909 164.145455 
L 247.14343 165.902545 
L 247.79956 166.341818 
L 247.79956 168.538182 
L 247.79956 170.734545 
L 250.42408 172.491636 
L 251.08021 172.930909 
L 251.08021 175.127273 
L 251.08021 177.323636 
L 251.08021 179.52 
L 251.08021 181.716364 
L 251.08021 183.912727 
L 250.42408 184.352 
L 247.79956 186.109091 
L 247.14343 186.548364 
L 244.518909 188.305455 
L 243.862779 188.744727 
L 241.238259 190.501818 
L 240.582129 190.941091 
L 237.301479 190.941091 
L 234.676959 192.698182 
L 234.020829 193.137455 
L 231.396309 194.894545 
L 230.740179 195.333818 
L 228.115659 197.090909 
L 227.459529 197.530182 
L 224.835009 199.287273 
L 224.178879 199.726545 
L 221.554359 201.483636 
L 220.898229 201.922909 
L 218.273709 203.68 
L 218.273709 205.876364 
L 217.617578 206.315636 
L 214.993058 208.072727 
L 214.993058 210.269091 
L 214.336928 210.708364 
L 211.712408 212.465455 
L 211.712408 214.661818 
L 211.712408 216.858182 
L 211.712408 219.054545 
L 214.336928 220.811636 
L 214.993058 221.250909 
L 214.993058 223.447273 
L 214.993058 225.643636 
L 217.617578 227.400727 
L 218.273709 227.84 
L 220.898229 229.597091 
L 221.554359 230.036364 
L 224.178879 231.793455 
L 224.835009 232.232727 
L 227.459529 233.989818 
L 228.115659 234.429091 
L 230.740179 236.186182 
L 231.396309 236.625455 
L 234.020829 238.382545 
L 234.676959 238.821818 
L 237.301479 240.578909 
L 237.957609 241.018182 
L 240.582129 242.775273 
L 243.862779 242.775273 
L 244.518909 243.214545 
L 247.14343 244.971636 
L 250.42408 244.971636 
L 251.08021 245.410909 
L 253.70473 247.168 
L 256.98538 247.168 
L 257.64151 247.607273 
L 260.26603 249.364364 
L 263.54668 249.364364 
L 264.20281 249.803636 
z
" clip-path="url(#p7df5ec4af9)" style="fill: #00bcff; fill-opacity: 0.5"/>
   </g>
   <g id="PathCollection_10">
    <path d="M 266.82733 251.231273 
L 270.10798 251.231273 
L 271.256208 252 
L 271.748305 252 
L 270.10798 250.901818 
L 266.82733 250.901818 
L 265.187005 249.803636 
L 263.54668 248.705455 
L 260.26603 248.705455 
L 258.625705 247.607273 
L 256.98538 246.509091 
L 253.70473 246.509091 
L 252.064405 245.410909 
L 250.42408 244.312727 
L 247.14343 244.312727 
L 245.503104 243.214545 
L 243.862779 242.116364 
L 240.582129 242.116364 
L 238.941804 241.018182 
L 237.301479 239.92 
L 235.661154 238.821818 
L 234.020829 237.723636 
L 232.380504 236.625455 
L 230.740179 235.527273 
L 229.099854 234.429091 
L 227.459529 233.330909 
L 225.819204 232.232727 
L 224.178879 231.134545 
L 222.538554 230.036364 
L 220.898229 228.938182 
L 219.257904 227.84 
L 217.617578 226.741818 
L 215.977253 225.643636 
L 215.977253 223.447273 
L 215.977253 221.250909 
L 214.336928 220.152727 
L 212.696603 219.054545 
L 212.696603 216.858182 
L 212.696603 214.661818 
L 212.696603 212.465455 
L 214.336928 211.367273 
L 215.977253 210.269091 
L 215.977253 208.072727 
L 217.617578 206.974545 
L 219.257904 205.876364 
L 219.257904 203.68 
L 220.898229 202.581818 
L 222.538554 201.483636 
L 224.178879 200.385455 
L 225.819204 199.287273 
L 227.459529 198.189091 
L 229.099854 197.090909 
L 230.740179 195.992727 
L 232.380504 194.894545 
L 234.020829 193.796364 
L 235.661154 192.698182 
L 237.301479 191.6 
L 240.582129 191.6 
L 242.222454 190.501818 
L 243.862779 189.403636 
L 245.503104 188.305455 
L 247.14343 187.207273 
L 248.783755 186.109091 
L 250.42408 185.010909 
L 252.064405 183.912727 
L 252.064405 181.716364 
L 252.064405 179.52 
L 252.064405 177.323636 
L 252.064405 175.127273 
L 252.064405 172.930909 
L 250.42408 171.832727 
L 248.783755 170.734545 
L 248.783755 168.538182 
L 248.783755 166.341818 
L 247.14343 165.243636 
L 245.503104 164.145455 
L 245.503104 161.949091 
L 243.862779 160.850909 
L 242.222454 159.752727 
L 242.222454 157.556364 
L 240.582129 156.458182 
L 238.941804 155.36 
L 238.941804 153.163636 
L 237.301479 152.065455 
L 235.661154 150.967273 
L 234.020829 149.869091 
L 232.380504 148.770909 
L 232.380504 146.574545 
L 230.740179 145.476364 
L 229.099854 144.378182 
L 229.099854 142.181818 
L 227.459529 141.083636 
L 225.819204 139.985455 
L 225.819204 137.789091 
L 224.178879 136.690909 
L 222.538554 135.592727 
L 220.898229 134.494545 
L 219.257904 133.396364 
L 219.257904 131.2 
L 217.617578 130.101818 
L 215.977253 129.003636 
L 214.336928 127.905455 
L 212.696603 126.807273 
L 212.696603 124.610909 
L 211.056278 123.512727 
L 209.415953 122.414545 
L 207.775628 121.316364 
L 206.135303 120.218182 
L 206.135303 118.021818 
L 204.494978 116.923636 
L 202.854653 115.825455 
L 201.214328 114.727273 
L 199.574003 113.629091 
L 199.574003 111.432727 
L 197.933678 110.334545 
L 196.293353 109.236364 
L 196.293353 107.04 
L 196.293353 104.843636 
L 194.653028 103.745455 
L 193.012703 102.647273 
L 193.012703 100.450909 
L 193.012703 98.254545 
L 193.012703 96.058182 
L 193.012703 93.861818 
L 193.012703 91.665455 
L 193.012703 89.469091 
L 193.012703 87.272727 
L 193.012703 85.076364 
L 193.012703 82.88 
L 193.012703 80.683636 
L 193.012703 78.487273 
L 193.012703 76.290909 
L 193.012703 74.094545 
L 191.372378 72.996364 
L 189.732053 71.898182 
L 189.732053 69.701818 
L 189.732053 67.505455 
L 189.732053 65.309091 
L 189.732053 63.112727 
L 189.732053 60.916364 
L 189.732053 58.72 
L 189.732053 56.523636 
L 189.732053 54.327273 
L 189.732053 52.130909 
L 189.732053 49.934545 
L 189.732053 47.738182 
L 189.732053 45.541818 
L 188.091727 44.443636 
L 186.451402 43.345455 
L 186.451402 41.149091 
L 186.451402 38.952727 
L 186.451402 36.756364 
L 186.451402 34.56 
L 185.959305 34.56 
L 185.959305 36.756364 
L 185.959305 38.952727 
L 185.959305 41.149091 
L 185.959305 43.345455 
L 188.091727 44.773091 
L 189.239955 45.541818 
L 189.239955 47.738182 
L 189.239955 49.934545 
L 189.239955 52.130909 
L 189.239955 54.327273 
L 189.239955 56.523636 
L 189.239955 58.72 
L 189.239955 60.916364 
L 189.239955 63.112727 
L 189.239955 65.309091 
L 189.239955 67.505455 
L 189.239955 69.701818 
L 189.239955 71.898182 
L 191.372378 73.325818 
L 192.520605 74.094545 
L 192.520605 76.290909 
L 192.520605 78.487273 
L 192.520605 80.683636 
L 192.520605 82.88 
L 192.520605 85.076364 
L 192.520605 87.272727 
L 192.520605 89.469091 
L 192.520605 91.665455 
L 192.520605 93.861818 
L 192.520605 96.058182 
L 192.520605 98.254545 
L 192.520605 100.450909 
L 192.520605 102.647273 
L 194.653028 104.074909 
L 195.801255 104.843636 
L 195.801255 107.04 
L 195.801255 109.236364 
L 197.933678 110.664 
L 199.081905 111.432727 
L 199.081905 113.629091 
L 201.214328 115.056727 
L 202.362555 115.825455 
L 204.494978 117.253091 
L 205.643206 118.021818 
L 205.643206 120.218182 
L 207.775628 121.645818 
L 208.923856 122.414545 
L 211.056278 123.842182 
L 212.204506 124.610909 
L 212.204506 126.807273 
L 214.336928 128.234909 
L 215.485156 129.003636 
L 217.617578 130.431273 
L 218.765806 131.2 
L 218.765806 133.396364 
L 220.898229 134.824 
L 222.046456 135.592727 
L 224.178879 137.020364 
L 225.327106 137.789091 
L 225.327106 139.985455 
L 227.459529 141.413091 
L 228.607756 142.181818 
L 228.607756 144.378182 
L 230.740179 145.805818 
L 231.888406 146.574545 
L 231.888406 148.770909 
L 234.020829 150.198545 
L 235.169057 150.967273 
L 237.301479 152.394909 
L 238.449707 153.163636 
L 238.449707 155.36 
L 240.582129 156.787636 
L 241.730357 157.556364 
L 241.730357 159.752727 
L 243.862779 161.180364 
L 245.011007 161.949091 
L 245.011007 164.145455 
L 247.14343 165.573091 
L 248.291657 166.341818 
L 248.291657 168.538182 
L 248.291657 170.734545 
L 250.42408 172.162182 
L 251.572307 172.930909 
L 251.572307 175.127273 
L 251.572307 177.323636 
L 251.572307 179.52 
L 251.572307 181.716364 
L 251.572307 183.912727 
L 250.42408 184.681455 
L 248.291657 186.109091 
L 247.14343 186.877818 
L 245.011007 188.305455 
L 243.862779 189.074182 
L 241.730357 190.501818 
L 240.582129 191.270545 
L 237.301479 191.270545 
L 235.169057 192.698182 
L 234.020829 193.466909 
L 231.888406 194.894545 
L 230.740179 195.663273 
L 228.607756 197.090909 
L 227.459529 197.859636 
L 225.327106 199.287273 
L 224.178879 200.056 
L 222.046456 201.483636 
L 220.898229 202.252364 
L 218.765806 203.68 
L 218.765806 205.876364 
L 217.617578 206.645091 
L 215.485156 208.072727 
L 215.485156 210.269091 
L 214.336928 211.037818 
L 212.204506 212.465455 
L 212.204506 214.661818 
L 212.204506 216.858182 
L 212.204506 219.054545 
L 214.336928 220.482182 
L 215.485156 221.250909 
L 215.485156 223.447273 
L 215.485156 225.643636 
L 217.617578 227.071273 
L 218.765806 227.84 
L 220.898229 229.267636 
L 222.046456 230.036364 
L 224.178879 231.464 
L 225.327106 232.232727 
L 227.459529 233.660364 
L 228.607756 234.429091 
L 230.740179 235.856727 
L 231.888406 236.625455 
L 234.020829 238.053091 
L 235.169057 238.821818 
L 237.301479 240.249455 
L 238.449707 241.018182 
L 240.582129 242.445818 
L 243.862779 242.445818 
L 245.011007 243.214545 
L 247.14343 244.642182 
L 250.42408 244.642182 
L 251.572307 245.410909 
L 253.70473 246.838545 
L 256.98538 246.838545 
L 258.133607 247.607273 
L 260.26603 249.034909 
L 263.54668 249.034909 
L 264.694908 249.803636 
z
" clip-path="url(#p7df5ec4af9)" style="fill: #46ffb1; fill-opacity: 0.5"/>
   </g>
   <g id="PathCollection_11">
    <path d="M 266.82733 250.901818 
L 270.10798 250.901818 
L 271.748305 252 
L 272.240403 252 
L 270.10798 250.572364 
L 266.82733 250.572364 
L 265.679103 249.803636 
L 263.54668 248.376 
L 260.26603 248.376 
L 259.117802 247.607273 
L 256.98538 246.179636 
L 253.70473 246.179636 
L 252.556502 245.410909 
L 250.42408 243.983273 
L 247.14343 243.983273 
L 245.995202 243.214545 
L 243.862779 241.786909 
L 240.582129 241.786909 
L 239.433902 241.018182 
L 237.301479 239.590545 
L 236.153252 238.821818 
L 234.020829 237.394182 
L 232.872602 236.625455 
L 230.740179 235.197818 
L 229.591951 234.429091 
L 227.459529 233.001455 
L 226.311301 232.232727 
L 224.178879 230.805091 
L 223.030651 230.036364 
L 220.898229 228.608727 
L 219.750001 227.84 
L 217.617578 226.412364 
L 216.469351 225.643636 
L 216.469351 223.447273 
L 216.469351 221.250909 
L 214.336928 219.823273 
L 213.188701 219.054545 
L 213.188701 216.858182 
L 213.188701 214.661818 
L 213.188701 212.465455 
L 214.336928 211.696727 
L 216.469351 210.269091 
L 216.469351 208.072727 
L 217.617578 207.304 
L 219.750001 205.876364 
L 219.750001 203.68 
L 220.898229 202.911273 
L 223.030651 201.483636 
L 224.178879 200.714909 
L 226.311301 199.287273 
L 227.459529 198.518545 
L 229.591951 197.090909 
L 230.740179 196.322182 
L 232.872602 194.894545 
L 234.020829 194.125818 
L 236.153252 192.698182 
L 237.301479 191.929455 
L 240.582129 191.929455 
L 242.714552 190.501818 
L 243.862779 189.733091 
L 245.995202 188.305455 
L 247.14343 187.536727 
L 249.275852 186.109091 
L 250.42408 185.340364 
L 252.556502 183.912727 
L 252.556502 181.716364 
L 252.556502 179.52 
L 252.556502 177.323636 
L 252.556502 175.127273 
L 252.556502 172.930909 
L 250.42408 171.503273 
L 249.275852 170.734545 
L 249.275852 168.538182 
L 249.275852 166.341818 
L 247.14343 164.914182 
L 245.995202 164.145455 
L 245.995202 161.949091 
L 243.862779 160.521455 
L 242.714552 159.752727 
L 242.714552 157.556364 
L 240.582129 156.128727 
L 239.433902 155.36 
L 239.433902 153.163636 
L 237.301479 151.736 
L 236.153252 150.967273 
L 234.020829 149.539636 
L 232.872602 148.770909 
L 232.872602 146.574545 
L 230.740179 145.146909 
L 229.591951 144.378182 
L 229.591951 142.181818 
L 227.459529 140.754182 
L 226.311301 139.985455 
L 226.311301 137.789091 
L 224.178879 136.361455 
L 223.030651 135.592727 
L 220.898229 134.165091 
L 219.750001 133.396364 
L 219.750001 131.2 
L 217.617578 129.772364 
L 216.469351 129.003636 
L 214.336928 127.576 
L 213.188701 126.807273 
L 213.188701 124.610909 
L 211.056278 123.183273 
L 209.908051 122.414545 
L 207.775628 120.986909 
L 206.627401 120.218182 
L 206.627401 118.021818 
L 204.494978 116.594182 
L 203.346751 115.825455 
L 201.214328 114.397818 
L 200.0661 113.629091 
L 200.0661 111.432727 
L 197.933678 110.005091 
L 196.78545 109.236364 
L 196.78545 107.04 
L 196.78545 104.843636 
L 194.653028 103.416 
L 193.5048 102.647273 
L 193.5048 100.450909 
L 193.5048 98.254545 
L 193.5048 96.058182 
L 193.5048 93.861818 
L 193.5048 91.665455 
L 193.5048 89.469091 
L 193.5048 87.272727 
L 193.5048 85.076364 
L 193.5048 82.88 
L 193.5048 80.683636 
L 193.5048 78.487273 
L 193.5048 76.290909 
L 193.5048 74.094545 
L 191.372378 72.666909 
L 190.22415 71.898182 
L 190.22415 69.701818 
L 190.22415 67.505455 
L 190.22415 65.309091 
L 190.22415 63.112727 
L 190.22415 60.916364 
L 190.22415 58.72 
L 190.22415 56.523636 
L 190.22415 54.327273 
L 190.22415 52.130909 
L 190.22415 49.934545 
L 190.22415 47.738182 
L 190.22415 45.541818 
L 188.091727 44.114182 
L 186.9435 43.345455 
L 186.9435 41.149091 
L 186.9435 38.952727 
L 186.9435 36.756364 
L 186.9435 34.56 
L 186.451402 34.56 
L 186.451402 36.756364 
L 186.451402 38.952727 
L 186.451402 41.149091 
L 186.451402 43.345455 
L 188.091727 44.443636 
L 189.732053 45.541818 
L 189.732053 47.738182 
L 189.732053 49.934545 
L 189.732053 52.130909 
L 189.732053 54.327273 
L 189.732053 56.523636 
L 189.732053 58.72 
L 189.732053 60.916364 
L 189.732053 63.112727 
L 189.732053 65.309091 
L 189.732053 67.505455 
L 189.732053 69.701818 
L 189.732053 71.898182 
L 191.372378 72.996364 
L 193.012703 74.094545 
L 193.012703 76.290909 
L 193.012703 78.487273 
L 193.012703 80.683636 
L 193.012703 82.88 
L 193.012703 85.076364 
L 193.012703 87.272727 
L 193.012703 89.469091 
L 193.012703 91.665455 
L 193.012703 93.861818 
L 193.012703 96.058182 
L 193.012703 98.254545 
L 193.012703 100.450909 
L 193.012703 102.647273 
L 194.653028 103.745455 
L 196.293353 104.843636 
L 196.293353 107.04 
L 196.293353 109.236364 
L 197.933678 110.334545 
L 199.574003 111.432727 
L 199.574003 113.629091 
L 201.214328 114.727273 
L 202.854653 115.825455 
L 204.494978 116.923636 
L 206.135303 118.021818 
L 206.135303 120.218182 
L 207.775628 121.316364 
L 209.415953 122.414545 
L 211.056278 123.512727 
L 212.696603 124.610909 
L 212.696603 126.807273 
L 214.336928 127.905455 
L 215.977253 129.003636 
L 217.617578 130.101818 
L 219.257904 131.2 
L 219.257904 133.396364 
L 220.898229 134.494545 
L 222.538554 135.592727 
L 224.178879 136.690909 
L 225.819204 137.789091 
L 225.819204 139.985455 
L 227.459529 141.083636 
L 229.099854 142.181818 
L 229.099854 144.378182 
L 230.740179 145.476364 
L 232.380504 146.574545 
L 232.380504 148.770909 
L 234.020829 149.869091 
L 235.661154 150.967273 
L 237.301479 152.065455 
L 238.941804 153.163636 
L 238.941804 155.36 
L 240.582129 156.458182 
L 242.222454 157.556364 
L 242.222454 159.752727 
L 243.862779 160.850909 
L 245.503104 161.949091 
L 245.503104 164.145455 
L 247.14343 165.243636 
L 248.783755 166.341818 
L 248.783755 168.538182 
L 248.783755 170.734545 
L 250.42408 171.832727 
L 252.064405 172.930909 
L 252.064405 175.127273 
L 252.064405 177.323636 
L 252.064405 179.52 
L 252.064405 181.716364 
L 252.064405 183.912727 
L 250.42408 185.010909 
L 248.783755 186.109091 
L 247.14343 187.207273 
L 245.503104 188.305455 
L 243.862779 189.403636 
L 242.222454 190.501818 
L 240.582129 191.6 
L 237.301479 191.6 
L 235.661154 192.698182 
L 234.020829 193.796364 
L 232.380504 194.894545 
L 230.740179 195.992727 
L 229.099854 197.090909 
L 227.459529 198.189091 
L 225.819204 199.287273 
L 224.178879 200.385455 
L 222.538554 201.483636 
L 220.898229 202.581818 
L 219.257904 203.68 
L 219.257904 205.876364 
L 217.617578 206.974545 
L 215.977253 208.072727 
L 215.977253 210.269091 
L 214.336928 211.367273 
L 212.696603 212.465455 
L 212.696603 214.661818 
L 212.696603 216.858182 
L 212.696603 219.054545 
L 214.336928 220.152727 
L 215.977253 221.250909 
L 215.977253 223.447273 
L 215.977253 225.643636 
L 217.617578 226.741818 
L 219.257904 227.84 
L 220.898229 228.938182 
L 222.538554 230.036364 
L 224.178879 231.134545 
L 225.819204 232.232727 
L 227.459529 233.330909 
L 229.099854 234.429091 
L 230.740179 235.527273 
L 232.380504 236.625455 
L 234.020829 237.723636 
L 235.661154 238.821818 
L 237.301479 239.92 
L 238.941804 241.018182 
L 240.582129 242.116364 
L 243.862779 242.116364 
L 245.503104 243.214545 
L 247.14343 244.312727 
L 250.42408 244.312727 
L 252.064405 245.410909 
L 253.70473 246.509091 
L 256.98538 246.509091 
L 258.625705 247.607273 
L 260.26603 248.705455 
L 263.54668 248.705455 
L 265.187005 249.803636 
z
" clip-path="url(#p7df5ec4af9)" style="fill: #adff49; fill-opacity: 0.5"/>
   </g>
   <g id="PathCollection_12">
    <path d="M 266.82733 250.572364 
L 270.10798 250.572364 
L 272.240403 252 
L 272.7325 252 
L 270.10798 250.242909 
L 266.82733 250.242909 
L 266.1712 249.803636 
L 263.54668 248.046545 
L 260.26603 248.046545 
L 259.6099 247.607273 
L 256.98538 245.850182 
L 253.70473 245.850182 
L 253.0486 245.410909 
L 250.42408 243.653818 
L 247.14343 243.653818 
L 246.487299 243.214545 
L 243.862779 241.457455 
L 240.582129 241.457455 
L 239.925999 241.018182 
L 237.301479 239.261091 
L 236.645349 238.821818 
L 234.020829 237.064727 
L 233.364699 236.625455 
L 230.740179 234.868364 
L 230.084049 234.429091 
L 227.459529 232.672 
L 226.803399 232.232727 
L 224.178879 230.475636 
L 223.522749 230.036364 
L 220.898229 228.279273 
L 220.242099 227.84 
L 217.617578 226.082909 
L 216.961448 225.643636 
L 216.961448 223.447273 
L 216.961448 221.250909 
L 214.336928 219.493818 
L 213.680798 219.054545 
L 213.680798 216.858182 
L 213.680798 214.661818 
L 213.680798 212.465455 
L 214.336928 212.026182 
L 216.961448 210.269091 
L 216.961448 208.072727 
L 217.617578 207.633455 
L 220.242099 205.876364 
L 220.242099 203.68 
L 220.898229 203.240727 
L 223.522749 201.483636 
L 224.178879 201.044364 
L 226.803399 199.287273 
L 227.459529 198.848 
L 230.084049 197.090909 
L 230.740179 196.651636 
L 233.364699 194.894545 
L 234.020829 194.455273 
L 236.645349 192.698182 
L 237.301479 192.258909 
L 240.582129 192.258909 
L 243.206649 190.501818 
L 243.862779 190.062545 
L 246.487299 188.305455 
L 247.14343 187.866182 
L 249.76795 186.109091 
L 250.42408 185.669818 
L 253.0486 183.912727 
L 253.0486 181.716364 
L 253.0486 179.52 
L 253.0486 177.323636 
L 253.0486 175.127273 
L 253.0486 172.930909 
L 250.42408 171.173818 
L 249.76795 170.734545 
L 249.76795 168.538182 
L 249.76795 166.341818 
L 247.14343 164.584727 
L 246.487299 164.145455 
L 246.487299 161.949091 
L 243.862779 160.192 
L 243.206649 159.752727 
L 243.206649 157.556364 
L 240.582129 155.799273 
L 239.925999 155.36 
L 239.925999 153.163636 
L 237.301479 151.406545 
L 236.645349 150.967273 
L 234.020829 149.210182 
L 233.364699 148.770909 
L 233.364699 146.574545 
L 230.740179 144.817455 
L 230.084049 144.378182 
L 230.084049 142.181818 
L 227.459529 140.424727 
L 226.803399 139.985455 
L 226.803399 137.789091 
L 224.178879 136.032 
L 223.522749 135.592727 
L 220.898229 133.835636 
L 220.242099 133.396364 
L 220.242099 131.2 
L 217.617578 129.442909 
L 216.961448 129.003636 
L 214.336928 127.246545 
L 213.680798 126.807273 
L 213.680798 124.610909 
L 211.056278 122.853818 
L 210.400148 122.414545 
L 207.775628 120.657455 
L 207.119498 120.218182 
L 207.119498 118.021818 
L 204.494978 116.264727 
L 203.838848 115.825455 
L 201.214328 114.068364 
L 200.558198 113.629091 
L 200.558198 111.432727 
L 197.933678 109.675636 
L 197.277548 109.236364 
L 197.277548 107.04 
L 197.277548 104.843636 
L 194.653028 103.086545 
L 193.996898 102.647273 
L 193.996898 100.450909 
L 193.996898 98.254545 
L 193.996898 96.058182 
L 193.996898 93.861818 
L 193.996898 91.665455 
L 193.996898 89.469091 
L 193.996898 87.272727 
L 193.996898 85.076364 
L 193.996898 82.88 
L 193.996898 80.683636 
L 193.996898 78.487273 
L 193.996898 76.290909 
L 193.996898 74.094545 
L 191.372378 72.337455 
L 190.716248 71.898182 
L 190.716248 69.701818 
L 190.716248 67.505455 
L 190.716248 65.309091 
L 190.716248 63.112727 
L 190.716248 60.916364 
L 190.716248 58.72 
L 190.716248 56.523636 
L 190.716248 54.327273 
L 190.716248 52.130909 
L 190.716248 49.934545 
L 190.716248 47.738182 
L 190.716248 45.541818 
L 188.091727 43.784727 
L 187.435597 43.345455 
L 187.435597 41.149091 
L 187.435597 38.952727 
L 187.435597 36.756364 
L 187.435597 34.56 
L 186.9435 34.56 
L 186.9435 36.756364 
L 186.9435 38.952727 
L 186.9435 41.149091 
L 186.9435 43.345455 
L 188.091727 44.114182 
L 190.22415 45.541818 
L 190.22415 47.738182 
L 190.22415 49.934545 
L 190.22415 52.130909 
L 190.22415 54.327273 
L 190.22415 56.523636 
L 190.22415 58.72 
L 190.22415 60.916364 
L 190.22415 63.112727 
L 190.22415 65.309091 
L 190.22415 67.505455 
L 190.22415 69.701818 
L 190.22415 71.898182 
L 191.372378 72.666909 
L 193.5048 74.094545 
L 193.5048 76.290909 
L 193.5048 78.487273 
L 193.5048 80.683636 
L 193.5048 82.88 
L 193.5048 85.076364 
L 193.5048 87.272727 
L 193.5048 89.469091 
L 193.5048 91.665455 
L 193.5048 93.861818 
L 193.5048 96.058182 
L 193.5048 98.254545 
L 193.5048 100.450909 
L 193.5048 102.647273 
L 194.653028 103.416 
L 196.78545 104.843636 
L 196.78545 107.04 
L 196.78545 109.236364 
L 197.933678 110.005091 
L 200.0661 111.432727 
L 200.0661 113.629091 
L 201.214328 114.397818 
L 203.346751 115.825455 
L 204.494978 116.594182 
L 206.627401 118.021818 
L 206.627401 120.218182 
L 207.775628 120.986909 
L 209.908051 122.414545 
L 211.056278 123.183273 
L 213.188701 124.610909 
L 213.188701 126.807273 
L 214.336928 127.576 
L 216.469351 129.003636 
L 217.617578 129.772364 
L 219.750001 131.2 
L 219.750001 133.396364 
L 220.898229 134.165091 
L 223.030651 135.592727 
L 224.178879 136.361455 
L 226.311301 137.789091 
L 226.311301 139.985455 
L 227.459529 140.754182 
L 229.591951 142.181818 
L 229.591951 144.378182 
L 230.740179 145.146909 
L 232.872602 146.574545 
L 232.872602 148.770909 
L 234.020829 149.539636 
L 236.153252 150.967273 
L 237.301479 151.736 
L 239.433902 153.163636 
L 239.433902 155.36 
L 240.582129 156.128727 
L 242.714552 157.556364 
L 242.714552 159.752727 
L 243.862779 160.521455 
L 245.995202 161.949091 
L 245.995202 164.145455 
L 247.14343 164.914182 
L 249.275852 166.341818 
L 249.275852 168.538182 
L 249.275852 170.734545 
L 250.42408 171.503273 
L 252.556502 172.930909 
L 252.556502 175.127273 
L 252.556502 177.323636 
L 252.556502 179.52 
L 252.556502 181.716364 
L 252.556502 183.912727 
L 250.42408 185.340364 
L 249.275852 186.109091 
L 247.14343 187.536727 
L 245.995202 188.305455 
L 243.862779 189.733091 
L 242.714552 190.501818 
L 240.582129 191.929455 
L 237.301479 191.929455 
L 236.153252 192.698182 
L 234.020829 194.125818 
L 232.872602 194.894545 
L 230.740179 196.322182 
L 229.591951 197.090909 
L 227.459529 198.518545 
L 226.311301 199.287273 
L 224.178879 200.714909 
L 223.030651 201.483636 
L 220.898229 202.911273 
L 219.750001 203.68 
L 219.750001 205.876364 
L 217.617578 207.304 
L 216.469351 208.072727 
L 216.469351 210.269091 
L 214.336928 211.696727 
L 213.188701 212.465455 
L 213.188701 214.661818 
L 213.188701 216.858182 
L 213.188701 219.054545 
L 214.336928 219.823273 
L 216.469351 221.250909 
L 216.469351 223.447273 
L 216.469351 225.643636 
L 217.617578 226.412364 
L 219.750001 227.84 
L 220.898229 228.608727 
L 223.030651 230.036364 
L 224.178879 230.805091 
L 226.311301 232.232727 
L 227.459529 233.001455 
L 229.591951 234.429091 
L 230.740179 235.197818 
L 232.872602 236.625455 
L 234.020829 237.394182 
L 236.153252 238.821818 
L 237.301479 239.590545 
L 239.433902 241.018182 
L 240.582129 241.786909 
L 243.862779 241.786909 
L 245.995202 243.214545 
L 247.14343 243.983273 
L 250.42408 243.983273 
L 252.556502 245.410909 
L 253.70473 246.179636 
L 256.98538 246.179636 
L 259.117802 247.607273 
L 260.26603 248.376 
L 263.54668 248.376 
L 265.679103 249.803636 
z
" clip-path="url(#p7df5ec4af9)" style="fill: #ffd300; fill-opacity: 0.5"/>
   </g>
   <g id="PathCollection_13">
    <path d="M 266.82733 250.242909 
L 270.10798 250.242909 
L 272.7325 252 
L 273.224598 252 
L 270.10798 249.913455 
L 266.82733 249.913455 
L 266.663298 249.803636 
L 263.54668 247.717091 
L 260.26603 247.717091 
L 260.101997 247.607273 
L 256.98538 245.520727 
L 253.70473 245.520727 
L 253.540697 245.410909 
L 250.42408 243.324364 
L 247.14343 243.324364 
L 246.979397 243.214545 
L 243.862779 241.128 
L 240.582129 241.128 
L 240.418097 241.018182 
L 237.301479 238.931636 
L 237.137447 238.821818 
L 234.020829 236.735273 
L 233.856797 236.625455 
L 230.740179 234.538909 
L 230.576146 234.429091 
L 227.459529 232.342545 
L 227.295496 232.232727 
L 224.178879 230.146182 
L 224.014846 230.036364 
L 220.898229 227.949818 
L 220.734196 227.84 
L 217.617578 225.753455 
L 217.453546 225.643636 
L 217.453546 223.447273 
L 217.453546 221.250909 
L 214.336928 219.164364 
L 214.172896 219.054545 
L 214.172896 216.858182 
L 214.172896 214.661818 
L 214.172896 212.465455 
L 214.336928 212.355636 
L 217.453546 210.269091 
L 217.453546 208.072727 
L 217.617578 207.962909 
L 220.734196 205.876364 
L 220.734196 203.68 
L 220.898229 203.570182 
L 224.014846 201.483636 
L 224.178879 201.373818 
L 227.295496 199.287273 
L 227.459529 199.177455 
L 230.576146 197.090909 
L 230.740179 196.981091 
L 233.856797 194.894545 
L 234.020829 194.784727 
L 237.137447 192.698182 
L 237.301479 192.588364 
L 240.582129 192.588364 
L 243.698747 190.501818 
L 243.862779 190.392 
L 246.979397 188.305455 
L 247.14343 188.195636 
L 250.260047 186.109091 
L 250.42408 185.999273 
L 253.540697 183.912727 
L 253.540697 181.716364 
L 253.540697 179.52 
L 253.540697 177.323636 
L 253.540697 175.127273 
L 253.540697 172.930909 
L 250.42408 170.844364 
L 250.260047 170.734545 
L 250.260047 168.538182 
L 250.260047 166.341818 
L 247.14343 164.255273 
L 246.979397 164.145455 
L 246.979397 161.949091 
L 243.862779 159.862545 
L 243.698747 159.752727 
L 243.698747 157.556364 
L 240.582129 155.469818 
L 240.418097 155.36 
L 240.418097 153.163636 
L 237.301479 151.077091 
L 237.137447 150.967273 
L 234.020829 148.880727 
L 233.856797 148.770909 
L 233.856797 146.574545 
L 230.740179 144.488 
L 230.576146 144.378182 
L 230.576146 142.181818 
L 227.459529 140.095273 
L 227.295496 139.985455 
L 227.295496 137.789091 
L 224.178879 135.702545 
L 224.014846 135.592727 
L 220.898229 133.506182 
L 220.734196 133.396364 
L 220.734196 131.2 
L 217.617578 129.113455 
L 217.453546 129.003636 
L 214.336928 126.917091 
L 214.172896 126.807273 
L 214.172896 124.610909 
L 211.056278 122.524364 
L 210.892246 122.414545 
L 207.775628 120.328 
L 207.611596 120.218182 
L 207.611596 118.021818 
L 204.494978 115.935273 
L 204.330946 115.825455 
L 201.214328 113.738909 
L 201.050295 113.629091 
L 201.050295 111.432727 
L 197.933678 109.346182 
L 197.769645 109.236364 
L 197.769645 107.04 
L 197.769645 104.843636 
L 194.653028 102.757091 
L 194.488995 102.647273 
L 194.488995 100.450909 
L 194.488995 98.254545 
L 194.488995 96.058182 
L 194.488995 93.861818 
L 194.488995 91.665455 
L 194.488995 89.469091 
L 194.488995 87.272727 
L 194.488995 85.076364 
L 194.488995 82.88 
L 194.488995 80.683636 
L 194.488995 78.487273 
L 194.488995 76.290909 
L 194.488995 74.094545 
L 191.372378 72.008 
L 191.208345 71.898182 
L 191.208345 69.701818 
L 191.208345 67.505455 
L 191.208345 65.309091 
L 191.208345 63.112727 
L 191.208345 60.916364 
L 191.208345 58.72 
L 191.208345 56.523636 
L 191.208345 54.327273 
L 191.208345 52.130909 
L 191.208345 49.934545 
L 191.208345 47.738182 
L 191.208345 45.541818 
L 188.091727 43.455273 
L 187.927695 43.345455 
L 187.927695 41.149091 
L 187.927695 38.952727 
L 187.927695 36.756364 
L 187.927695 34.56 
L 187.435597 34.56 
L 187.435597 36.756364 
L 187.435597 38.952727 
L 187.435597 41.149091 
L 187.435597 43.345455 
L 188.091727 43.784727 
L 190.716248 45.541818 
L 190.716248 47.738182 
L 190.716248 49.934545 
L 190.716248 52.130909 
L 190.716248 54.327273 
L 190.716248 56.523636 
L 190.716248 58.72 
L 190.716248 60.916364 
L 190.716248 63.112727 
L 190.716248 65.309091 
L 190.716248 67.505455 
L 190.716248 69.701818 
L 190.716248 71.898182 
L 191.372378 72.337455 
L 193.996898 74.094545 
L 193.996898 76.290909 
L 193.996898 78.487273 
L 193.996898 80.683636 
L 193.996898 82.88 
L 193.996898 85.076364 
L 193.996898 87.272727 
L 193.996898 89.469091 
L 193.996898 91.665455 
L 193.996898 93.861818 
L 193.996898 96.058182 
L 193.996898 98.254545 
L 193.996898 100.450909 
L 193.996898 102.647273 
L 194.653028 103.086545 
L 197.277548 104.843636 
L 197.277548 107.04 
L 197.277548 109.236364 
L 197.933678 109.675636 
L 200.558198 111.432727 
L 200.558198 113.629091 
L 201.214328 114.068364 
L 203.838848 115.825455 
L 204.494978 116.264727 
L 207.119498 118.021818 
L 207.119498 120.218182 
L 207.775628 120.657455 
L 210.400148 122.414545 
L 211.056278 122.853818 
L 213.680798 124.610909 
L 213.680798 126.807273 
L 214.336928 127.246545 
L 216.961448 129.003636 
L 217.617578 129.442909 
L 220.242099 131.2 
L 220.242099 133.396364 
L 220.898229 133.835636 
L 223.522749 135.592727 
L 224.178879 136.032 
L 226.803399 137.789091 
L 226.803399 139.985455 
L 227.459529 140.424727 
L 230.084049 142.181818 
L 230.084049 144.378182 
L 230.740179 144.817455 
L 233.364699 146.574545 
L 233.364699 148.770909 
L 234.020829 149.210182 
L 236.645349 150.967273 
L 237.301479 151.406545 
L 239.925999 153.163636 
L 239.925999 155.36 
L 240.582129 155.799273 
L 243.206649 157.556364 
L 243.206649 159.752727 
L 243.862779 160.192 
L 246.487299 161.949091 
L 246.487299 164.145455 
L 247.14343 164.584727 
L 249.76795 166.341818 
L 249.76795 168.538182 
L 249.76795 170.734545 
L 250.42408 171.173818 
L 253.0486 172.930909 
L 253.0486 175.127273 
L 253.0486 177.323636 
L 253.0486 179.52 
L 253.0486 181.716364 
L 253.0486 183.912727 
L 250.42408 185.669818 
L 249.76795 186.109091 
L 247.14343 187.866182 
L 246.487299 188.305455 
L 243.862779 190.062545 
L 243.206649 190.501818 
L 240.582129 192.258909 
L 237.301479 192.258909 
L 236.645349 192.698182 
L 234.020829 194.455273 
L 233.364699 194.894545 
L 230.740179 196.651636 
L 230.084049 197.090909 
L 227.459529 198.848 
L 226.803399 199.287273 
L 224.178879 201.044364 
L 223.522749 201.483636 
L 220.898229 203.240727 
L 220.242099 203.68 
L 220.242099 205.876364 
L 217.617578 207.633455 
L 216.961448 208.072727 
L 216.961448 210.269091 
L 214.336928 212.026182 
L 213.680798 212.465455 
L 213.680798 214.661818 
L 213.680798 216.858182 
L 213.680798 219.054545 
L 214.336928 219.493818 
L 216.961448 221.250909 
L 216.961448 223.447273 
L 216.961448 225.643636 
L 217.617578 226.082909 
L 220.242099 227.84 
L 220.898229 228.279273 
L 223.522749 230.036364 
L 224.178879 230.475636 
L 226.803399 232.232727 
L 227.459529 232.672 
L 230.084049 234.429091 
L 230.740179 234.868364 
L 233.364699 236.625455 
L 234.020829 237.064727 
L 236.645349 238.821818 
L 237.301479 239.261091 
L 239.925999 241.018182 
L 240.582129 241.457455 
L 243.862779 241.457455 
L 246.487299 243.214545 
L 247.14343 243.653818 
L 250.42408 243.653818 
L 253.0486 245.410909 
L 253.70473 245.850182 
L 256.98538 245.850182 
L 259.6099 247.607273 
L 260.26603 248.046545 
L 263.54668 248.046545 
L 266.1712 249.803636 
z
" clip-path="url(#p7df5ec4af9)" style="fill: #ff5900; fill-opacity: 0.5"/>
   </g>
   <g id="PathCollection_14">
    <path d="M 266.82733 249.913455 
L 270.10798 249.913455 
L 273.224598 252 
L 273.38863 252 
L 276.669281 252 
L 279.949931 252 
L 283.230581 252 
L 286.511231 252 
L 289.791881 252 
L 293.072531 252 
L 296.353181 252 
L 299.633831 252 
L 302.914481 252 
L 306.195132 252 
L 309.475782 252 
L 312.756432 252 
L 316.037082 252 
L 319.317732 252 
L 322.598382 252 
L 325.879032 252 
L 329.159682 252 
L 332.440332 252 
L 335.720983 252 
L 339.001633 252 
L 342.282283 252 
L 345.562933 252 
L 348.843583 252 
L 352.124233 252 
L 355.404883 252 
L 358.685533 252 
L 361.966183 252 
L 365.246834 252 
L 368.527484 252 
L 371.808134 252 
L 375.088784 252 
L 378.369434 252 
L 381.650084 252 
L 384.930734 252 
L 388.211384 252 
L 388.211384 249.803636 
L 388.211384 247.607273 
L 388.211384 245.410909 
L 388.211384 243.214545 
L 388.211384 241.018182 
L 388.211384 238.821818 
L 388.211384 236.625455 
L 388.211384 234.429091 
L 388.211384 232.232727 
L 388.211384 230.036364 
L 388.211384 227.84 
L 388.211384 225.643636 
L 388.211384 223.447273 
L 388.211384 221.250909 
L 388.211384 219.054545 
L 388.211384 216.858182 
L 388.211384 214.661818 
L 388.211384 212.465455 
L 388.211384 210.269091 
L 388.211384 208.072727 
L 388.211384 205.876364 
L 388.211384 203.68 
L 388.211384 201.483636 
L 388.211384 199.287273 
L 388.211384 197.090909 
L 388.211384 194.894545 
L 388.211384 192.698182 
L 388.211384 190.501818 
L 388.211384 188.305455 
L 388.211384 186.109091 
L 388.211384 183.912727 
L 388.211384 181.716364 
L 388.211384 179.52 
L 388.211384 177.323636 
L 388.211384 175.127273 
L 388.211384 172.930909 
L 388.211384 170.734545 
L 388.211384 168.538182 
L 388.211384 166.341818 
L 388.211384 164.145455 
L 388.211384 161.949091 
L 388.211384 159.752727 
L 388.211384 157.556364 
L 388.211384 155.36 
L 388.211384 153.163636 
L 388.211384 150.967273 
L 388.211384 148.770909 
L 388.211384 146.574545 
L 388.211384 144.378182 
L 388.211384 142.181818 
L 388.211384 139.985455 
L 388.211384 137.789091 
L 388.211384 135.592727 
L 388.211384 133.396364 
L 388.211384 131.2 
L 388.211384 129.003636 
L 388.211384 126.807273 
L 388.211384 124.610909 
L 388.211384 122.414545 
L 388.211384 120.218182 
L 388.211384 118.021818 
L 388.211384 115.825455 
L 388.211384 113.629091 
L 388.211384 111.432727 
L 388.211384 109.236364 
L 388.211384 107.04 
L 388.211384 104.843636 
L 388.211384 102.647273 
L 388.211384 100.450909 
L 388.211384 98.254545 
L 388.211384 96.058182 
L 388.211384 93.861818 
L 388.211384 91.665455 
L 388.211384 89.469091 
L 388.211384 87.272727 
L 388.211384 85.076364 
L 388.211384 82.88 
L 388.211384 80.683636 
L 388.211384 78.487273 
L 388.211384 76.290909 
L 388.211384 74.094545 
L 388.211384 71.898182 
L 388.211384 69.701818 
L 388.211384 67.505455 
L 388.211384 65.309091 
L 388.211384 63.112727 
L 388.211384 60.916364 
L 388.211384 58.72 
L 388.211384 56.523636 
L 388.211384 54.327273 
L 388.211384 52.130909 
L 388.211384 49.934545 
L 388.211384 47.738182 
L 388.211384 45.541818 
L 388.211384 43.345455 
L 388.211384 41.149091 
L 388.211384 38.952727 
L 388.211384 36.756364 
L 388.211384 34.56 
L 384.930734 34.56 
L 381.650084 34.56 
L 378.369434 34.56 
L 375.088784 34.56 
L 371.808134 34.56 
L 368.527484 34.56 
L 365.246834 34.56 
L 361.966183 34.56 
L 358.685533 34.56 
L 355.404883 34.56 
L 352.124233 34.56 
L 348.843583 34.56 
L 345.562933 34.56 
L 342.282283 34.56 
L 339.001633 34.56 
L 335.720983 34.56 
L 332.440332 34.56 
L 329.159682 34.56 
L 325.879032 34.56 
L 322.598382 34.56 
L 319.317732 34.56 
L 316.037082 34.56 
L 312.756432 34.56 
L 309.475782 34.56 
L 306.195132 34.56 
L 302.914481 34.56 
L 299.633831 34.56 
L 296.353181 34.56 
L 293.072531 34.56 
L 289.791881 34.56 
L 286.511231 34.56 
L 283.230581 34.56 
L 279.949931 34.56 
L 276.669281 34.56 
L 273.38863 34.56 
L 270.10798 34.56 
L 266.82733 34.56 
L 263.54668 34.56 
L 260.26603 34.56 
L 256.98538 34.56 
L 253.70473 34.56 
L 250.42408 34.56 
L 247.14343 34.56 
L 243.862779 34.56 
L 240.582129 34.56 
L 237.301479 34.56 
L 234.020829 34.56 
L 230.740179 34.56 
L 227.459529 34.56 
L 224.178879 34.56 
L 220.898229 34.56 
L 217.617578 34.56 
L 214.336928 34.56 
L 211.056278 34.56 
L 207.775628 34.56 
L 204.494978 34.56 
L 201.214328 34.56 
L 197.933678 34.56 
L 194.653028 34.56 
L 191.372378 34.56 
L 188.091727 34.56 
L 187.927695 34.56 
L 187.927695 36.756364 
L 187.927695 38.952727 
L 187.927695 41.149091 
L 187.927695 43.345455 
L 188.091727 43.455273 
L 191.208345 45.541818 
L 191.208345 47.738182 
L 191.208345 49.934545 
L 191.208345 52.130909 
L 191.208345 54.327273 
L 191.208345 56.523636 
L 191.208345 58.72 
L 191.208345 60.916364 
L 191.208345 63.112727 
L 191.208345 65.309091 
L 191.208345 67.505455 
L 191.208345 69.701818 
L 191.208345 71.898182 
L 191.372378 72.008 
L 194.488995 74.094545 
L 194.488995 76.290909 
L 194.488995 78.487273 
L 194.488995 80.683636 
L 194.488995 82.88 
L 194.488995 85.076364 
L 194.488995 87.272727 
L 194.488995 89.469091 
L 194.488995 91.665455 
L 194.488995 93.861818 
L 194.488995 96.058182 
L 194.488995 98.254545 
L 194.488995 100.450909 
L 194.488995 102.647273 
L 194.653028 102.757091 
L 197.769645 104.843636 
L 197.769645 107.04 
L 197.769645 109.236364 
L 197.933678 109.346182 
L 201.050295 111.432727 
L 201.050295 113.629091 
L 201.214328 113.738909 
L 204.330946 115.825455 
L 204.494978 115.935273 
L 207.611596 118.021818 
L 207.611596 120.218182 
L 207.775628 120.328 
L 210.892246 122.414545 
L 211.056278 122.524364 
L 214.172896 124.610909 
L 214.172896 126.807273 
L 214.336928 126.917091 
L 217.453546 129.003636 
L 217.617578 129.113455 
L 220.734196 131.2 
L 220.734196 133.396364 
L 220.898229 133.506182 
L 224.014846 135.592727 
L 224.178879 135.702545 
L 227.295496 137.789091 
L 227.295496 139.985455 
L 227.459529 140.095273 
L 230.576146 142.181818 
L 230.576146 144.378182 
L 230.740179 144.488 
L 233.856797 146.574545 
L 233.856797 148.770909 
L 234.020829 148.880727 
L 237.137447 150.967273 
L 237.301479 151.077091 
L 240.418097 153.163636 
L 240.418097 155.36 
L 240.582129 155.469818 
L 243.698747 157.556364 
L 243.698747 159.752727 
L 243.862779 159.862545 
L 246.979397 161.949091 
L 246.979397 164.145455 
L 247.14343 164.255273 
L 250.260047 166.341818 
L 250.260047 168.538182 
L 250.260047 170.734545 
L 250.42408 170.844364 
L 253.540697 172.930909 
L 253.540697 175.127273 
L 253.540697 177.323636 
L 253.540697 179.52 
L 253.540697 181.716364 
L 253.540697 183.912727 
L 250.42408 185.999273 
L 250.260047 186.109091 
L 247.14343 188.195636 
L 246.979397 188.305455 
L 243.862779 190.392 
L 243.698747 190.501818 
L 240.582129 192.588364 
L 237.301479 192.588364 
L 237.137447 192.698182 
L 234.020829 194.784727 
L 233.856797 194.894545 
L 230.740179 196.981091 
L 230.576146 197.090909 
L 227.459529 199.177455 
L 227.295496 199.287273 
L 224.178879 201.373818 
L 224.014846 201.483636 
L 220.898229 203.570182 
L 220.734196 203.68 
L 220.734196 205.876364 
L 217.617578 207.962909 
L 217.453546 208.072727 
L 217.453546 210.269091 
L 214.336928 212.355636 
L 214.172896 212.465455 
L 214.172896 214.661818 
L 214.172896 216.858182 
L 214.172896 219.054545 
L 214.336928 219.164364 
L 217.453546 221.250909 
L 217.453546 223.447273 
L 217.453546 225.643636 
L 217.617578 225.753455 
L 220.734196 227.84 
L 220.898229 227.949818 
L 224.014846 230.036364 
L 224.178879 230.146182 
L 227.295496 232.232727 
L 227.459529 232.342545 
L 230.576146 234.429091 
L 230.740179 234.538909 
L 233.856797 236.625455 
L 234.020829 236.735273 
L 237.137447 238.821818 
L 237.301479 238.931636 
L 240.418097 241.018182 
L 240.582129 241.128 
L 243.862779 241.128 
L 246.979397 243.214545 
L 247.14343 243.324364 
L 250.42408 243.324364 
L 253.540697 245.410909 
L 253.70473 245.520727 
L 256.98538 245.520727 
L 260.101997 247.607273 
L 260.26603 247.717091 
L 263.54668 247.717091 
L 266.663298 249.803636 
z
" clip-path="url(#p7df5ec4af9)" style="fill: #c80000; fill-opacity: 0.5"/>
   </g>
   <g id="matplotlib.axis_1">
    <g id="xtick_1">
     <g id="line2d_1">
      <defs>
       <path id="m1b95d4c453" d="M 0 0 
L 0 3.5 
" style="stroke: #000000; stroke-width: 0.8"/>
      </defs>
      <g>
       <use xlink:href="#m1b95d4c453" x="63.427023" y="252" style="stroke: #000000; stroke-width: 0.8"/>
      </g>
     </g>
     <g id="text_1">
      <!-- 16 -->
      <g transform="translate(52.874679 266.598437)scale(0.1 -0.1)">
       <defs>
        <path id="DejaVuSans-2212" d="M 678 2272 
L 4684 2272 
L 4684 1741 
L 678 1741 
L 678 2272 
z
" transform="scale(0.015625)"/>
        <path id="DejaVuSans-31" d="M 794 531 
L 1825 531 
L 1825 4091 
L 703 3866 
L 703 4441 
L 1819 4666 
L 2450 4666 
L 2450 531 
L 3481 531 
L 3481 0 
L 794 0 
L 794 531 
z
" transform="scale(0.015625)"/>
        <path id="DejaVuSans-36" d="M 2113 2584 
Q 1688 2584 1439 2293 
Q 1191 2003 1191 1497 
Q 1191 994 1439 701 
Q 1688 409 2113 409 
Q 2538 409 2786 701 
Q 3034 994 3034 1497 
Q 3034 2003 2786 2293 
Q 2538 2584 2113 2584 
z
M 3366 4563 
L 3366 3988 
Q 3128 4100 2886 4159 
Q 2644 4219 2406 4219 
Q 1781 4219 1451 3797 
Q 1122 3375 1075 2522 
Q 1259 2794 1537 2939 
Q 1816 3084 2150 3084 
Q 2853 3084 3261 2657 
Q 3669 2231 3669 1497 
Q 3669 778 3244 343 
Q 2819 -91 2113 -91 
Q 1303 -91 875 529 
Q 447 1150 447 2328 
Q 447 3434 972 4092 
Q 1497 4750 2381 4750 
Q 2619 4750 2861 4703 
Q 3103 4656 3366 4563 
z
" transform="scale(0.015625)"/>
       </defs>
       <use xlink:href="#DejaVuSans-2212"/>
       <use xlink:href="#DejaVuSans-31" x="83.789062"/>
       <use xlink:href="#DejaVuSans-36" x="147.412109"/>
      </g>
     </g>
    </g>
    <g id="xtick_2">
     <g id="line2d_2">
      <g>
       <use xlink:href="#m1b95d4c453" x="106.731605" y="252" style="stroke: #000000; stroke-width: 0.8"/>
      </g>
     </g>
     <g id="text_2">
      <!-- 14 -->
      <g transform="translate(96.179261 266.598437)scale(0.1 -0.1)">
       <defs>
        <path id="DejaVuSans-34" d="M 2419 4116 
L 825 1625 
L 2419 1625 
L 2419 4116 
z
M 2253 4666 
L 3047 4666 
L 3047 1625 
L 3713 1625 
L 3713 1100 
L 3047 1100 
L 3047 0 
L 2419 0 
L 2419 1100 
L 313 1100 
L 313 1709 
L 2253 4666 
z
" transform="scale(0.015625)"/>
       </defs>
       <use xlink:href="#DejaVuSans-2212"/>
       <use xlink:href="#DejaVuSans-31" x="83.789062"/>
       <use xlink:href="#DejaVuSans-34" x="147.412109"/>
      </g>
     </g>
    </g>
    <g id="xtick_3">
     <g id="line2d_3">
      <g>
       <use xlink:href="#m1b95d4c453" x="150.036186" y="252" style="stroke: #000000; stroke-width: 0.8"/>
      </g>
     </g>
     <g id="text_3">
      <!-- 12 -->
      <g transform="translate(139.483842 266.598437)scale(0.1 -0.1)">
       <defs>
        <path id="DejaVuSans-32" d="M 1228 531 
L 3431 531 
L 3431 0 
L 469 0 
L 469 531 
Q 828 903 1448 1529 
Q 2069 2156 2228 2338 
Q 2531 2678 2651 2914 
Q 2772 3150 2772 3378 
Q 2772 3750 2511 3984 
Q 2250 4219 1831 4219 
Q 1534 4219 1204 4116 
Q 875 4013 500 3803 
L 500 4441 
Q 881 4594 1212 4672 
Q 1544 4750 1819 4750 
Q 2544 4750 2975 4387 
Q 3406 4025 3406 3419 
Q 3406 3131 3298 2873 
Q 3191 2616 2906 2266 
Q 2828 2175 2409 1742 
Q 1991 1309 1228 531 
z
" transform="scale(0.015625)"/>
       </defs>
       <use xlink:href="#DejaVuSans-2212"/>
       <use xlink:href="#DejaVuSans-31" x="83.789062"/>
       <use xlink:href="#DejaVuSans-32" x="147.412109"/>
      </g>
     </g>
    </g>
    <g id="xtick_4">
     <g id="line2d_4">
      <g>
       <use xlink:href="#m1b95d4c453" x="193.340768" y="252" style="stroke: #000000; stroke-width: 0.8"/>
      </g>
     </g>
     <g id="text_4">
      <!-- 10 -->
      <g transform="translate(182.788424 266.598437)scale(0.1 -0.1)">
       <defs>
        <path id="DejaVuSans-30" d="M 2034 4250 
Q 1547 4250 1301 3770 
Q 1056 3291 1056 2328 
Q 1056 1369 1301 889 
Q 1547 409 2034 409 
Q 2525 409 2770 889 
Q 3016 1369 3016 2328 
Q 3016 3291 2770 3770 
Q 2525 4250 2034 4250 
z
M 2034 4750 
Q 2819 4750 3233 4129 
Q 3647 3509 3647 2328 
Q 3647 1150 3233 529 
Q 2819 -91 2034 -91 
Q 1250 -91 836 529 
Q 422 1150 422 2328 
Q 422 3509 836 4129 
Q 1250 4750 2034 4750 
z
" transform="scale(0.015625)"/>
       </defs>
       <use xlink:href="#DejaVuSans-2212"/>
       <use xlink:href="#DejaVuSans-31" x="83.789062"/>
       <use xlink:href="#DejaVuSans-30" x="147.412109"/>
      </g>
     </g>
    </g>
    <g id="xtick_5">
     <g id="line2d_5">
      <g>
       <use xlink:href="#m1b95d4c453" x="236.645349" y="252" style="stroke: #000000; stroke-width: 0.8"/>
      </g>
     </g>
     <g id="text_5">
      <!-- 8 -->
      <g transform="translate(229.274255 266.598437)scale(0.1 -0.1)">
       <defs>
        <path id="DejaVuSans-38" d="M 2034 2216 
Q 1584 2216 1326 1975 
Q 1069 1734 1069 1313 
Q 1069 891 1326 650 
Q 1584 409 2034 409 
Q 2484 409 2743 651 
Q 3003 894 3003 1313 
Q 3003 1734 2745 1975 
Q 2488 2216 2034 2216 
z
M 1403 2484 
Q 997 2584 770 2862 
Q 544 3141 544 3541 
Q 544 4100 942 4425 
Q 1341 4750 2034 4750 
Q 2731 4750 3128 4425 
Q 3525 4100 3525 3541 
Q 3525 3141 3298 2862 
Q 3072 2584 2669 2484 
Q 3125 2378 3379 2068 
Q 3634 1759 3634 1313 
Q 3634 634 3220 271 
Q 2806 -91 2034 -91 
Q 1263 -91 848 271 
Q 434 634 434 1313 
Q 434 1759 690 2068 
Q 947 2378 1403 2484 
z
M 1172 3481 
Q 1172 3119 1398 2916 
Q 1625 2713 2034 2713 
Q 2441 2713 2670 2916 
Q 2900 3119 2900 3481 
Q 2900 3844 2670 4047 
Q 2441 4250 2034 4250 
Q 1625 4250 1398 4047 
Q 1172 3844 1172 3481 
z
" transform="scale(0.015625)"/>
       </defs>
       <use xlink:href="#DejaVuSans-2212"/>
       <use xlink:href="#DejaVuSans-38" x="83.789062"/>
      </g>
     </g>
    </g>
    <g id="xtick_6">
     <g id="line2d_6">
      <g>
       <use xlink:href="#m1b95d4c453" x="279.949931" y="252" style="stroke: #000000; stroke-width: 0.8"/>
      </g>
     </g>
     <g id="text_6">
      <!-- 6 -->
      <g transform="translate(272.578837 266.598437)scale(0.1 -0.1)">
       <use xlink:href="#DejaVuSans-2212"/>
       <use xlink:href="#DejaVuSans-36" x="83.789062"/>
      </g>
     </g>
    </g>
    <g id="xtick_7">
     <g id="line2d_7">
      <g>
       <use xlink:href="#m1b95d4c453" x="323.254512" y="252" style="stroke: #000000; stroke-width: 0.8"/>
      </g>
     </g>
     <g id="text_7">
      <!-- 4 -->
      <g transform="translate(315.883418 266.598437)scale(0.1 -0.1)">
       <use xlink:href="#DejaVuSans-2212"/>
       <use xlink:href="#DejaVuSans-34" x="83.789062"/>
      </g>
     </g>
    </g>
    <g id="xtick_8">
     <g id="line2d_8">
      <g>
       <use xlink:href="#m1b95d4c453" x="366.559094" y="252" style="stroke: #000000; stroke-width: 0.8"/>
      </g>
     </g>
     <g id="text_8">
      <!-- 2 -->
      <g transform="translate(359.188 266.598437)scale(0.1 -0.1)">
       <use xlink:href="#DejaVuSans-2212"/>
       <use xlink:href="#DejaVuSans-32" x="83.789062"/>
      </g>
     </g>
    </g>
    <g id="text_9">
     <!-- X-axis -->
     <g transform="translate(206.403906 280.276563)scale(0.1 -0.1)">
      <defs>
       <path id="DejaVuSans-58" d="M 403 4666 
L 1081 4666 
L 2241 2931 
L 3406 4666 
L 4084 4666 
L 2584 2425 
L 4184 0 
L 3506 0 
L 2194 1984 
L 872 0 
L 191 0 
L 1856 2491 
L 403 4666 
z
" transform="scale(0.015625)"/>
       <path id="DejaVuSans-2d" d="M 313 2009 
L 1997 2009 
L 1997 1497 
L 313 1497 
L 313 2009 
z
" transform="scale(0.015625)"/>
       <path id="DejaVuSans-61" d="M 2194 1759 
Q 1497 1759 1228 1600 
Q 959 1441 959 1056 
Q 959 750 1161 570 
Q 1363 391 1709 391 
Q 2188 391 2477 730 
Q 2766 1069 2766 1631 
L 2766 1759 
L 2194 1759 
z
M 3341 1997 
L 3341 0 
L 2766 0 
L 2766 531 
Q 2569 213 2275 61 
Q 1981 -91 1556 -91 
Q 1019 -91 701 211 
Q 384 513 384 1019 
Q 384 1609 779 1909 
Q 1175 2209 1959 2209 
L 2766 2209 
L 2766 2266 
Q 2766 2663 2505 2880 
Q 2244 3097 1772 3097 
Q 1472 3097 1187 3025 
Q 903 2953 641 2809 
L 641 3341 
Q 956 3463 1253 3523 
Q 1550 3584 1831 3584 
Q 2591 3584 2966 3190 
Q 3341 2797 3341 1997 
z
" transform="scale(0.015625)"/>
       <path id="DejaVuSans-78" d="M 3513 3500 
L 2247 1797 
L 3578 0 
L 2900 0 
L 1881 1375 
L 863 0 
L 184 0 
L 1544 1831 
L 300 3500 
L 978 3500 
L 1906 2253 
L 2834 3500 
L 3513 3500 
z
" transform="scale(0.015625)"/>
       <path id="DejaVuSans-69" d="M 603 3500 
L 1178 3500 
L 1178 0 
L 603 0 
L 603 3500 
z
M 603 4863 
L 1178 4863 
L 1178 4134 
L 603 4134 
L 603 4863 
z
" transform="scale(0.015625)"/>
       <path id="DejaVuSans-73" d="M 2834 3397 
L 2834 2853 
Q 2591 2978 2328 3040 
Q 2066 3103 1784 3103 
Q 1356 3103 1142 2972 
Q 928 2841 928 2578 
Q 928 2378 1081 2264 
Q 1234 2150 1697 2047 
L 1894 2003 
Q 2506 1872 2764 1633 
Q 3022 1394 3022 966 
Q 3022 478 2636 193 
Q 2250 -91 1575 -91 
Q 1294 -91 989 -36 
Q 684 19 347 128 
L 347 722 
Q 666 556 975 473 
Q 1284 391 1588 391 
Q 1994 391 2212 530 
Q 2431 669 2431 922 
Q 2431 1156 2273 1281 
Q 2116 1406 1581 1522 
L 1381 1569 
Q 847 1681 609 1914 
Q 372 2147 372 2553 
Q 372 3047 722 3315 
Q 1072 3584 1716 3584 
Q 2034 3584 2315 3537 
Q 2597 3491 2834 3397 
z
" transform="scale(0.015625)"/>
      </defs>
      <use xlink:href="#DejaVuSans-58"/>
      <use xlink:href="#DejaVuSans-2d" x="63.505859"/>
      <use xlink:href="#DejaVuSans-61" x="99.589844"/>
      <use xlink:href="#DejaVuSans-78" x="160.869141"/>
      <use xlink:href="#DejaVuSans-69" x="220.048828"/>
      <use xlink:href="#DejaVuSans-73" x="247.832031"/>
     </g>
    </g>
   </g>
   <g id="matplotlib.axis_2">
    <g id="ytick_1">
     <g id="line2d_9">
      <defs>
       <path id="m95f522d9fb" d="M 0 0 
L -3.5 0 
" style="stroke: #000000; stroke-width: 0.8"/>
      </defs>
      <g>
       <use xlink:href="#m95f522d9fb" x="54" y="252" style="stroke: #000000; stroke-width: 0.8"/>
      </g>
     </g>
     <g id="text_10">
      <!-- 10 -->
      <g transform="translate(25.895312 255.799219)scale(0.1 -0.1)">
       <use xlink:href="#DejaVuSans-2212"/>
       <use xlink:href="#DejaVuSans-31" x="83.789062"/>
       <use xlink:href="#DejaVuSans-30" x="147.412109"/>
      </g>
     </g>
    </g>
    <g id="ytick_2">
     <g id="line2d_10">
      <g>
       <use xlink:href="#m95f522d9fb" x="54" y="224.82" style="stroke: #000000; stroke-width: 0.8"/>
      </g>
     </g>
     <g id="text_11">
      <!-- 8 -->
      <g transform="translate(32.257812 228.619219)scale(0.1 -0.1)">
       <use xlink:href="#DejaVuSans-2212"/>
       <use xlink:href="#DejaVuSans-38" x="83.789062"/>
      </g>
     </g>
    </g>
    <g id="ytick_3">
     <g id="line2d_11">
      <g>
       <use xlink:href="#m95f522d9fb" x="54" y="197.64" style="stroke: #000000; stroke-width: 0.8"/>
      </g>
     </g>
     <g id="text_12">
      <!-- 6 -->
      <g transform="translate(32.257812 201.439219)scale(0.1 -0.1)">
       <use xlink:href="#DejaVuSans-2212"/>
       <use xlink:href="#DejaVuSans-36" x="83.789062"/>
      </g>
     </g>
    </g>
    <g id="ytick_4">
     <g id="line2d_12">
      <g>
       <use xlink:href="#m95f522d9fb" x="54" y="170.46" style="stroke: #000000; stroke-width: 0.8"/>
      </g>
     </g>
     <g id="text_13">
      <!-- 4 -->
      <g transform="translate(32.257812 174.259219)scale(0.1 -0.1)">
       <use xlink:href="#DejaVuSans-2212"/>
       <use xlink:href="#DejaVuSans-34" x="83.789062"/>
      </g>
     </g>
    </g>
    <g id="ytick_5">
     <g id="line2d_13">
      <g>
       <use xlink:href="#m95f522d9fb" x="54" y="143.28" style="stroke: #000000; stroke-width: 0.8"/>
      </g>
     </g>
     <g id="text_14">
      <!-- 2 -->
      <g transform="translate(32.257812 147.079219)scale(0.1 -0.1)">
       <use xlink:href="#DejaVuSans-2212"/>
       <use xlink:href="#DejaVuSans-32" x="83.789062"/>
      </g>
     </g>
    </g>
    <g id="ytick_6">
     <g id="line2d_14">
      <g>
       <use xlink:href="#m95f522d9fb" x="54" y="116.1" style="stroke: #000000; stroke-width: 0.8"/>
      </g>
     </g>
     <g id="text_15">
      <!-- 0 -->
      <g transform="translate(40.6375 119.899219)scale(0.1 -0.1)">
       <use xlink:href="#DejaVuSans-30"/>
      </g>
     </g>
    </g>
    <g id="ytick_7">
     <g id="line2d_15">
      <g>
       <use xlink:href="#m95f522d9fb" x="54" y="88.92" style="stroke: #000000; stroke-width: 0.8"/>
      </g>
     </g>
     <g id="text_16">
      <!-- 2 -->
      <g transform="translate(40.6375 92.719219)scale(0.1 -0.1)">
       <use xlink:href="#DejaVuSans-32"/>
      </g>
     </g>
    </g>
    <g id="ytick_8">
     <g id="line2d_16">
      <g>
       <use xlink:href="#m95f522d9fb" x="54" y="61.74" style="stroke: #000000; stroke-width: 0.8"/>
      </g>
     </g>
     <g id="text_17">
      <!-- 4 -->
      <g transform="translate(40.6375 65.539219)scale(0.1 -0.1)">
       <use xlink:href="#DejaVuSans-34"/>
      </g>
     </g>
    </g>
    <g id="ytick_9">
     <g id="line2d_17">
      <g>
       <use xlink:href="#m95f522d9fb" x="54" y="34.56" style="stroke: #000000; stroke-width: 0.8"/>
      </g>
     </g>
     <g id="text_18">
      <!-- 6 -->
      <g transform="translate(40.6375 38.359219)scale(0.1 -0.1)">
       <use xlink:href="#DejaVuSans-36"/>
      </g>
     </g>
    </g>
    <g id="text_19">
     <!-- Y-axix -->
     <g transform="translate(19.815625 157.915938)rotate(-90)scale(0.1 -0.1)">
      <defs>
       <path id="DejaVuSans-59" d="M -13 4666 
L 666 4666 
L 1959 2747 
L 3244 4666 
L 3922 4666 
L 2272 2222 
L 2272 0 
L 1638 0 
L 1638 2222 
L -13 4666 
z
" transform="scale(0.015625)"/>
      </defs>
      <use xlink:href="#DejaVuSans-59"/>
      <use xlink:href="#DejaVuSans-2d" x="49.208984"/>
      <use xlink:href="#DejaVuSans-61" x="85.292969"/>
      <use xlink:href="#DejaVuSans-78" x="146.572266"/>
      <use xlink:href="#DejaVuSans-69" x="205.751953"/>
      <use xlink:href="#DejaVuSans-78" x="233.535156"/>
     </g>
    </g>
   </g>
   <g id="PathCollection_15">
    <path d="M 183.913744 140.787838 
" clip-path="url(#p7df5ec4af9)" style="fill: none; stroke: #000004; stroke-width: 1.5"/>
    <path d="M 183.913744 59.247838 
" clip-path="url(#p7df5ec4af9)" style="fill: none; stroke: #000004; stroke-width: 1.5"/>
   </g>
   <g id="PathCollection_16">
    <path d="M 144.3804 185.437624 
" clip-path="url(#p7df5ec4af9)" style="fill: none; stroke: #000004; stroke-width: 1.5"/>
    <path d="M 274.294144 185.437624 
" clip-path="url(#p7df5ec4af9)" style="fill: none; stroke: #000004; stroke-width: 1.5"/>
    <path d="M 144.3804 103.897624 
" clip-path="url(#p7df5ec4af9)" style="fill: none; stroke: #000004; stroke-width: 1.5"/>
    <path d="M 274.294144 103.897624 
" clip-path="url(#p7df5ec4af9)" style="fill: none; stroke: #000004; stroke-width: 1.5"/>
   </g>
   <g id="PathCollection_17">
    <path d="M 76.662091 213.345946 
" clip-path="url(#p7df5ec4af9)" style="fill: none; stroke: #000004; stroke-width: 1.5"/>
    <path d="M 206.575836 213.345946 
" clip-path="url(#p7df5ec4af9)" style="fill: none; stroke: #000004; stroke-width: 1.5"/>
    <path d="M 76.662091 131.805946 
" clip-path="url(#p7df5ec4af9)" style="fill: none; stroke: #000004; stroke-width: 1.5"/>
    <path d="M 206.575836 131.805946 
" clip-path="url(#p7df5ec4af9)" style="fill: none; stroke: #000004; stroke-width: 1.5"/>
   </g>
   <g id="PathCollection_18">
    <path d="M 209.944466 248.02524 
" clip-path="url(#p7df5ec4af9)" style="fill: none; stroke: #000004; stroke-width: 1.5"/>
   </g>
   <g id="PathCollection_19">
    <path d="M 327.182489 157.847706 
" clip-path="url(#p7df5ec4af9)" style="fill: none; stroke: #000004; stroke-width: 1.5"/>
    <path d="M 327.182489 76.307706 
" clip-path="url(#p7df5ec4af9)" style="fill: none; stroke: #000004; stroke-width: 1.5"/>
   </g>
   <g id="PathCollection_20">
    <path d="M 258.886256 206.9257 
" clip-path="url(#p7df5ec4af9)" style="fill: none; stroke: #000004; stroke-width: 1.5"/>
    <path d="M 388.8 206.9257 
" clip-path="url(#p7df5ec4af9)" style="fill: none; stroke: #000004; stroke-width: 1.5"/>
   </g>
   <g id="patch_3">
    <path d="M 54 252 
L 54 34.56 
" style="fill: none; stroke: #000000; stroke-width: 0.8; stroke-linejoin: miter; stroke-linecap: square"/>
   </g>
   <g id="patch_4">
    <path d="M 388.8 252 
L 388.8 34.56 
" style="fill: none; stroke: #000000; stroke-width: 0.8; stroke-linejoin: miter; stroke-linecap: square"/>
   </g>
   <g id="patch_5">
    <path d="M 54 252 
L 388.8 252 
" style="fill: none; stroke: #000000; stroke-width: 0.8; stroke-linejoin: miter; stroke-linecap: square"/>
   </g>
   <g id="patch_6">
    <path d="M 54 34.56 
L 388.8 34.56 
" style="fill: none; stroke: #000000; stroke-width: 0.8; stroke-linejoin: miter; stroke-linecap: square"/>
   </g>
   <g id="text_20">
    <!-- Decision and Contour plot for K = 3 -->
    <g transform="translate(114.734063 28.56)scale(0.12 -0.12)">
     <defs>
      <path id="DejaVuSans-44" d="M 1259 4147 
L 1259 519 
L 2022 519 
Q 2988 519 3436 956 
Q 3884 1394 3884 2338 
Q 3884 3275 3436 3711 
Q 2988 4147 2022 4147 
L 1259 4147 
z
M 628 4666 
L 1925 4666 
Q 3281 4666 3915 4102 
Q 4550 3538 4550 2338 
Q 4550 1131 3912 565 
Q 3275 0 1925 0 
L 628 0 
L 628 4666 
z
" transform="scale(0.015625)"/>
      <path id="DejaVuSans-65" d="M 3597 1894 
L 3597 1613 
L 953 1613 
Q 991 1019 1311 708 
Q 1631 397 2203 397 
Q 2534 397 2845 478 
Q 3156 559 3463 722 
L 3463 178 
Q 3153 47 2828 -22 
Q 2503 -91 2169 -91 
Q 1331 -91 842 396 
Q 353 884 353 1716 
Q 353 2575 817 3079 
Q 1281 3584 2069 3584 
Q 2775 3584 3186 3129 
Q 3597 2675 3597 1894 
z
M 3022 2063 
Q 3016 2534 2758 2815 
Q 2500 3097 2075 3097 
Q 1594 3097 1305 2825 
Q 1016 2553 972 2059 
L 3022 2063 
z
" transform="scale(0.015625)"/>
      <path id="DejaVuSans-63" d="M 3122 3366 
L 3122 2828 
Q 2878 2963 2633 3030 
Q 2388 3097 2138 3097 
Q 1578 3097 1268 2742 
Q 959 2388 959 1747 
Q 959 1106 1268 751 
Q 1578 397 2138 397 
Q 2388 397 2633 464 
Q 2878 531 3122 666 
L 3122 134 
Q 2881 22 2623 -34 
Q 2366 -91 2075 -91 
Q 1284 -91 818 406 
Q 353 903 353 1747 
Q 353 2603 823 3093 
Q 1294 3584 2113 3584 
Q 2378 3584 2631 3529 
Q 2884 3475 3122 3366 
z
" transform="scale(0.015625)"/>
      <path id="DejaVuSans-6f" d="M 1959 3097 
Q 1497 3097 1228 2736 
Q 959 2375 959 1747 
Q 959 1119 1226 758 
Q 1494 397 1959 397 
Q 2419 397 2687 759 
Q 2956 1122 2956 1747 
Q 2956 2369 2687 2733 
Q 2419 3097 1959 3097 
z
M 1959 3584 
Q 2709 3584 3137 3096 
Q 3566 2609 3566 1747 
Q 3566 888 3137 398 
Q 2709 -91 1959 -91 
Q 1206 -91 779 398 
Q 353 888 353 1747 
Q 353 2609 779 3096 
Q 1206 3584 1959 3584 
z
" transform="scale(0.015625)"/>
      <path id="DejaVuSans-6e" d="M 3513 2113 
L 3513 0 
L 2938 0 
L 2938 2094 
Q 2938 2591 2744 2837 
Q 2550 3084 2163 3084 
Q 1697 3084 1428 2787 
Q 1159 2491 1159 1978 
L 1159 0 
L 581 0 
L 581 3500 
L 1159 3500 
L 1159 2956 
Q 1366 3272 1645 3428 
Q 1925 3584 2291 3584 
Q 2894 3584 3203 3211 
Q 3513 2838 3513 2113 
z
" transform="scale(0.015625)"/>
      <path id="DejaVuSans-20" transform="scale(0.015625)"/>
      <path id="DejaVuSans-64" d="M 2906 2969 
L 2906 4863 
L 3481 4863 
L 3481 0 
L 2906 0 
L 2906 525 
Q 2725 213 2448 61 
Q 2172 -91 1784 -91 
Q 1150 -91 751 415 
Q 353 922 353 1747 
Q 353 2572 751 3078 
Q 1150 3584 1784 3584 
Q 2172 3584 2448 3432 
Q 2725 3281 2906 2969 
z
M 947 1747 
Q 947 1113 1208 752 
Q 1469 391 1925 391 
Q 2381 391 2643 752 
Q 2906 1113 2906 1747 
Q 2906 2381 2643 2742 
Q 2381 3103 1925 3103 
Q 1469 3103 1208 2742 
Q 947 2381 947 1747 
z
" transform="scale(0.015625)"/>
      <path id="DejaVuSans-43" d="M 4122 4306 
L 4122 3641 
Q 3803 3938 3442 4084 
Q 3081 4231 2675 4231 
Q 1875 4231 1450 3742 
Q 1025 3253 1025 2328 
Q 1025 1406 1450 917 
Q 1875 428 2675 428 
Q 3081 428 3442 575 
Q 3803 722 4122 1019 
L 4122 359 
Q 3791 134 3420 21 
Q 3050 -91 2638 -91 
Q 1578 -91 968 557 
Q 359 1206 359 2328 
Q 359 3453 968 4101 
Q 1578 4750 2638 4750 
Q 3056 4750 3426 4639 
Q 3797 4528 4122 4306 
z
" transform="scale(0.015625)"/>
      <path id="DejaVuSans-74" d="M 1172 4494 
L 1172 3500 
L 2356 3500 
L 2356 3053 
L 1172 3053 
L 1172 1153 
Q 1172 725 1289 603 
Q 1406 481 1766 481 
L 2356 481 
L 2356 0 
L 1766 0 
Q 1100 0 847 248 
Q 594 497 594 1153 
L 594 3053 
L 172 3053 
L 172 3500 
L 594 3500 
L 594 4494 
L 1172 4494 
z
" transform="scale(0.015625)"/>
      <path id="DejaVuSans-75" d="M 544 1381 
L 544 3500 
L 1119 3500 
L 1119 1403 
Q 1119 906 1312 657 
Q 1506 409 1894 409 
Q 2359 409 2629 706 
Q 2900 1003 2900 1516 
L 2900 3500 
L 3475 3500 
L 3475 0 
L 2900 0 
L 2900 538 
Q 2691 219 2414 64 
Q 2138 -91 1772 -91 
Q 1169 -91 856 284 
Q 544 659 544 1381 
z
M 1991 3584 
L 1991 3584 
z
" transform="scale(0.015625)"/>
      <path id="DejaVuSans-72" d="M 2631 2963 
Q 2534 3019 2420 3045 
Q 2306 3072 2169 3072 
Q 1681 3072 1420 2755 
Q 1159 2438 1159 1844 
L 1159 0 
L 581 0 
L 581 3500 
L 1159 3500 
L 1159 2956 
Q 1341 3275 1631 3429 
Q 1922 3584 2338 3584 
Q 2397 3584 2469 3576 
Q 2541 3569 2628 3553 
L 2631 2963 
z
" transform="scale(0.015625)"/>
      <path id="DejaVuSans-70" d="M 1159 525 
L 1159 -1331 
L 581 -1331 
L 581 3500 
L 1159 3500 
L 1159 2969 
Q 1341 3281 1617 3432 
Q 1894 3584 2278 3584 
Q 2916 3584 3314 3078 
Q 3713 2572 3713 1747 
Q 3713 922 3314 415 
Q 2916 -91 2278 -91 
Q 1894 -91 1617 61 
Q 1341 213 1159 525 
z
M 3116 1747 
Q 3116 2381 2855 2742 
Q 2594 3103 2138 3103 
Q 1681 3103 1420 2742 
Q 1159 2381 1159 1747 
Q 1159 1113 1420 752 
Q 1681 391 2138 391 
Q 2594 391 2855 752 
Q 3116 1113 3116 1747 
z
" transform="scale(0.015625)"/>
      <path id="DejaVuSans-6c" d="M 603 4863 
L 1178 4863 
L 1178 0 
L 603 0 
L 603 4863 
z
" transform="scale(0.015625)"/>
      <path id="DejaVuSans-66" d="M 2375 4863 
L 2375 4384 
L 1825 4384 
Q 1516 4384 1395 4259 
Q 1275 4134 1275 3809 
L 1275 3500 
L 2222 3500 
L 2222 3053 
L 1275 3053 
L 1275 0 
L 697 0 
L 697 3053 
L 147 3053 
L 147 3500 
L 697 3500 
L 697 3744 
Q 697 4328 969 4595 
Q 1241 4863 1831 4863 
L 2375 4863 
z
" transform="scale(0.015625)"/>
      <path id="DejaVuSans-4b" d="M 628 4666 
L 1259 4666 
L 1259 2694 
L 3353 4666 
L 4166 4666 
L 1850 2491 
L 4331 0 
L 3500 0 
L 1259 2247 
L 1259 0 
L 628 0 
L 628 4666 
z
" transform="scale(0.015625)"/>
      <path id="DejaVuSans-3d" d="M 678 2906 
L 4684 2906 
L 4684 2381 
L 678 2381 
L 678 2906 
z
M 678 1631 
L 4684 1631 
L 4684 1100 
L 678 1100 
L 678 1631 
z
" transform="scale(0.015625)"/>
      <path id="DejaVuSans-33" d="M 2597 2516 
Q 3050 2419 3304 2112 
Q 3559 1806 3559 1356 
Q 3559 666 3084 287 
Q 2609 -91 1734 -91 
Q 1441 -91 1130 -33 
Q 819 25 488 141 
L 488 750 
Q 750 597 1062 519 
Q 1375 441 1716 441 
Q 2309 441 2620 675 
Q 2931 909 2931 1356 
Q 2931 1769 2642 2001 
Q 2353 2234 1838 2234 
L 1294 2234 
L 1294 2753 
L 1863 2753 
Q 2328 2753 2575 2939 
Q 2822 3125 2822 3475 
Q 2822 3834 2567 4026 
Q 2313 4219 1838 4219 
Q 1578 4219 1281 4162 
Q 984 4106 628 3988 
L 628 4550 
Q 988 4650 1302 4700 
Q 1616 4750 1894 4750 
Q 2613 4750 3031 4423 
Q 3450 4097 3450 3541 
Q 3450 3153 3228 2886 
Q 3006 2619 2597 2516 
z
" transform="scale(0.015625)"/>
     </defs>
     <use xlink:href="#DejaVuSans-44"/>
     <use xlink:href="#DejaVuSans-65" x="77.001953"/>
     <use xlink:href="#DejaVuSans-63" x="138.525391"/>
     <use xlink:href="#DejaVuSans-69" x="193.505859"/>
     <use xlink:href="#DejaVuSans-73" x="221.289062"/>
     <use xlink:href="#DejaVuSans-69" x="273.388672"/>
     <use xlink:href="#DejaVuSans-6f" x="301.171875"/>
     <use xlink:href="#DejaVuSans-6e" x="362.353516"/>
     <use xlink:href="#DejaVuSans-20" x="425.732422"/>
     <use xlink:href="#DejaVuSans-61" x="457.519531"/>
     <use xlink:href="#DejaVuSans-6e" x="518.798828"/>
     <use xlink:href="#DejaVuSans-64" x="582.177734"/>
     <use xlink:href="#DejaVuSans-20" x="645.654297"/>
     <use xlink:href="#DejaVuSans-43" x="677.441406"/>
     <use xlink:href="#DejaVuSans-6f" x="747.265625"/>
     <use xlink:href="#DejaVuSans-6e" x="808.447266"/>
     <use xlink:href="#DejaVuSans-74" x="871.826172"/>
     <use xlink:href="#DejaVuSans-6f" x="911.035156"/>
     <use xlink:href="#DejaVuSans-75" x="972.216797"/>
     <use xlink:href="#DejaVuSans-72" x="1035.595703"/>
     <use xlink:href="#DejaVuSans-20" x="1076.708984"/>
     <use xlink:href="#DejaVuSans-70" x="1108.496094"/>
     <use xlink:href="#DejaVuSans-6c" x="1171.972656"/>
     <use xlink:href="#DejaVuSans-6f" x="1199.755859"/>
     <use xlink:href="#DejaVuSans-74" x="1260.9375"/>
     <use xlink:href="#DejaVuSans-20" x="1300.146484"/>
     <use xlink:href="#DejaVuSans-66" x="1331.933594"/>
     <use xlink:href="#DejaVuSans-6f" x="1367.138672"/>
     <use xlink:href="#DejaVuSans-72" x="1428.320312"/>
     <use xlink:href="#DejaVuSans-20" x="1469.433594"/>
     <use xlink:href="#DejaVuSans-4b" x="1501.220703"/>
     <use xlink:href="#DejaVuSans-20" x="1566.796875"/>
     <use xlink:href="#DejaVuSans-3d" x="1598.583984"/>
     <use xlink:href="#DejaVuSans-20" x="1682.373047"/>
     <use xlink:href="#DejaVuSans-33" x="1714.160156"/>
    </g>
   </g>
  </g>
 </g>
 <defs>
  <clipPath id="p7df5ec4af9">
   <rect x="54" y="34.56" width="334.8" height="217.44"/>
  </clipPath>
 </defs>
</svg>
