<?xml version="1.0" encoding="utf-8" standalone="no"?>
<!DOCTYPE svg PUBLIC "-//W3C//DTD SVG 1.1//EN"
  "http://www.w3.org/Graphics/SVG/1.1/DTD/svg11.dtd">
<svg xmlns:xlink="http://www.w3.org/1999/xlink" width="432pt" height="288pt" viewBox="0 0 432 288" xmlns="http://www.w3.org/2000/svg" version="1.1">
 <metadata>
  <rdf:RDF xmlns:dc="http://purl.org/dc/elements/1.1/" xmlns:cc="http://creativecommons.org/ns#" xmlns:rdf="http://www.w3.org/1999/02/22-rdf-syntax-ns#">
   <cc:Work>
    <dc:type rdf:resource="http://purl.org/dc/dcmitype/StillImage"/>
    <dc:date>2022-04-03T17:47:02.722582</dc:date>
    <dc:format>image/svg+xml</dc:format>
    <dc:creator>
     <cc:Agent>
      <dc:title>Matplotlib v3.5.1, https://matplotlib.org/</dc:title>
     </cc:Agent>
    </dc:creator>
   </cc:Work>
  </rdf:RDF>
 </metadata>
 <defs>
  <style type="text/css">*{stroke-linejoin: round; stroke-linecap: butt}</style>
 </defs>
 <g id="figure_1">
  <g id="patch_1">
   <path d="M 0 288 
L 432 288 
L 432 0 
L 0 0 
L 0 288 
z
" style="fill: none"/>
  </g>
  <g id="axes_1">
   <g id="patch_2">
    <path d="M 54 252 
L 388.8 252 
L 388.8 34.56 
L 54 34.56 
z
" style="fill: #ffffff"/>
   </g>
   <g id="PathCollection_1">
    <defs>
     <path id="m64885ffa66" d="M 0 3 
C 0.795609 3 1.55874 2.683901 2.12132 2.12132 
C 2.683901 1.55874 3 0.795609 3 0 
C 3 -0.795609 2.683901 -1.55874 2.12132 -2.12132 
C 1.55874 -2.683901 0.795609 -3 0 -3 
C -0.795609 -3 -1.55874 -2.683901 -2.12132 -2.12132 
C -2.683901 -1.55874 -3 -0.795609 -3 0 
C -3 0.795609 -2.683901 1.55874 -2.12132 2.12132 
C -1.55874 2.683901 -0.795609 3 0 3 
z
" style="stroke: #1f77b4"/>
    </defs>
    <g clip-path="url(#p9f0efea35b)">
     <use xlink:href="#m64885ffa66" x="119.181468" y="100.223433" style="fill: #1f77b4; stroke: #1f77b4"/>
    </g>
   </g>
   <g id="PathCollection_2">
    <defs>
     <path id="m63d1a2508d" d="M 0 3 
C 0.795609 3 1.55874 2.683901 2.12132 2.12132 
C 2.683901 1.55874 3 0.795609 3 0 
C 3 -0.795609 2.683901 -1.55874 2.12132 -2.12132 
C 1.55874 -2.683901 0.795609 -3 0 -3 
C -0.795609 -3 -1.55874 -2.683901 -2.12132 -2.12132 
C -2.683901 -1.55874 -3 -0.795609 -3 0 
C -3 0.795609 -2.683901 1.55874 -2.12132 2.12132 
C -1.55874 2.683901 -0.795609 3 0 3 
z
" style="stroke: #ff7f0e"/>
    </defs>
    <g clip-path="url(#p9f0efea35b)">
     <use xlink:href="#m63d1a2508d" x="169.913035" y="161.202873" style="fill: #ff7f0e; stroke: #ff7f0e"/>
    </g>
   </g>
   <g id="PathCollection_3">
    <defs>
     <path id="md9b8cb0d71" d="M 0 3 
C 0.795609 3 1.55874 2.683901 2.12132 2.12132 
C 2.683901 1.55874 3 0.795609 3 0 
C 3 -0.795609 2.683901 -1.55874 2.12132 -2.12132 
C 1.55874 -2.683901 0.795609 -3 0 -3 
C -0.795609 -3 -1.55874 -2.683901 -2.12132 -2.12132 
C -2.683901 -1.55874 -3 -0.795609 -3 0 
C -3 0.795609 -2.683901 1.55874 -2.12132 2.12132 
C -1.55874 2.683901 -0.795609 3 0 3 
z
" style="stroke: #2ca02c"/>
    </defs>
    <g clip-path="url(#p9f0efea35b)">
     <use xlink:href="#md9b8cb0d71" x="311.980802" y="174.009632" style="fill: #2ca02c; stroke: #2ca02c"/>
    </g>
   </g>
   <g id="PathCollection_4">
    <defs>
     <path id="m6ec9fe257b" d="M 0 3 
C 0.795609 3 1.55874 2.683901 2.12132 2.12132 
C 2.683901 1.55874 3 0.795609 3 0 
C 3 -0.795609 2.683901 -1.55874 2.12132 -2.12132 
C 1.55874 -2.683901 0.795609 -3 0 -3 
C -0.795609 -3 -1.55874 -2.683901 -2.12132 -2.12132 
C -2.683901 -1.55874 -3 -0.795609 -3 0 
C -3 0.795609 -2.683901 1.55874 -2.12132 2.12132 
C -1.55874 2.683901 -0.795609 3 0 3 
z
" style="stroke: #d62728"/>
    </defs>
    <g clip-path="url(#p9f0efea35b)">
     <use xlink:href="#m6ec9fe257b" x="262.449645" y="115.986174" style="fill: #d62728; stroke: #d62728"/>
    </g>
   </g>
   <g id="PathCollection_5">
    <path d="M 66.184653 252 
L 69.476646 252 
L 72.768639 252 
L 76.060633 252 
L 79.352626 252 
L 82.644619 252 
L 85.936613 252 
L 89.228606 252 
L 92.520599 252 
L 95.812593 252 
L 99.104586 252 
L 102.396579 252 
L 105.688573 252 
L 108.980566 252 
L 112.272559 252 
L 115.564553 252 
L 118.856546 252 
L 122.148539 252 
L 125.440533 252 
L 128.732526 252 
L 132.024519 252 
L 135.316513 252 
L 138.608506 252 
L 141.900499 252 
L 145.192493 252 
L 148.484486 252 
L 151.776479 252 
L 155.068473 252 
L 158.360466 252 
L 161.652459 252 
L 164.944453 252 
L 168.236446 252 
L 171.528439 252 
L 174.820433 252 
L 178.112426 252 
L 181.404419 252 
L 184.696413 252 
L 187.988406 252 
L 191.280399 252 
L 194.572393 252 
L 197.864386 252 
L 201.15638 252 
L 204.448373 252 
L 207.740366 252 
L 211.03236 252 
L 214.324353 252 
L 217.616346 252 
L 220.90834 252 
L 224.200333 252 
L 227.492326 252 
L 230.78432 252 
L 234.076313 252 
L 237.368306 252 
L 240.6603 252 
L 243.952293 252 
L 247.244286 252 
L 250.53628 252 
L 253.828273 252 
L 253.992873 252 
L 253.992873 249.803636 
L 253.828273 249.693818 
L 250.700879 247.607273 
L 250.700879 245.410909 
L 250.700879 243.214545 
L 250.700879 241.018182 
L 250.53628 240.908364 
L 247.408886 238.821818 
L 247.408886 236.625455 
L 247.408886 234.429091 
L 247.408886 232.232727 
L 247.408886 230.036364 
L 247.244286 229.926545 
L 244.116893 227.84 
L 244.116893 225.643636 
L 244.116893 223.447273 
L 244.116893 221.250909 
L 244.116893 219.054545 
L 244.116893 216.858182 
L 244.116893 214.661818 
L 244.116893 212.465455 
L 244.116893 210.269091 
L 244.116893 208.072727 
L 244.116893 205.876364 
L 244.116893 203.68 
L 243.952293 203.570182 
L 240.824899 201.483636 
L 240.824899 199.287273 
L 240.824899 197.090909 
L 240.824899 194.894545 
L 240.824899 192.698182 
L 240.824899 190.501818 
L 240.824899 188.305455 
L 240.824899 186.109091 
L 240.824899 183.912727 
L 240.824899 181.716364 
L 240.824899 179.52 
L 240.824899 177.323636 
L 240.824899 175.127273 
L 240.824899 172.930909 
L 240.824899 170.734545 
L 240.824899 168.538182 
L 240.824899 166.341818 
L 240.824899 164.145455 
L 240.6603 164.035636 
L 237.532906 161.949091 
L 237.532906 159.752727 
L 237.532906 157.556364 
L 237.368306 157.446545 
L 234.240913 155.36 
L 234.076313 155.250182 
L 230.948919 153.163636 
L 230.948919 150.967273 
L 230.78432 150.857455 
L 227.656926 148.770909 
L 227.492326 148.661091 
L 224.364933 146.574545 
L 224.200333 146.464727 
L 221.072939 144.378182 
L 220.90834 144.268364 
L 217.780946 142.181818 
L 217.616346 142.072 
L 214.488953 139.985455 
L 214.488953 137.789091 
L 214.324353 137.679273 
L 211.196959 135.592727 
L 211.03236 135.482909 
L 207.904966 133.396364 
L 207.740366 133.286545 
L 204.612973 131.2 
L 204.448373 131.090182 
L 201.320979 129.003636 
L 201.15638 128.893818 
L 198.028986 126.807273 
L 198.028986 124.610909 
L 197.864386 124.501091 
L 194.736993 122.414545 
L 194.572393 122.304727 
L 191.444999 120.218182 
L 191.444999 118.021818 
L 191.280399 117.912 
L 188.153006 115.825455 
L 188.153006 113.629091 
L 188.153006 111.432727 
L 188.153006 109.236364 
L 187.988406 109.126545 
L 184.861012 107.04 
L 184.861012 104.843636 
L 184.861012 102.647273 
L 184.861012 100.450909 
L 184.861012 98.254545 
L 184.861012 96.058182 
L 184.861012 93.861818 
L 184.861012 91.665455 
L 184.861012 89.469091 
L 187.988406 87.382545 
L 188.153006 87.272727 
L 188.153006 85.076364 
L 188.153006 82.88 
L 188.153006 80.683636 
L 188.153006 78.487273 
L 188.153006 76.290909 
L 188.153006 74.094545 
L 188.153006 71.898182 
L 188.153006 69.701818 
L 188.153006 67.505455 
L 188.153006 65.309091 
L 188.153006 63.112727 
L 188.153006 60.916364 
L 188.153006 58.72 
L 188.153006 56.523636 
L 188.153006 54.327273 
L 188.153006 52.130909 
L 187.988406 52.021091 
L 184.861012 49.934545 
L 184.861012 47.738182 
L 184.861012 45.541818 
L 184.861012 43.345455 
L 184.861012 41.149091 
L 184.861012 38.952727 
L 184.861012 36.756364 
L 184.861012 34.56 
L 184.696413 34.56 
L 181.404419 34.56 
L 178.112426 34.56 
L 174.820433 34.56 
L 171.528439 34.56 
L 168.236446 34.56 
L 164.944453 34.56 
L 161.652459 34.56 
L 158.360466 34.56 
L 155.068473 34.56 
L 151.776479 34.56 
L 148.484486 34.56 
L 145.192493 34.56 
L 141.900499 34.56 
L 138.608506 34.56 
L 135.316513 34.56 
L 132.024519 34.56 
L 128.732526 34.56 
L 125.440533 34.56 
L 122.148539 34.56 
L 118.856546 34.56 
L 115.564553 34.56 
L 112.272559 34.56 
L 108.980566 34.56 
L 105.688573 34.56 
L 102.396579 34.56 
L 99.104586 34.56 
L 95.812593 34.56 
L 92.520599 34.56 
L 89.228606 34.56 
L 85.936613 34.56 
L 82.644619 34.56 
L 79.352626 34.56 
L 76.060633 34.56 
L 72.768639 34.56 
L 69.476646 34.56 
L 66.184653 34.56 
L 62.892659 34.56 
L 62.892659 36.756364 
L 62.892659 38.952727 
L 62.892659 41.149091 
L 62.892659 43.345455 
L 62.892659 45.541818 
L 62.892659 47.738182 
L 62.892659 49.934545 
L 62.892659 52.130909 
L 62.892659 54.327273 
L 62.892659 56.523636 
L 62.892659 58.72 
L 62.892659 60.916364 
L 62.892659 63.112727 
L 62.892659 65.309091 
L 62.892659 67.505455 
L 62.892659 69.701818 
L 62.892659 71.898182 
L 62.892659 74.094545 
L 62.892659 76.290909 
L 62.892659 78.487273 
L 62.892659 80.683636 
L 62.892659 82.88 
L 62.892659 85.076364 
L 62.892659 87.272727 
L 62.892659 89.469091 
L 62.892659 91.665455 
L 62.892659 93.861818 
L 62.892659 96.058182 
L 62.892659 98.254545 
L 62.892659 100.450909 
L 62.892659 102.647273 
L 62.892659 104.843636 
L 62.892659 107.04 
L 62.892659 109.236364 
L 62.892659 111.432727 
L 62.892659 113.629091 
L 62.892659 115.825455 
L 62.892659 118.021818 
L 62.892659 120.218182 
L 62.892659 122.414545 
L 62.892659 124.610909 
L 62.892659 126.807273 
L 62.892659 129.003636 
L 62.892659 131.2 
L 62.892659 133.396364 
L 62.892659 135.592727 
L 62.892659 137.789091 
L 62.892659 139.985455 
L 62.892659 142.181818 
L 62.892659 144.378182 
L 62.892659 146.574545 
L 62.892659 148.770909 
L 62.892659 150.967273 
L 62.892659 153.163636 
L 62.892659 155.36 
L 62.892659 157.556364 
L 62.892659 159.752727 
L 62.892659 161.949091 
L 62.892659 164.145455 
L 62.892659 166.341818 
L 62.892659 168.538182 
L 62.892659 170.734545 
L 62.892659 172.930909 
L 62.892659 175.127273 
L 62.892659 177.323636 
L 62.892659 179.52 
L 62.892659 181.716364 
L 62.892659 183.912727 
L 62.892659 186.109091 
L 62.892659 188.305455 
L 62.892659 190.501818 
L 62.892659 192.698182 
L 62.892659 194.894545 
L 62.892659 197.090909 
L 62.892659 199.287273 
L 62.892659 201.483636 
L 62.892659 203.68 
L 62.892659 205.876364 
L 62.892659 208.072727 
L 62.892659 210.269091 
L 62.892659 212.465455 
L 62.892659 214.661818 
L 62.892659 216.858182 
L 62.892659 219.054545 
L 62.892659 221.250909 
L 62.892659 223.447273 
L 62.892659 225.643636 
L 62.892659 227.84 
L 62.892659 230.036364 
L 62.892659 232.232727 
L 62.892659 234.429091 
L 62.892659 236.625455 
L 62.892659 238.821818 
L 62.892659 241.018182 
L 62.892659 243.214545 
L 62.892659 245.410909 
L 62.892659 247.607273 
L 62.892659 249.803636 
L 62.892659 252 
z
" clip-path="url(#p9f0efea35b)" style="fill: #0000c8; fill-opacity: 0.5"/>
   </g>
   <g id="PathCollection_6">
    <path d="M 254.486672 249.803636 
L 253.828273 249.364364 
L 251.194678 247.607273 
L 251.194678 245.410909 
L 251.194678 243.214545 
L 251.194678 241.018182 
L 250.53628 240.578909 
L 247.902685 238.821818 
L 247.902685 236.625455 
L 247.902685 234.429091 
L 247.902685 232.232727 
L 247.902685 230.036364 
L 247.244286 229.597091 
L 244.610692 227.84 
L 244.610692 225.643636 
L 244.610692 223.447273 
L 244.610692 221.250909 
L 244.610692 219.054545 
L 244.610692 216.858182 
L 244.610692 214.661818 
L 244.610692 212.465455 
L 244.610692 210.269091 
L 244.610692 208.072727 
L 244.610692 205.876364 
L 244.610692 203.68 
L 243.952293 203.240727 
L 241.318698 201.483636 
L 241.318698 199.287273 
L 241.318698 197.090909 
L 241.318698 194.894545 
L 241.318698 192.698182 
L 241.318698 190.501818 
L 241.318698 188.305455 
L 241.318698 186.109091 
L 241.318698 183.912727 
L 241.318698 181.716364 
L 241.318698 179.52 
L 241.318698 177.323636 
L 241.318698 175.127273 
L 241.318698 172.930909 
L 241.318698 170.734545 
L 241.318698 168.538182 
L 241.318698 166.341818 
L 241.318698 164.145455 
L 240.6603 163.706182 
L 238.026705 161.949091 
L 238.026705 159.752727 
L 238.026705 157.556364 
L 237.368306 157.117091 
L 234.734712 155.36 
L 234.076313 154.920727 
L 231.442718 153.163636 
L 231.442718 150.967273 
L 230.78432 150.528 
L 228.150725 148.770909 
L 227.492326 148.331636 
L 224.858732 146.574545 
L 224.200333 146.135273 
L 221.566738 144.378182 
L 220.90834 143.938909 
L 218.274745 142.181818 
L 217.616346 141.742545 
L 214.982752 139.985455 
L 214.982752 137.789091 
L 214.324353 137.349818 
L 211.690758 135.592727 
L 211.03236 135.153455 
L 208.398765 133.396364 
L 207.740366 132.957091 
L 205.106772 131.2 
L 204.448373 130.760727 
L 201.814778 129.003636 
L 201.15638 128.564364 
L 198.522785 126.807273 
L 198.522785 124.610909 
L 197.864386 124.171636 
L 195.230792 122.414545 
L 194.572393 121.975273 
L 191.938798 120.218182 
L 191.938798 118.021818 
L 191.280399 117.582545 
L 188.646805 115.825455 
L 188.646805 113.629091 
L 188.646805 111.432727 
L 188.646805 109.236364 
L 187.988406 108.797091 
L 185.354811 107.04 
L 185.354811 104.843636 
L 185.354811 102.647273 
L 185.354811 100.450909 
L 185.354811 98.254545 
L 185.354811 96.058182 
L 185.354811 93.861818 
L 185.354811 91.665455 
L 185.354811 89.469091 
L 187.988406 87.712 
L 188.646805 87.272727 
L 188.646805 85.076364 
L 188.646805 82.88 
L 188.646805 80.683636 
L 188.646805 78.487273 
L 188.646805 76.290909 
L 188.646805 74.094545 
L 188.646805 71.898182 
L 188.646805 69.701818 
L 188.646805 67.505455 
L 188.646805 65.309091 
L 188.646805 63.112727 
L 188.646805 60.916364 
L 188.646805 58.72 
L 188.646805 56.523636 
L 188.646805 54.327273 
L 188.646805 52.130909 
L 187.988406 51.691636 
L 185.354811 49.934545 
L 185.354811 47.738182 
L 185.354811 45.541818 
L 185.354811 43.345455 
L 185.354811 41.149091 
L 185.354811 38.952727 
L 185.354811 36.756364 
L 185.354811 34.56 
L 184.861012 34.56 
L 184.861012 36.756364 
L 184.861012 38.952727 
L 184.861012 41.149091 
L 184.861012 43.345455 
L 184.861012 45.541818 
L 184.861012 47.738182 
L 184.861012 49.934545 
L 187.988406 52.021091 
L 188.153006 52.130909 
L 188.153006 54.327273 
L 188.153006 56.523636 
L 188.153006 58.72 
L 188.153006 60.916364 
L 188.153006 63.112727 
L 188.153006 65.309091 
L 188.153006 67.505455 
L 188.153006 69.701818 
L 188.153006 71.898182 
L 188.153006 74.094545 
L 188.153006 76.290909 
L 188.153006 78.487273 
L 188.153006 80.683636 
L 188.153006 82.88 
L 188.153006 85.076364 
L 188.153006 87.272727 
L 187.988406 87.382545 
L 184.861012 89.469091 
L 184.861012 91.665455 
L 184.861012 93.861818 
L 184.861012 96.058182 
L 184.861012 98.254545 
L 184.861012 100.450909 
L 184.861012 102.647273 
L 184.861012 104.843636 
L 184.861012 107.04 
L 187.988406 109.126545 
L 188.153006 109.236364 
L 188.153006 111.432727 
L 188.153006 113.629091 
L 188.153006 115.825455 
L 191.280399 117.912 
L 191.444999 118.021818 
L 191.444999 120.218182 
L 194.572393 122.304727 
L 194.736993 122.414545 
L 197.864386 124.501091 
L 198.028986 124.610909 
L 198.028986 126.807273 
L 201.15638 128.893818 
L 201.320979 129.003636 
L 204.448373 131.090182 
L 204.612973 131.2 
L 207.740366 133.286545 
L 207.904966 133.396364 
L 211.03236 135.482909 
L 211.196959 135.592727 
L 214.324353 137.679273 
L 214.488953 137.789091 
L 214.488953 139.985455 
L 217.616346 142.072 
L 217.780946 142.181818 
L 220.90834 144.268364 
L 221.072939 144.378182 
L 224.200333 146.464727 
L 224.364933 146.574545 
L 227.492326 148.661091 
L 227.656926 148.770909 
L 230.78432 150.857455 
L 230.948919 150.967273 
L 230.948919 153.163636 
L 234.076313 155.250182 
L 234.240913 155.36 
L 237.368306 157.446545 
L 237.532906 157.556364 
L 237.532906 159.752727 
L 237.532906 161.949091 
L 240.6603 164.035636 
L 240.824899 164.145455 
L 240.824899 166.341818 
L 240.824899 168.538182 
L 240.824899 170.734545 
L 240.824899 172.930909 
L 240.824899 175.127273 
L 240.824899 177.323636 
L 240.824899 179.52 
L 240.824899 181.716364 
L 240.824899 183.912727 
L 240.824899 186.109091 
L 240.824899 188.305455 
L 240.824899 190.501818 
L 240.824899 192.698182 
L 240.824899 194.894545 
L 240.824899 197.090909 
L 240.824899 199.287273 
L 240.824899 201.483636 
L 243.952293 203.570182 
L 244.116893 203.68 
L 244.116893 205.876364 
L 244.116893 208.072727 
L 244.116893 210.269091 
L 244.116893 212.465455 
L 244.116893 214.661818 
L 244.116893 216.858182 
L 244.116893 219.054545 
L 244.116893 221.250909 
L 244.116893 223.447273 
L 244.116893 225.643636 
L 244.116893 227.84 
L 247.244286 229.926545 
L 247.408886 230.036364 
L 247.408886 232.232727 
L 247.408886 234.429091 
L 247.408886 236.625455 
L 247.408886 238.821818 
L 250.53628 240.908364 
L 250.700879 241.018182 
L 250.700879 243.214545 
L 250.700879 245.410909 
L 250.700879 247.607273 
L 253.828273 249.693818 
L 253.992873 249.803636 
L 253.992873 252 
L 254.486672 252 
z
" clip-path="url(#p9f0efea35b)" style="fill: #0040ff; fill-opacity: 0.5"/>
   </g>
   <g id="PathCollection_7">
    <path d="M 254.980471 249.803636 
L 253.828273 249.034909 
L 251.688477 247.607273 
L 251.688477 245.410909 
L 251.688477 243.214545 
L 251.688477 241.018182 
L 250.53628 240.249455 
L 248.396484 238.821818 
L 248.396484 236.625455 
L 248.396484 234.429091 
L 248.396484 232.232727 
L 248.396484 230.036364 
L 247.244286 229.267636 
L 245.104491 227.84 
L 245.104491 225.643636 
L 245.104491 223.447273 
L 245.104491 221.250909 
L 245.104491 219.054545 
L 245.104491 216.858182 
L 245.104491 214.661818 
L 245.104491 212.465455 
L 245.104491 210.269091 
L 245.104491 208.072727 
L 245.104491 205.876364 
L 245.104491 203.68 
L 243.952293 202.911273 
L 241.812497 201.483636 
L 241.812497 199.287273 
L 241.812497 197.090909 
L 241.812497 194.894545 
L 241.812497 192.698182 
L 241.812497 190.501818 
L 241.812497 188.305455 
L 241.812497 186.109091 
L 241.812497 183.912727 
L 241.812497 181.716364 
L 241.812497 179.52 
L 241.812497 177.323636 
L 241.812497 175.127273 
L 241.812497 172.930909 
L 241.812497 170.734545 
L 241.812497 168.538182 
L 241.812497 166.341818 
L 241.812497 164.145455 
L 240.6603 163.376727 
L 238.520504 161.949091 
L 238.520504 159.752727 
L 238.520504 157.556364 
L 237.368306 156.787636 
L 235.228511 155.36 
L 234.076313 154.591273 
L 231.936517 153.163636 
L 231.936517 150.967273 
L 230.78432 150.198545 
L 228.644524 148.770909 
L 227.492326 148.002182 
L 225.352531 146.574545 
L 224.200333 145.805818 
L 222.060537 144.378182 
L 220.90834 143.609455 
L 218.768544 142.181818 
L 217.616346 141.413091 
L 215.476551 139.985455 
L 215.476551 137.789091 
L 214.324353 137.020364 
L 212.184557 135.592727 
L 211.03236 134.824 
L 208.892564 133.396364 
L 207.740366 132.627636 
L 205.600571 131.2 
L 204.448373 130.431273 
L 202.308577 129.003636 
L 201.15638 128.234909 
L 199.016584 126.807273 
L 199.016584 124.610909 
L 197.864386 123.842182 
L 195.724591 122.414545 
L 194.572393 121.645818 
L 192.432597 120.218182 
L 192.432597 118.021818 
L 191.280399 117.253091 
L 189.140604 115.825455 
L 189.140604 113.629091 
L 189.140604 111.432727 
L 189.140604 109.236364 
L 187.988406 108.467636 
L 185.84861 107.04 
L 185.84861 104.843636 
L 185.84861 102.647273 
L 185.84861 100.450909 
L 185.84861 98.254545 
L 185.84861 96.058182 
L 185.84861 93.861818 
L 185.84861 91.665455 
L 185.84861 89.469091 
L 187.988406 88.041455 
L 189.140604 87.272727 
L 189.140604 85.076364 
L 189.140604 82.88 
L 189.140604 80.683636 
L 189.140604 78.487273 
L 189.140604 76.290909 
L 189.140604 74.094545 
L 189.140604 71.898182 
L 189.140604 69.701818 
L 189.140604 67.505455 
L 189.140604 65.309091 
L 189.140604 63.112727 
L 189.140604 60.916364 
L 189.140604 58.72 
L 189.140604 56.523636 
L 189.140604 54.327273 
L 189.140604 52.130909 
L 187.988406 51.362182 
L 185.84861 49.934545 
L 185.84861 47.738182 
L 185.84861 45.541818 
L 185.84861 43.345455 
L 185.84861 41.149091 
L 185.84861 38.952727 
L 185.84861 36.756364 
L 185.84861 34.56 
L 185.354811 34.56 
L 185.354811 36.756364 
L 185.354811 38.952727 
L 185.354811 41.149091 
L 185.354811 43.345455 
L 185.354811 45.541818 
L 185.354811 47.738182 
L 185.354811 49.934545 
L 187.988406 51.691636 
L 188.646805 52.130909 
L 188.646805 54.327273 
L 188.646805 56.523636 
L 188.646805 58.72 
L 188.646805 60.916364 
L 188.646805 63.112727 
L 188.646805 65.309091 
L 188.646805 67.505455 
L 188.646805 69.701818 
L 188.646805 71.898182 
L 188.646805 74.094545 
L 188.646805 76.290909 
L 188.646805 78.487273 
L 188.646805 80.683636 
L 188.646805 82.88 
L 188.646805 85.076364 
L 188.646805 87.272727 
L 187.988406 87.712 
L 185.354811 89.469091 
L 185.354811 91.665455 
L 185.354811 93.861818 
L 185.354811 96.058182 
L 185.354811 98.254545 
L 185.354811 100.450909 
L 185.354811 102.647273 
L 185.354811 104.843636 
L 185.354811 107.04 
L 187.988406 108.797091 
L 188.646805 109.236364 
L 188.646805 111.432727 
L 188.646805 113.629091 
L 188.646805 115.825455 
L 191.280399 117.582545 
L 191.938798 118.021818 
L 191.938798 120.218182 
L 194.572393 121.975273 
L 195.230792 122.414545 
L 197.864386 124.171636 
L 198.522785 124.610909 
L 198.522785 126.807273 
L 201.15638 128.564364 
L 201.814778 129.003636 
L 204.448373 130.760727 
L 205.106772 131.2 
L 207.740366 132.957091 
L 208.398765 133.396364 
L 211.03236 135.153455 
L 211.690758 135.592727 
L 214.324353 137.349818 
L 214.982752 137.789091 
L 214.982752 139.985455 
L 217.616346 141.742545 
L 218.274745 142.181818 
L 220.90834 143.938909 
L 221.566738 144.378182 
L 224.200333 146.135273 
L 224.858732 146.574545 
L 227.492326 148.331636 
L 228.150725 148.770909 
L 230.78432 150.528 
L 231.442718 150.967273 
L 231.442718 153.163636 
L 234.076313 154.920727 
L 234.734712 155.36 
L 237.368306 157.117091 
L 238.026705 157.556364 
L 238.026705 159.752727 
L 238.026705 161.949091 
L 240.6603 163.706182 
L 241.318698 164.145455 
L 241.318698 166.341818 
L 241.318698 168.538182 
L 241.318698 170.734545 
L 241.318698 172.930909 
L 241.318698 175.127273 
L 241.318698 177.323636 
L 241.318698 179.52 
L 241.318698 181.716364 
L 241.318698 183.912727 
L 241.318698 186.109091 
L 241.318698 188.305455 
L 241.318698 190.501818 
L 241.318698 192.698182 
L 241.318698 194.894545 
L 241.318698 197.090909 
L 241.318698 199.287273 
L 241.318698 201.483636 
L 243.952293 203.240727 
L 244.610692 203.68 
L 244.610692 205.876364 
L 244.610692 208.072727 
L 244.610692 210.269091 
L 244.610692 212.465455 
L 244.610692 214.661818 
L 244.610692 216.858182 
L 244.610692 219.054545 
L 244.610692 221.250909 
L 244.610692 223.447273 
L 244.610692 225.643636 
L 244.610692 227.84 
L 247.244286 229.597091 
L 247.902685 230.036364 
L 247.902685 232.232727 
L 247.902685 234.429091 
L 247.902685 236.625455 
L 247.902685 238.821818 
L 250.53628 240.578909 
L 251.194678 241.018182 
L 251.194678 243.214545 
L 251.194678 245.410909 
L 251.194678 247.607273 
L 253.828273 249.364364 
L 254.486672 249.803636 
L 254.486672 252 
L 254.980471 252 
z
" clip-path="url(#p9f0efea35b)" style="fill: #00bcff; fill-opacity: 0.5"/>
   </g>
   <g id="PathCollection_8">
    <path d="M 255.47427 249.803636 
L 253.828273 248.705455 
L 252.182276 247.607273 
L 252.182276 245.410909 
L 252.182276 243.214545 
L 252.182276 241.018182 
L 250.53628 239.92 
L 248.890283 238.821818 
L 248.890283 236.625455 
L 248.890283 234.429091 
L 248.890283 232.232727 
L 248.890283 230.036364 
L 247.244286 228.938182 
L 245.59829 227.84 
L 245.59829 225.643636 
L 245.59829 223.447273 
L 245.59829 221.250909 
L 245.59829 219.054545 
L 245.59829 216.858182 
L 245.59829 214.661818 
L 245.59829 212.465455 
L 245.59829 210.269091 
L 245.59829 208.072727 
L 245.59829 205.876364 
L 245.59829 203.68 
L 243.952293 202.581818 
L 242.306296 201.483636 
L 242.306296 199.287273 
L 242.306296 197.090909 
L 242.306296 194.894545 
L 242.306296 192.698182 
L 242.306296 190.501818 
L 242.306296 188.305455 
L 242.306296 186.109091 
L 242.306296 183.912727 
L 242.306296 181.716364 
L 242.306296 179.52 
L 242.306296 177.323636 
L 242.306296 175.127273 
L 242.306296 172.930909 
L 242.306296 170.734545 
L 242.306296 168.538182 
L 242.306296 166.341818 
L 242.306296 164.145455 
L 240.6603 163.047273 
L 239.014303 161.949091 
L 239.014303 159.752727 
L 239.014303 157.556364 
L 237.368306 156.458182 
L 235.72231 155.36 
L 234.076313 154.261818 
L 232.430316 153.163636 
L 232.430316 150.967273 
L 230.78432 149.869091 
L 229.138323 148.770909 
L 227.492326 147.672727 
L 225.84633 146.574545 
L 224.200333 145.476364 
L 222.554336 144.378182 
L 220.90834 143.28 
L 219.262343 142.181818 
L 217.616346 141.083636 
L 215.97035 139.985455 
L 215.97035 137.789091 
L 214.324353 136.690909 
L 212.678356 135.592727 
L 211.03236 134.494545 
L 209.386363 133.396364 
L 207.740366 132.298182 
L 206.09437 131.2 
L 204.448373 130.101818 
L 202.802376 129.003636 
L 201.15638 127.905455 
L 199.510383 126.807273 
L 199.510383 124.610909 
L 197.864386 123.512727 
L 196.21839 122.414545 
L 194.572393 121.316364 
L 192.926396 120.218182 
L 192.926396 118.021818 
L 191.280399 116.923636 
L 189.634403 115.825455 
L 189.634403 113.629091 
L 189.634403 111.432727 
L 189.634403 109.236364 
L 187.988406 108.138182 
L 186.342409 107.04 
L 186.342409 104.843636 
L 186.342409 102.647273 
L 186.342409 100.450909 
L 186.342409 98.254545 
L 186.342409 96.058182 
L 186.342409 93.861818 
L 186.342409 91.665455 
L 186.342409 89.469091 
L 187.988406 88.370909 
L 189.634403 87.272727 
L 189.634403 85.076364 
L 189.634403 82.88 
L 189.634403 80.683636 
L 189.634403 78.487273 
L 189.634403 76.290909 
L 189.634403 74.094545 
L 189.634403 71.898182 
L 189.634403 69.701818 
L 189.634403 67.505455 
L 189.634403 65.309091 
L 189.634403 63.112727 
L 189.634403 60.916364 
L 189.634403 58.72 
L 189.634403 56.523636 
L 189.634403 54.327273 
L 189.634403 52.130909 
L 187.988406 51.032727 
L 186.342409 49.934545 
L 186.342409 47.738182 
L 186.342409 45.541818 
L 186.342409 43.345455 
L 186.342409 41.149091 
L 186.342409 38.952727 
L 186.342409 36.756364 
L 186.342409 34.56 
L 185.84861 34.56 
L 185.84861 36.756364 
L 185.84861 38.952727 
L 185.84861 41.149091 
L 185.84861 43.345455 
L 185.84861 45.541818 
L 185.84861 47.738182 
L 185.84861 49.934545 
L 187.988406 51.362182 
L 189.140604 52.130909 
L 189.140604 54.327273 
L 189.140604 56.523636 
L 189.140604 58.72 
L 189.140604 60.916364 
L 189.140604 63.112727 
L 189.140604 65.309091 
L 189.140604 67.505455 
L 189.140604 69.701818 
L 189.140604 71.898182 
L 189.140604 74.094545 
L 189.140604 76.290909 
L 189.140604 78.487273 
L 189.140604 80.683636 
L 189.140604 82.88 
L 189.140604 85.076364 
L 189.140604 87.272727 
L 187.988406 88.041455 
L 185.84861 89.469091 
L 185.84861 91.665455 
L 185.84861 93.861818 
L 185.84861 96.058182 
L 185.84861 98.254545 
L 185.84861 100.450909 
L 185.84861 102.647273 
L 185.84861 104.843636 
L 185.84861 107.04 
L 187.988406 108.467636 
L 189.140604 109.236364 
L 189.140604 111.432727 
L 189.140604 113.629091 
L 189.140604 115.825455 
L 191.280399 117.253091 
L 192.432597 118.021818 
L 192.432597 120.218182 
L 194.572393 121.645818 
L 195.724591 122.414545 
L 197.864386 123.842182 
L 199.016584 124.610909 
L 199.016584 126.807273 
L 201.15638 128.234909 
L 202.308577 129.003636 
L 204.448373 130.431273 
L 205.600571 131.2 
L 207.740366 132.627636 
L 208.892564 133.396364 
L 211.03236 134.824 
L 212.184557 135.592727 
L 214.324353 137.020364 
L 215.476551 137.789091 
L 215.476551 139.985455 
L 217.616346 141.413091 
L 218.768544 142.181818 
L 220.90834 143.609455 
L 222.060537 144.378182 
L 224.200333 145.805818 
L 225.352531 146.574545 
L 227.492326 148.002182 
L 228.644524 148.770909 
L 230.78432 150.198545 
L 231.936517 150.967273 
L 231.936517 153.163636 
L 234.076313 154.591273 
L 235.228511 155.36 
L 237.368306 156.787636 
L 238.520504 157.556364 
L 238.520504 159.752727 
L 238.520504 161.949091 
L 240.6603 163.376727 
L 241.812497 164.145455 
L 241.812497 166.341818 
L 241.812497 168.538182 
L 241.812497 170.734545 
L 241.812497 172.930909 
L 241.812497 175.127273 
L 241.812497 177.323636 
L 241.812497 179.52 
L 241.812497 181.716364 
L 241.812497 183.912727 
L 241.812497 186.109091 
L 241.812497 188.305455 
L 241.812497 190.501818 
L 241.812497 192.698182 
L 241.812497 194.894545 
L 241.812497 197.090909 
L 241.812497 199.287273 
L 241.812497 201.483636 
L 243.952293 202.911273 
L 245.104491 203.68 
L 245.104491 205.876364 
L 245.104491 208.072727 
L 245.104491 210.269091 
L 245.104491 212.465455 
L 245.104491 214.661818 
L 245.104491 216.858182 
L 245.104491 219.054545 
L 245.104491 221.250909 
L 245.104491 223.447273 
L 245.104491 225.643636 
L 245.104491 227.84 
L 247.244286 229.267636 
L 248.396484 230.036364 
L 248.396484 232.232727 
L 248.396484 234.429091 
L 248.396484 236.625455 
L 248.396484 238.821818 
L 250.53628 240.249455 
L 251.688477 241.018182 
L 251.688477 243.214545 
L 251.688477 245.410909 
L 251.688477 247.607273 
L 253.828273 249.034909 
L 254.980471 249.803636 
L 254.980471 252 
L 255.47427 252 
z
" clip-path="url(#p9f0efea35b)" style="fill: #46ffb1; fill-opacity: 0.5"/>
   </g>
   <g id="PathCollection_9">
    <path d="M 255.968069 249.803636 
L 253.828273 248.376 
L 252.676075 247.607273 
L 252.676075 245.410909 
L 252.676075 243.214545 
L 252.676075 241.018182 
L 250.53628 239.590545 
L 249.384082 238.821818 
L 249.384082 236.625455 
L 249.384082 234.429091 
L 249.384082 232.232727 
L 249.384082 230.036364 
L 247.244286 228.608727 
L 246.092089 227.84 
L 246.092089 225.643636 
L 246.092089 223.447273 
L 246.092089 221.250909 
L 246.092089 219.054545 
L 246.092089 216.858182 
L 246.092089 214.661818 
L 246.092089 212.465455 
L 246.092089 210.269091 
L 246.092089 208.072727 
L 246.092089 205.876364 
L 246.092089 203.68 
L 243.952293 202.252364 
L 242.800095 201.483636 
L 242.800095 199.287273 
L 242.800095 197.090909 
L 242.800095 194.894545 
L 242.800095 192.698182 
L 242.800095 190.501818 
L 242.800095 188.305455 
L 242.800095 186.109091 
L 242.800095 183.912727 
L 242.800095 181.716364 
L 242.800095 179.52 
L 242.800095 177.323636 
L 242.800095 175.127273 
L 242.800095 172.930909 
L 242.800095 170.734545 
L 242.800095 168.538182 
L 242.800095 166.341818 
L 242.800095 164.145455 
L 240.6603 162.717818 
L 239.508102 161.949091 
L 239.508102 159.752727 
L 239.508102 157.556364 
L 237.368306 156.128727 
L 236.216109 155.36 
L 234.076313 153.932364 
L 232.924115 153.163636 
L 232.924115 150.967273 
L 230.78432 149.539636 
L 229.632122 148.770909 
L 227.492326 147.343273 
L 226.340129 146.574545 
L 224.200333 145.146909 
L 223.048135 144.378182 
L 220.90834 142.950545 
L 219.756142 142.181818 
L 217.616346 140.754182 
L 216.464149 139.985455 
L 216.464149 137.789091 
L 214.324353 136.361455 
L 213.172155 135.592727 
L 211.03236 134.165091 
L 209.880162 133.396364 
L 207.740366 131.968727 
L 206.588169 131.2 
L 204.448373 129.772364 
L 203.296175 129.003636 
L 201.15638 127.576 
L 200.004182 126.807273 
L 200.004182 124.610909 
L 197.864386 123.183273 
L 196.712189 122.414545 
L 194.572393 120.986909 
L 193.420195 120.218182 
L 193.420195 118.021818 
L 191.280399 116.594182 
L 190.128202 115.825455 
L 190.128202 113.629091 
L 190.128202 111.432727 
L 190.128202 109.236364 
L 187.988406 107.808727 
L 186.836208 107.04 
L 186.836208 104.843636 
L 186.836208 102.647273 
L 186.836208 100.450909 
L 186.836208 98.254545 
L 186.836208 96.058182 
L 186.836208 93.861818 
L 186.836208 91.665455 
L 186.836208 89.469091 
L 187.988406 88.700364 
L 190.128202 87.272727 
L 190.128202 85.076364 
L 190.128202 82.88 
L 190.128202 80.683636 
L 190.128202 78.487273 
L 190.128202 76.290909 
L 190.128202 74.094545 
L 190.128202 71.898182 
L 190.128202 69.701818 
L 190.128202 67.505455 
L 190.128202 65.309091 
L 190.128202 63.112727 
L 190.128202 60.916364 
L 190.128202 58.72 
L 190.128202 56.523636 
L 190.128202 54.327273 
L 190.128202 52.130909 
L 187.988406 50.703273 
L 186.836208 49.934545 
L 186.836208 47.738182 
L 186.836208 45.541818 
L 186.836208 43.345455 
L 186.836208 41.149091 
L 186.836208 38.952727 
L 186.836208 36.756364 
L 186.836208 34.56 
L 186.342409 34.56 
L 186.342409 36.756364 
L 186.342409 38.952727 
L 186.342409 41.149091 
L 186.342409 43.345455 
L 186.342409 45.541818 
L 186.342409 47.738182 
L 186.342409 49.934545 
L 187.988406 51.032727 
L 189.634403 52.130909 
L 189.634403 54.327273 
L 189.634403 56.523636 
L 189.634403 58.72 
L 189.634403 60.916364 
L 189.634403 63.112727 
L 189.634403 65.309091 
L 189.634403 67.505455 
L 189.634403 69.701818 
L 189.634403 71.898182 
L 189.634403 74.094545 
L 189.634403 76.290909 
L 189.634403 78.487273 
L 189.634403 80.683636 
L 189.634403 82.88 
L 189.634403 85.076364 
L 189.634403 87.272727 
L 187.988406 88.370909 
L 186.342409 89.469091 
L 186.342409 91.665455 
L 186.342409 93.861818 
L 186.342409 96.058182 
L 186.342409 98.254545 
L 186.342409 100.450909 
L 186.342409 102.647273 
L 186.342409 104.843636 
L 186.342409 107.04 
L 187.988406 108.138182 
L 189.634403 109.236364 
L 189.634403 111.432727 
L 189.634403 113.629091 
L 189.634403 115.825455 
L 191.280399 116.923636 
L 192.926396 118.021818 
L 192.926396 120.218182 
L 194.572393 121.316364 
L 196.21839 122.414545 
L 197.864386 123.512727 
L 199.510383 124.610909 
L 199.510383 126.807273 
L 201.15638 127.905455 
L 202.802376 129.003636 
L 204.448373 130.101818 
L 206.09437 131.2 
L 207.740366 132.298182 
L 209.386363 133.396364 
L 211.03236 134.494545 
L 212.678356 135.592727 
L 214.324353 136.690909 
L 215.97035 137.789091 
L 215.97035 139.985455 
L 217.616346 141.083636 
L 219.262343 142.181818 
L 220.90834 143.28 
L 222.554336 144.378182 
L 224.200333 145.476364 
L 225.84633 146.574545 
L 227.492326 147.672727 
L 229.138323 148.770909 
L 230.78432 149.869091 
L 232.430316 150.967273 
L 232.430316 153.163636 
L 234.076313 154.261818 
L 235.72231 155.36 
L 237.368306 156.458182 
L 239.014303 157.556364 
L 239.014303 159.752727 
L 239.014303 161.949091 
L 240.6603 163.047273 
L 242.306296 164.145455 
L 242.306296 166.341818 
L 242.306296 168.538182 
L 242.306296 170.734545 
L 242.306296 172.930909 
L 242.306296 175.127273 
L 242.306296 177.323636 
L 242.306296 179.52 
L 242.306296 181.716364 
L 242.306296 183.912727 
L 242.306296 186.109091 
L 242.306296 188.305455 
L 242.306296 190.501818 
L 242.306296 192.698182 
L 242.306296 194.894545 
L 242.306296 197.090909 
L 242.306296 199.287273 
L 242.306296 201.483636 
L 243.952293 202.581818 
L 245.59829 203.68 
L 245.59829 205.876364 
L 245.59829 208.072727 
L 245.59829 210.269091 
L 245.59829 212.465455 
L 245.59829 214.661818 
L 245.59829 216.858182 
L 245.59829 219.054545 
L 245.59829 221.250909 
L 245.59829 223.447273 
L 245.59829 225.643636 
L 245.59829 227.84 
L 247.244286 228.938182 
L 248.890283 230.036364 
L 248.890283 232.232727 
L 248.890283 234.429091 
L 248.890283 236.625455 
L 248.890283 238.821818 
L 250.53628 239.92 
L 252.182276 241.018182 
L 252.182276 243.214545 
L 252.182276 245.410909 
L 252.182276 247.607273 
L 253.828273 248.705455 
L 255.47427 249.803636 
L 255.47427 252 
L 255.968069 252 
z
" clip-path="url(#p9f0efea35b)" style="fill: #adff49; fill-opacity: 0.5"/>
   </g>
   <g id="PathCollection_10">
    <path d="M 256.461868 249.803636 
L 253.828273 248.046545 
L 253.169874 247.607273 
L 253.169874 245.410909 
L 253.169874 243.214545 
L 253.169874 241.018182 
L 250.53628 239.261091 
L 249.877881 238.821818 
L 249.877881 236.625455 
L 249.877881 234.429091 
L 249.877881 232.232727 
L 249.877881 230.036364 
L 247.244286 228.279273 
L 246.585888 227.84 
L 246.585888 225.643636 
L 246.585888 223.447273 
L 246.585888 221.250909 
L 246.585888 219.054545 
L 246.585888 216.858182 
L 246.585888 214.661818 
L 246.585888 212.465455 
L 246.585888 210.269091 
L 246.585888 208.072727 
L 246.585888 205.876364 
L 246.585888 203.68 
L 243.952293 201.922909 
L 243.293894 201.483636 
L 243.293894 199.287273 
L 243.293894 197.090909 
L 243.293894 194.894545 
L 243.293894 192.698182 
L 243.293894 190.501818 
L 243.293894 188.305455 
L 243.293894 186.109091 
L 243.293894 183.912727 
L 243.293894 181.716364 
L 243.293894 179.52 
L 243.293894 177.323636 
L 243.293894 175.127273 
L 243.293894 172.930909 
L 243.293894 170.734545 
L 243.293894 168.538182 
L 243.293894 166.341818 
L 243.293894 164.145455 
L 240.6603 162.388364 
L 240.001901 161.949091 
L 240.001901 159.752727 
L 240.001901 157.556364 
L 237.368306 155.799273 
L 236.709908 155.36 
L 234.076313 153.602909 
L 233.417914 153.163636 
L 233.417914 150.967273 
L 230.78432 149.210182 
L 230.125921 148.770909 
L 227.492326 147.013818 
L 226.833928 146.574545 
L 224.200333 144.817455 
L 223.541934 144.378182 
L 220.90834 142.621091 
L 220.249941 142.181818 
L 217.616346 140.424727 
L 216.957948 139.985455 
L 216.957948 137.789091 
L 214.324353 136.032 
L 213.665954 135.592727 
L 211.03236 133.835636 
L 210.373961 133.396364 
L 207.740366 131.639273 
L 207.081968 131.2 
L 204.448373 129.442909 
L 203.789974 129.003636 
L 201.15638 127.246545 
L 200.497981 126.807273 
L 200.497981 124.610909 
L 197.864386 122.853818 
L 197.205988 122.414545 
L 194.572393 120.657455 
L 193.913994 120.218182 
L 193.913994 118.021818 
L 191.280399 116.264727 
L 190.622001 115.825455 
L 190.622001 113.629091 
L 190.622001 111.432727 
L 190.622001 109.236364 
L 187.988406 107.479273 
L 187.330007 107.04 
L 187.330007 104.843636 
L 187.330007 102.647273 
L 187.330007 100.450909 
L 187.330007 98.254545 
L 187.330007 96.058182 
L 187.330007 93.861818 
L 187.330007 91.665455 
L 187.330007 89.469091 
L 187.988406 89.029818 
L 190.622001 87.272727 
L 190.622001 85.076364 
L 190.622001 82.88 
L 190.622001 80.683636 
L 190.622001 78.487273 
L 190.622001 76.290909 
L 190.622001 74.094545 
L 190.622001 71.898182 
L 190.622001 69.701818 
L 190.622001 67.505455 
L 190.622001 65.309091 
L 190.622001 63.112727 
L 190.622001 60.916364 
L 190.622001 58.72 
L 190.622001 56.523636 
L 190.622001 54.327273 
L 190.622001 52.130909 
L 187.988406 50.373818 
L 187.330007 49.934545 
L 187.330007 47.738182 
L 187.330007 45.541818 
L 187.330007 43.345455 
L 187.330007 41.149091 
L 187.330007 38.952727 
L 187.330007 36.756364 
L 187.330007 34.56 
L 186.836208 34.56 
L 186.836208 36.756364 
L 186.836208 38.952727 
L 186.836208 41.149091 
L 186.836208 43.345455 
L 186.836208 45.541818 
L 186.836208 47.738182 
L 186.836208 49.934545 
L 187.988406 50.703273 
L 190.128202 52.130909 
L 190.128202 54.327273 
L 190.128202 56.523636 
L 190.128202 58.72 
L 190.128202 60.916364 
L 190.128202 63.112727 
L 190.128202 65.309091 
L 190.128202 67.505455 
L 190.128202 69.701818 
L 190.128202 71.898182 
L 190.128202 74.094545 
L 190.128202 76.290909 
L 190.128202 78.487273 
L 190.128202 80.683636 
L 190.128202 82.88 
L 190.128202 85.076364 
L 190.128202 87.272727 
L 187.988406 88.700364 
L 186.836208 89.469091 
L 186.836208 91.665455 
L 186.836208 93.861818 
L 186.836208 96.058182 
L 186.836208 98.254545 
L 186.836208 100.450909 
L 186.836208 102.647273 
L 186.836208 104.843636 
L 186.836208 107.04 
L 187.988406 107.808727 
L 190.128202 109.236364 
L 190.128202 111.432727 
L 190.128202 113.629091 
L 190.128202 115.825455 
L 191.280399 116.594182 
L 193.420195 118.021818 
L 193.420195 120.218182 
L 194.572393 120.986909 
L 196.712189 122.414545 
L 197.864386 123.183273 
L 200.004182 124.610909 
L 200.004182 126.807273 
L 201.15638 127.576 
L 203.296175 129.003636 
L 204.448373 129.772364 
L 206.588169 131.2 
L 207.740366 131.968727 
L 209.880162 133.396364 
L 211.03236 134.165091 
L 213.172155 135.592727 
L 214.324353 136.361455 
L 216.464149 137.789091 
L 216.464149 139.985455 
L 217.616346 140.754182 
L 219.756142 142.181818 
L 220.90834 142.950545 
L 223.048135 144.378182 
L 224.200333 145.146909 
L 226.340129 146.574545 
L 227.492326 147.343273 
L 229.632122 148.770909 
L 230.78432 149.539636 
L 232.924115 150.967273 
L 232.924115 153.163636 
L 234.076313 153.932364 
L 236.216109 155.36 
L 237.368306 156.128727 
L 239.508102 157.556364 
L 239.508102 159.752727 
L 239.508102 161.949091 
L 240.6603 162.717818 
L 242.800095 164.145455 
L 242.800095 166.341818 
L 242.800095 168.538182 
L 242.800095 170.734545 
L 242.800095 172.930909 
L 242.800095 175.127273 
L 242.800095 177.323636 
L 242.800095 179.52 
L 242.800095 181.716364 
L 242.800095 183.912727 
L 242.800095 186.109091 
L 242.800095 188.305455 
L 242.800095 190.501818 
L 242.800095 192.698182 
L 242.800095 194.894545 
L 242.800095 197.090909 
L 242.800095 199.287273 
L 242.800095 201.483636 
L 243.952293 202.252364 
L 246.092089 203.68 
L 246.092089 205.876364 
L 246.092089 208.072727 
L 246.092089 210.269091 
L 246.092089 212.465455 
L 246.092089 214.661818 
L 246.092089 216.858182 
L 246.092089 219.054545 
L 246.092089 221.250909 
L 246.092089 223.447273 
L 246.092089 225.643636 
L 246.092089 227.84 
L 247.244286 228.608727 
L 249.384082 230.036364 
L 249.384082 232.232727 
L 249.384082 234.429091 
L 249.384082 236.625455 
L 249.384082 238.821818 
L 250.53628 239.590545 
L 252.676075 241.018182 
L 252.676075 243.214545 
L 252.676075 245.410909 
L 252.676075 247.607273 
L 253.828273 248.376 
L 255.968069 249.803636 
L 255.968069 252 
L 256.461868 252 
z
" clip-path="url(#p9f0efea35b)" style="fill: #ffd300; fill-opacity: 0.5"/>
   </g>
   <g id="PathCollection_11">
    <path d="M 256.955667 249.803636 
L 253.828273 247.717091 
L 253.663673 247.607273 
L 253.663673 245.410909 
L 253.663673 243.214545 
L 253.663673 241.018182 
L 250.53628 238.931636 
L 250.37168 238.821818 
L 250.37168 236.625455 
L 250.37168 234.429091 
L 250.37168 232.232727 
L 250.37168 230.036364 
L 247.244286 227.949818 
L 247.079687 227.84 
L 247.079687 225.643636 
L 247.079687 223.447273 
L 247.079687 221.250909 
L 247.079687 219.054545 
L 247.079687 216.858182 
L 247.079687 214.661818 
L 247.079687 212.465455 
L 247.079687 210.269091 
L 247.079687 208.072727 
L 247.079687 205.876364 
L 247.079687 203.68 
L 243.952293 201.593455 
L 243.787693 201.483636 
L 243.787693 199.287273 
L 243.787693 197.090909 
L 243.787693 194.894545 
L 243.787693 192.698182 
L 243.787693 190.501818 
L 243.787693 188.305455 
L 243.787693 186.109091 
L 243.787693 183.912727 
L 243.787693 181.716364 
L 243.787693 179.52 
L 243.787693 177.323636 
L 243.787693 175.127273 
L 243.787693 172.930909 
L 243.787693 170.734545 
L 243.787693 168.538182 
L 243.787693 166.341818 
L 243.787693 164.145455 
L 240.6603 162.058909 
L 240.4957 161.949091 
L 240.4957 159.752727 
L 240.4957 157.556364 
L 237.368306 155.469818 
L 237.203707 155.36 
L 234.076313 153.273455 
L 233.911713 153.163636 
L 233.911713 150.967273 
L 230.78432 148.880727 
L 230.61972 148.770909 
L 227.492326 146.684364 
L 227.327727 146.574545 
L 224.200333 144.488 
L 224.035733 144.378182 
L 220.90834 142.291636 
L 220.74374 142.181818 
L 217.616346 140.095273 
L 217.451747 139.985455 
L 217.451747 137.789091 
L 214.324353 135.702545 
L 214.159753 135.592727 
L 211.03236 133.506182 
L 210.86776 133.396364 
L 207.740366 131.309818 
L 207.575767 131.2 
L 204.448373 129.113455 
L 204.283773 129.003636 
L 201.15638 126.917091 
L 200.99178 126.807273 
L 200.99178 124.610909 
L 197.864386 122.524364 
L 197.699787 122.414545 
L 194.572393 120.328 
L 194.407793 120.218182 
L 194.407793 118.021818 
L 191.280399 115.935273 
L 191.1158 115.825455 
L 191.1158 113.629091 
L 191.1158 111.432727 
L 191.1158 109.236364 
L 187.988406 107.149818 
L 187.823806 107.04 
L 187.823806 104.843636 
L 187.823806 102.647273 
L 187.823806 100.450909 
L 187.823806 98.254545 
L 187.823806 96.058182 
L 187.823806 93.861818 
L 187.823806 91.665455 
L 187.823806 89.469091 
L 187.988406 89.359273 
L 191.1158 87.272727 
L 191.1158 85.076364 
L 191.1158 82.88 
L 191.1158 80.683636 
L 191.1158 78.487273 
L 191.1158 76.290909 
L 191.1158 74.094545 
L 191.1158 71.898182 
L 191.1158 69.701818 
L 191.1158 67.505455 
L 191.1158 65.309091 
L 191.1158 63.112727 
L 191.1158 60.916364 
L 191.1158 58.72 
L 191.1158 56.523636 
L 191.1158 54.327273 
L 191.1158 52.130909 
L 187.988406 50.044364 
L 187.823806 49.934545 
L 187.823806 47.738182 
L 187.823806 45.541818 
L 187.823806 43.345455 
L 187.823806 41.149091 
L 187.823806 38.952727 
L 187.823806 36.756364 
L 187.823806 34.56 
L 187.330007 34.56 
L 187.330007 36.756364 
L 187.330007 38.952727 
L 187.330007 41.149091 
L 187.330007 43.345455 
L 187.330007 45.541818 
L 187.330007 47.738182 
L 187.330007 49.934545 
L 187.988406 50.373818 
L 190.622001 52.130909 
L 190.622001 54.327273 
L 190.622001 56.523636 
L 190.622001 58.72 
L 190.622001 60.916364 
L 190.622001 63.112727 
L 190.622001 65.309091 
L 190.622001 67.505455 
L 190.622001 69.701818 
L 190.622001 71.898182 
L 190.622001 74.094545 
L 190.622001 76.290909 
L 190.622001 78.487273 
L 190.622001 80.683636 
L 190.622001 82.88 
L 190.622001 85.076364 
L 190.622001 87.272727 
L 187.988406 89.029818 
L 187.330007 89.469091 
L 187.330007 91.665455 
L 187.330007 93.861818 
L 187.330007 96.058182 
L 187.330007 98.254545 
L 187.330007 100.450909 
L 187.330007 102.647273 
L 187.330007 104.843636 
L 187.330007 107.04 
L 187.988406 107.479273 
L 190.622001 109.236364 
L 190.622001 111.432727 
L 190.622001 113.629091 
L 190.622001 115.825455 
L 191.280399 116.264727 
L 193.913994 118.021818 
L 193.913994 120.218182 
L 194.572393 120.657455 
L 197.205988 122.414545 
L 197.864386 122.853818 
L 200.497981 124.610909 
L 200.497981 126.807273 
L 201.15638 127.246545 
L 203.789974 129.003636 
L 204.448373 129.442909 
L 207.081968 131.2 
L 207.740366 131.639273 
L 210.373961 133.396364 
L 211.03236 133.835636 
L 213.665954 135.592727 
L 214.324353 136.032 
L 216.957948 137.789091 
L 216.957948 139.985455 
L 217.616346 140.424727 
L 220.249941 142.181818 
L 220.90834 142.621091 
L 223.541934 144.378182 
L 224.200333 144.817455 
L 226.833928 146.574545 
L 227.492326 147.013818 
L 230.125921 148.770909 
L 230.78432 149.210182 
L 233.417914 150.967273 
L 233.417914 153.163636 
L 234.076313 153.602909 
L 236.709908 155.36 
L 237.368306 155.799273 
L 240.001901 157.556364 
L 240.001901 159.752727 
L 240.001901 161.949091 
L 240.6603 162.388364 
L 243.293894 164.145455 
L 243.293894 166.341818 
L 243.293894 168.538182 
L 243.293894 170.734545 
L 243.293894 172.930909 
L 243.293894 175.127273 
L 243.293894 177.323636 
L 243.293894 179.52 
L 243.293894 181.716364 
L 243.293894 183.912727 
L 243.293894 186.109091 
L 243.293894 188.305455 
L 243.293894 190.501818 
L 243.293894 192.698182 
L 243.293894 194.894545 
L 243.293894 197.090909 
L 243.293894 199.287273 
L 243.293894 201.483636 
L 243.952293 201.922909 
L 246.585888 203.68 
L 246.585888 205.876364 
L 246.585888 208.072727 
L 246.585888 210.269091 
L 246.585888 212.465455 
L 246.585888 214.661818 
L 246.585888 216.858182 
L 246.585888 219.054545 
L 246.585888 221.250909 
L 246.585888 223.447273 
L 246.585888 225.643636 
L 246.585888 227.84 
L 247.244286 228.279273 
L 249.877881 230.036364 
L 249.877881 232.232727 
L 249.877881 234.429091 
L 249.877881 236.625455 
L 249.877881 238.821818 
L 250.53628 239.261091 
L 253.169874 241.018182 
L 253.169874 243.214545 
L 253.169874 245.410909 
L 253.169874 247.607273 
L 253.828273 248.046545 
L 256.461868 249.803636 
L 256.461868 252 
L 256.955667 252 
z
" clip-path="url(#p9f0efea35b)" style="fill: #ff5900; fill-opacity: 0.5"/>
   </g>
   <g id="PathCollection_12">
    <path d="M 257.120266 252 
L 260.41226 252 
L 263.704253 252 
L 266.996246 252 
L 270.28824 252 
L 273.580233 252 
L 276.872226 252 
L 280.16422 252 
L 283.456213 252 
L 286.748206 252 
L 290.0402 252 
L 293.332193 252 
L 296.624186 252 
L 299.91618 252 
L 303.208173 252 
L 306.500166 252 
L 309.79216 252 
L 313.084153 252 
L 316.376146 252 
L 319.66814 252 
L 322.960133 252 
L 326.252127 252 
L 329.54412 252 
L 332.836113 252 
L 336.128107 252 
L 339.4201 252 
L 342.712093 252 
L 346.004087 252 
L 349.29608 252 
L 352.588073 252 
L 355.880067 252 
L 359.17206 252 
L 362.464053 252 
L 365.756047 252 
L 369.04804 252 
L 372.340033 252 
L 375.632027 252 
L 378.92402 252 
L 382.216013 252 
L 385.508007 252 
L 388.8 252 
L 388.8 249.803636 
L 388.8 247.607273 
L 388.8 245.410909 
L 388.8 243.214545 
L 388.8 241.018182 
L 388.8 238.821818 
L 388.8 236.625455 
L 388.8 234.429091 
L 388.8 232.232727 
L 388.8 230.036364 
L 388.8 227.84 
L 388.8 225.643636 
L 388.8 223.447273 
L 388.8 221.250909 
L 388.8 219.054545 
L 388.8 216.858182 
L 388.8 214.661818 
L 388.8 212.465455 
L 388.8 210.269091 
L 388.8 208.072727 
L 388.8 205.876364 
L 388.8 203.68 
L 388.8 201.483636 
L 388.8 199.287273 
L 388.8 197.090909 
L 388.8 194.894545 
L 388.8 192.698182 
L 388.8 190.501818 
L 388.8 188.305455 
L 388.8 186.109091 
L 388.8 183.912727 
L 388.8 181.716364 
L 388.8 179.52 
L 388.8 177.323636 
L 388.8 175.127273 
L 388.8 172.930909 
L 388.8 170.734545 
L 388.8 168.538182 
L 388.8 166.341818 
L 388.8 164.145455 
L 388.8 161.949091 
L 388.8 159.752727 
L 388.8 157.556364 
L 388.8 155.36 
L 388.8 153.163636 
L 388.8 150.967273 
L 388.8 148.770909 
L 388.8 146.574545 
L 388.8 144.378182 
L 388.8 142.181818 
L 388.8 139.985455 
L 388.8 137.789091 
L 388.8 135.592727 
L 388.8 133.396364 
L 388.8 131.2 
L 388.8 129.003636 
L 388.8 126.807273 
L 388.8 124.610909 
L 388.8 122.414545 
L 388.8 120.218182 
L 388.8 118.021818 
L 388.8 115.825455 
L 388.8 113.629091 
L 388.8 111.432727 
L 388.8 109.236364 
L 388.8 107.04 
L 388.8 104.843636 
L 388.8 102.647273 
L 388.8 100.450909 
L 388.8 98.254545 
L 388.8 96.058182 
L 388.8 93.861818 
L 388.8 91.665455 
L 388.8 89.469091 
L 388.8 87.272727 
L 388.8 85.076364 
L 388.8 82.88 
L 388.8 80.683636 
L 388.8 78.487273 
L 388.8 76.290909 
L 388.8 74.094545 
L 388.8 71.898182 
L 388.8 69.701818 
L 388.8 67.505455 
L 388.8 65.309091 
L 388.8 63.112727 
L 388.8 60.916364 
L 388.8 58.72 
L 388.8 56.523636 
L 388.8 54.327273 
L 388.8 52.130909 
L 388.8 49.934545 
L 388.8 47.738182 
L 388.8 45.541818 
L 388.8 43.345455 
L 388.8 41.149091 
L 388.8 38.952727 
L 388.8 36.756364 
L 388.8 34.56 
L 385.508007 34.56 
L 382.216013 34.56 
L 378.92402 34.56 
L 375.632027 34.56 
L 372.340033 34.56 
L 369.04804 34.56 
L 365.756047 34.56 
L 362.464053 34.56 
L 359.17206 34.56 
L 355.880067 34.56 
L 352.588073 34.56 
L 349.29608 34.56 
L 346.004087 34.56 
L 342.712093 34.56 
L 339.4201 34.56 
L 336.128107 34.56 
L 332.836113 34.56 
L 329.54412 34.56 
L 326.252127 34.56 
L 322.960133 34.56 
L 319.66814 34.56 
L 316.376146 34.56 
L 313.084153 34.56 
L 309.79216 34.56 
L 306.500166 34.56 
L 303.208173 34.56 
L 299.91618 34.56 
L 296.624186 34.56 
L 293.332193 34.56 
L 290.0402 34.56 
L 286.748206 34.56 
L 283.456213 34.56 
L 280.16422 34.56 
L 276.872226 34.56 
L 273.580233 34.56 
L 270.28824 34.56 
L 266.996246 34.56 
L 263.704253 34.56 
L 260.41226 34.56 
L 257.120266 34.56 
L 253.828273 34.56 
L 250.53628 34.56 
L 247.244286 34.56 
L 243.952293 34.56 
L 240.6603 34.56 
L 237.368306 34.56 
L 234.076313 34.56 
L 230.78432 34.56 
L 227.492326 34.56 
L 224.200333 34.56 
L 220.90834 34.56 
L 217.616346 34.56 
L 214.324353 34.56 
L 211.03236 34.56 
L 207.740366 34.56 
L 204.448373 34.56 
L 201.15638 34.56 
L 197.864386 34.56 
L 194.572393 34.56 
L 191.280399 34.56 
L 187.988406 34.56 
L 187.823806 34.56 
L 187.823806 36.756364 
L 187.823806 38.952727 
L 187.823806 41.149091 
L 187.823806 43.345455 
L 187.823806 45.541818 
L 187.823806 47.738182 
L 187.823806 49.934545 
L 187.988406 50.044364 
L 191.1158 52.130909 
L 191.1158 54.327273 
L 191.1158 56.523636 
L 191.1158 58.72 
L 191.1158 60.916364 
L 191.1158 63.112727 
L 191.1158 65.309091 
L 191.1158 67.505455 
L 191.1158 69.701818 
L 191.1158 71.898182 
L 191.1158 74.094545 
L 191.1158 76.290909 
L 191.1158 78.487273 
L 191.1158 80.683636 
L 191.1158 82.88 
L 191.1158 85.076364 
L 191.1158 87.272727 
L 187.988406 89.359273 
L 187.823806 89.469091 
L 187.823806 91.665455 
L 187.823806 93.861818 
L 187.823806 96.058182 
L 187.823806 98.254545 
L 187.823806 100.450909 
L 187.823806 102.647273 
L 187.823806 104.843636 
L 187.823806 107.04 
L 187.988406 107.149818 
L 191.1158 109.236364 
L 191.1158 111.432727 
L 191.1158 113.629091 
L 191.1158 115.825455 
L 191.280399 115.935273 
L 194.407793 118.021818 
L 194.407793 120.218182 
L 194.572393 120.328 
L 197.699787 122.414545 
L 197.864386 122.524364 
L 200.99178 124.610909 
L 200.99178 126.807273 
L 201.15638 126.917091 
L 204.283773 129.003636 
L 204.448373 129.113455 
L 207.575767 131.2 
L 207.740366 131.309818 
L 210.86776 133.396364 
L 211.03236 133.506182 
L 214.159753 135.592727 
L 214.324353 135.702545 
L 217.451747 137.789091 
L 217.451747 139.985455 
L 217.616346 140.095273 
L 220.74374 142.181818 
L 220.90834 142.291636 
L 224.035733 144.378182 
L 224.200333 144.488 
L 227.327727 146.574545 
L 227.492326 146.684364 
L 230.61972 148.770909 
L 230.78432 148.880727 
L 233.911713 150.967273 
L 233.911713 153.163636 
L 234.076313 153.273455 
L 237.203707 155.36 
L 237.368306 155.469818 
L 240.4957 157.556364 
L 240.4957 159.752727 
L 240.4957 161.949091 
L 240.6603 162.058909 
L 243.787693 164.145455 
L 243.787693 166.341818 
L 243.787693 168.538182 
L 243.787693 170.734545 
L 243.787693 172.930909 
L 243.787693 175.127273 
L 243.787693 177.323636 
L 243.787693 179.52 
L 243.787693 181.716364 
L 243.787693 183.912727 
L 243.787693 186.109091 
L 243.787693 188.305455 
L 243.787693 190.501818 
L 243.787693 192.698182 
L 243.787693 194.894545 
L 243.787693 197.090909 
L 243.787693 199.287273 
L 243.787693 201.483636 
L 243.952293 201.593455 
L 247.079687 203.68 
L 247.079687 205.876364 
L 247.079687 208.072727 
L 247.079687 210.269091 
L 247.079687 212.465455 
L 247.079687 214.661818 
L 247.079687 216.858182 
L 247.079687 219.054545 
L 247.079687 221.250909 
L 247.079687 223.447273 
L 247.079687 225.643636 
L 247.079687 227.84 
L 247.244286 227.949818 
L 250.37168 230.036364 
L 250.37168 232.232727 
L 250.37168 234.429091 
L 250.37168 236.625455 
L 250.37168 238.821818 
L 250.53628 238.931636 
L 253.663673 241.018182 
L 253.663673 243.214545 
L 253.663673 245.410909 
L 253.663673 247.607273 
L 253.828273 247.717091 
L 256.955667 249.803636 
L 256.955667 252 
z
" clip-path="url(#p9f0efea35b)" style="fill: #c80000; fill-opacity: 0.5"/>
   </g>
   <g id="matplotlib.axis_1">
    <g id="xtick_1">
     <g id="line2d_1">
      <defs>
       <path id="mf0e67278c6" d="M 0 0 
L 0 3.5 
" style="stroke: #000000; stroke-width: 0.8"/>
      </defs>
      <g>
       <use xlink:href="#mf0e67278c6" x="62.892659" y="252" style="stroke: #000000; stroke-width: 0.8"/>
      </g>
     </g>
     <g id="text_1">
      <!-- 16 -->
      <g transform="translate(52.340315 266.598437)scale(0.1 -0.1)">
       <defs>
        <path id="DejaVuSans-2212" d="M 678 2272 
L 4684 2272 
L 4684 1741 
L 678 1741 
L 678 2272 
z
" transform="scale(0.015625)"/>
        <path id="DejaVuSans-31" d="M 794 531 
L 1825 531 
L 1825 4091 
L 703 3866 
L 703 4441 
L 1819 4666 
L 2450 4666 
L 2450 531 
L 3481 531 
L 3481 0 
L 794 0 
L 794 531 
z
" transform="scale(0.015625)"/>
        <path id="DejaVuSans-36" d="M 2113 2584 
Q 1688 2584 1439 2293 
Q 1191 2003 1191 1497 
Q 1191 994 1439 701 
Q 1688 409 2113 409 
Q 2538 409 2786 701 
Q 3034 994 3034 1497 
Q 3034 2003 2786 2293 
Q 2538 2584 2113 2584 
z
M 3366 4563 
L 3366 3988 
Q 3128 4100 2886 4159 
Q 2644 4219 2406 4219 
Q 1781 4219 1451 3797 
Q 1122 3375 1075 2522 
Q 1259 2794 1537 2939 
Q 1816 3084 2150 3084 
Q 2853 3084 3261 2657 
Q 3669 2231 3669 1497 
Q 3669 778 3244 343 
Q 2819 -91 2113 -91 
Q 1303 -91 875 529 
Q 447 1150 447 2328 
Q 447 3434 972 4092 
Q 1497 4750 2381 4750 
Q 2619 4750 2861 4703 
Q 3103 4656 3366 4563 
z
" transform="scale(0.015625)"/>
       </defs>
       <use xlink:href="#DejaVuSans-2212"/>
       <use xlink:href="#DejaVuSans-31" x="83.789062"/>
       <use xlink:href="#DejaVuSans-36" x="147.412109"/>
      </g>
     </g>
    </g>
    <g id="xtick_2">
     <g id="line2d_2">
      <g>
       <use xlink:href="#mf0e67278c6" x="106.346971" y="252" style="stroke: #000000; stroke-width: 0.8"/>
      </g>
     </g>
     <g id="text_2">
      <!-- 14 -->
      <g transform="translate(95.794628 266.598437)scale(0.1 -0.1)">
       <defs>
        <path id="DejaVuSans-34" d="M 2419 4116 
L 825 1625 
L 2419 1625 
L 2419 4116 
z
M 2253 4666 
L 3047 4666 
L 3047 1625 
L 3713 1625 
L 3713 1100 
L 3047 1100 
L 3047 0 
L 2419 0 
L 2419 1100 
L 313 1100 
L 313 1709 
L 2253 4666 
z
" transform="scale(0.015625)"/>
       </defs>
       <use xlink:href="#DejaVuSans-2212"/>
       <use xlink:href="#DejaVuSans-31" x="83.789062"/>
       <use xlink:href="#DejaVuSans-34" x="147.412109"/>
      </g>
     </g>
    </g>
    <g id="xtick_3">
     <g id="line2d_3">
      <g>
       <use xlink:href="#mf0e67278c6" x="149.801283" y="252" style="stroke: #000000; stroke-width: 0.8"/>
      </g>
     </g>
     <g id="text_3">
      <!-- 12 -->
      <g transform="translate(139.24894 266.598437)scale(0.1 -0.1)">
       <defs>
        <path id="DejaVuSans-32" d="M 1228 531 
L 3431 531 
L 3431 0 
L 469 0 
L 469 531 
Q 828 903 1448 1529 
Q 2069 2156 2228 2338 
Q 2531 2678 2651 2914 
Q 2772 3150 2772 3378 
Q 2772 3750 2511 3984 
Q 2250 4219 1831 4219 
Q 1534 4219 1204 4116 
Q 875 4013 500 3803 
L 500 4441 
Q 881 4594 1212 4672 
Q 1544 4750 1819 4750 
Q 2544 4750 2975 4387 
Q 3406 4025 3406 3419 
Q 3406 3131 3298 2873 
Q 3191 2616 2906 2266 
Q 2828 2175 2409 1742 
Q 1991 1309 1228 531 
z
" transform="scale(0.015625)"/>
       </defs>
       <use xlink:href="#DejaVuSans-2212"/>
       <use xlink:href="#DejaVuSans-31" x="83.789062"/>
       <use xlink:href="#DejaVuSans-32" x="147.412109"/>
      </g>
     </g>
    </g>
    <g id="xtick_4">
     <g id="line2d_4">
      <g>
       <use xlink:href="#mf0e67278c6" x="193.255595" y="252" style="stroke: #000000; stroke-width: 0.8"/>
      </g>
     </g>
     <g id="text_4">
      <!-- 10 -->
      <g transform="translate(182.703252 266.598437)scale(0.1 -0.1)">
       <defs>
        <path id="DejaVuSans-30" d="M 2034 4250 
Q 1547 4250 1301 3770 
Q 1056 3291 1056 2328 
Q 1056 1369 1301 889 
Q 1547 409 2034 409 
Q 2525 409 2770 889 
Q 3016 1369 3016 2328 
Q 3016 3291 2770 3770 
Q 2525 4250 2034 4250 
z
M 2034 4750 
Q 2819 4750 3233 4129 
Q 3647 3509 3647 2328 
Q 3647 1150 3233 529 
Q 2819 -91 2034 -91 
Q 1250 -91 836 529 
Q 422 1150 422 2328 
Q 422 3509 836 4129 
Q 1250 4750 2034 4750 
z
" transform="scale(0.015625)"/>
       </defs>
       <use xlink:href="#DejaVuSans-2212"/>
       <use xlink:href="#DejaVuSans-31" x="83.789062"/>
       <use xlink:href="#DejaVuSans-30" x="147.412109"/>
      </g>
     </g>
    </g>
    <g id="xtick_5">
     <g id="line2d_5">
      <g>
       <use xlink:href="#mf0e67278c6" x="236.709908" y="252" style="stroke: #000000; stroke-width: 0.8"/>
      </g>
     </g>
     <g id="text_5">
      <!-- 8 -->
      <g transform="translate(229.338814 266.598437)scale(0.1 -0.1)">
       <defs>
        <path id="DejaVuSans-38" d="M 2034 2216 
Q 1584 2216 1326 1975 
Q 1069 1734 1069 1313 
Q 1069 891 1326 650 
Q 1584 409 2034 409 
Q 2484 409 2743 651 
Q 3003 894 3003 1313 
Q 3003 1734 2745 1975 
Q 2488 2216 2034 2216 
z
M 1403 2484 
Q 997 2584 770 2862 
Q 544 3141 544 3541 
Q 544 4100 942 4425 
Q 1341 4750 2034 4750 
Q 2731 4750 3128 4425 
Q 3525 4100 3525 3541 
Q 3525 3141 3298 2862 
Q 3072 2584 2669 2484 
Q 3125 2378 3379 2068 
Q 3634 1759 3634 1313 
Q 3634 634 3220 271 
Q 2806 -91 2034 -91 
Q 1263 -91 848 271 
Q 434 634 434 1313 
Q 434 1759 690 2068 
Q 947 2378 1403 2484 
z
M 1172 3481 
Q 1172 3119 1398 2916 
Q 1625 2713 2034 2713 
Q 2441 2713 2670 2916 
Q 2900 3119 2900 3481 
Q 2900 3844 2670 4047 
Q 2441 4250 2034 4250 
Q 1625 4250 1398 4047 
Q 1172 3844 1172 3481 
z
" transform="scale(0.015625)"/>
       </defs>
       <use xlink:href="#DejaVuSans-2212"/>
       <use xlink:href="#DejaVuSans-38" x="83.789062"/>
      </g>
     </g>
    </g>
    <g id="xtick_6">
     <g id="line2d_6">
      <g>
       <use xlink:href="#mf0e67278c6" x="280.16422" y="252" style="stroke: #000000; stroke-width: 0.8"/>
      </g>
     </g>
     <g id="text_6">
      <!-- 6 -->
      <g transform="translate(272.793126 266.598437)scale(0.1 -0.1)">
       <use xlink:href="#DejaVuSans-2212"/>
       <use xlink:href="#DejaVuSans-36" x="83.789062"/>
      </g>
     </g>
    </g>
    <g id="xtick_7">
     <g id="line2d_7">
      <g>
       <use xlink:href="#mf0e67278c6" x="323.618532" y="252" style="stroke: #000000; stroke-width: 0.8"/>
      </g>
     </g>
     <g id="text_7">
      <!-- 4 -->
      <g transform="translate(316.247438 266.598437)scale(0.1 -0.1)">
       <use xlink:href="#DejaVuSans-2212"/>
       <use xlink:href="#DejaVuSans-34" x="83.789062"/>
      </g>
     </g>
    </g>
    <g id="xtick_8">
     <g id="line2d_8">
      <g>
       <use xlink:href="#mf0e67278c6" x="367.072844" y="252" style="stroke: #000000; stroke-width: 0.8"/>
      </g>
     </g>
     <g id="text_8">
      <!-- 2 -->
      <g transform="translate(359.70175 266.598437)scale(0.1 -0.1)">
       <use xlink:href="#DejaVuSans-2212"/>
       <use xlink:href="#DejaVuSans-32" x="83.789062"/>
      </g>
     </g>
    </g>
    <g id="text_9">
     <!-- X-axis -->
     <g transform="translate(206.403906 280.276563)scale(0.1 -0.1)">
      <defs>
       <path id="DejaVuSans-58" d="M 403 4666 
L 1081 4666 
L 2241 2931 
L 3406 4666 
L 4084 4666 
L 2584 2425 
L 4184 0 
L 3506 0 
L 2194 1984 
L 872 0 
L 191 0 
L 1856 2491 
L 403 4666 
z
" transform="scale(0.015625)"/>
       <path id="DejaVuSans-2d" d="M 313 2009 
L 1997 2009 
L 1997 1497 
L 313 1497 
L 313 2009 
z
" transform="scale(0.015625)"/>
       <path id="DejaVuSans-61" d="M 2194 1759 
Q 1497 1759 1228 1600 
Q 959 1441 959 1056 
Q 959 750 1161 570 
Q 1363 391 1709 391 
Q 2188 391 2477 730 
Q 2766 1069 2766 1631 
L 2766 1759 
L 2194 1759 
z
M 3341 1997 
L 3341 0 
L 2766 0 
L 2766 531 
Q 2569 213 2275 61 
Q 1981 -91 1556 -91 
Q 1019 -91 701 211 
Q 384 513 384 1019 
Q 384 1609 779 1909 
Q 1175 2209 1959 2209 
L 2766 2209 
L 2766 2266 
Q 2766 2663 2505 2880 
Q 2244 3097 1772 3097 
Q 1472 3097 1187 3025 
Q 903 2953 641 2809 
L 641 3341 
Q 956 3463 1253 3523 
Q 1550 3584 1831 3584 
Q 2591 3584 2966 3190 
Q 3341 2797 3341 1997 
z
" transform="scale(0.015625)"/>
       <path id="DejaVuSans-78" d="M 3513 3500 
L 2247 1797 
L 3578 0 
L 2900 0 
L 1881 1375 
L 863 0 
L 184 0 
L 1544 1831 
L 300 3500 
L 978 3500 
L 1906 2253 
L 2834 3500 
L 3513 3500 
z
" transform="scale(0.015625)"/>
       <path id="DejaVuSans-69" d="M 603 3500 
L 1178 3500 
L 1178 0 
L 603 0 
L 603 3500 
z
M 603 4863 
L 1178 4863 
L 1178 4134 
L 603 4134 
L 603 4863 
z
" transform="scale(0.015625)"/>
       <path id="DejaVuSans-73" d="M 2834 3397 
L 2834 2853 
Q 2591 2978 2328 3040 
Q 2066 3103 1784 3103 
Q 1356 3103 1142 2972 
Q 928 2841 928 2578 
Q 928 2378 1081 2264 
Q 1234 2150 1697 2047 
L 1894 2003 
Q 2506 1872 2764 1633 
Q 3022 1394 3022 966 
Q 3022 478 2636 193 
Q 2250 -91 1575 -91 
Q 1294 -91 989 -36 
Q 684 19 347 128 
L 347 722 
Q 666 556 975 473 
Q 1284 391 1588 391 
Q 1994 391 2212 530 
Q 2431 669 2431 922 
Q 2431 1156 2273 1281 
Q 2116 1406 1581 1522 
L 1381 1569 
Q 847 1681 609 1914 
Q 372 2147 372 2553 
Q 372 3047 722 3315 
Q 1072 3584 1716 3584 
Q 2034 3584 2315 3537 
Q 2597 3491 2834 3397 
z
" transform="scale(0.015625)"/>
      </defs>
      <use xlink:href="#DejaVuSans-58"/>
      <use xlink:href="#DejaVuSans-2d" x="63.505859"/>
      <use xlink:href="#DejaVuSans-61" x="99.589844"/>
      <use xlink:href="#DejaVuSans-78" x="160.869141"/>
      <use xlink:href="#DejaVuSans-69" x="220.048828"/>
      <use xlink:href="#DejaVuSans-73" x="247.832031"/>
     </g>
    </g>
   </g>
   <g id="matplotlib.axis_2">
    <g id="ytick_1">
     <g id="line2d_9">
      <defs>
       <path id="mdc553eaf20" d="M 0 0 
L -3.5 0 
" style="stroke: #000000; stroke-width: 0.8"/>
      </defs>
      <g>
       <use xlink:href="#mdc553eaf20" x="54" y="252" style="stroke: #000000; stroke-width: 0.8"/>
      </g>
     </g>
     <g id="text_10">
      <!-- 10 -->
      <g transform="translate(25.895312 255.799219)scale(0.1 -0.1)">
       <use xlink:href="#DejaVuSans-2212"/>
       <use xlink:href="#DejaVuSans-31" x="83.789062"/>
       <use xlink:href="#DejaVuSans-30" x="147.412109"/>
      </g>
     </g>
    </g>
    <g id="ytick_2">
     <g id="line2d_10">
      <g>
       <use xlink:href="#mdc553eaf20" x="54" y="224.82" style="stroke: #000000; stroke-width: 0.8"/>
      </g>
     </g>
     <g id="text_11">
      <!-- 8 -->
      <g transform="translate(32.257812 228.619219)scale(0.1 -0.1)">
       <use xlink:href="#DejaVuSans-2212"/>
       <use xlink:href="#DejaVuSans-38" x="83.789062"/>
      </g>
     </g>
    </g>
    <g id="ytick_3">
     <g id="line2d_11">
      <g>
       <use xlink:href="#mdc553eaf20" x="54" y="197.64" style="stroke: #000000; stroke-width: 0.8"/>
      </g>
     </g>
     <g id="text_12">
      <!-- 6 -->
      <g transform="translate(32.257812 201.439219)scale(0.1 -0.1)">
       <use xlink:href="#DejaVuSans-2212"/>
       <use xlink:href="#DejaVuSans-36" x="83.789062"/>
      </g>
     </g>
    </g>
    <g id="ytick_4">
     <g id="line2d_12">
      <g>
       <use xlink:href="#mdc553eaf20" x="54" y="170.46" style="stroke: #000000; stroke-width: 0.8"/>
      </g>
     </g>
     <g id="text_13">
      <!-- 4 -->
      <g transform="translate(32.257812 174.259219)scale(0.1 -0.1)">
       <use xlink:href="#DejaVuSans-2212"/>
       <use xlink:href="#DejaVuSans-34" x="83.789062"/>
      </g>
     </g>
    </g>
    <g id="ytick_5">
     <g id="line2d_13">
      <g>
       <use xlink:href="#mdc553eaf20" x="54" y="143.28" style="stroke: #000000; stroke-width: 0.8"/>
      </g>
     </g>
     <g id="text_14">
      <!-- 2 -->
      <g transform="translate(32.257812 147.079219)scale(0.1 -0.1)">
       <use xlink:href="#DejaVuSans-2212"/>
       <use xlink:href="#DejaVuSans-32" x="83.789062"/>
      </g>
     </g>
    </g>
    <g id="ytick_6">
     <g id="line2d_14">
      <g>
       <use xlink:href="#mdc553eaf20" x="54" y="116.1" style="stroke: #000000; stroke-width: 0.8"/>
      </g>
     </g>
     <g id="text_15">
      <!-- 0 -->
      <g transform="translate(40.6375 119.899219)scale(0.1 -0.1)">
       <use xlink:href="#DejaVuSans-30"/>
      </g>
     </g>
    </g>
    <g id="ytick_7">
     <g id="line2d_15">
      <g>
       <use xlink:href="#mdc553eaf20" x="54" y="88.92" style="stroke: #000000; stroke-width: 0.8"/>
      </g>
     </g>
     <g id="text_16">
      <!-- 2 -->
      <g transform="translate(40.6375 92.719219)scale(0.1 -0.1)">
       <use xlink:href="#DejaVuSans-32"/>
      </g>
     </g>
    </g>
    <g id="ytick_8">
     <g id="line2d_16">
      <g>
       <use xlink:href="#mdc553eaf20" x="54" y="61.74" style="stroke: #000000; stroke-width: 0.8"/>
      </g>
     </g>
     <g id="text_17">
      <!-- 4 -->
      <g transform="translate(40.6375 65.539219)scale(0.1 -0.1)">
       <use xlink:href="#DejaVuSans-34"/>
      </g>
     </g>
    </g>
    <g id="ytick_9">
     <g id="line2d_17">
      <g>
       <use xlink:href="#mdc553eaf20" x="54" y="34.56" style="stroke: #000000; stroke-width: 0.8"/>
      </g>
     </g>
     <g id="text_18">
      <!-- 6 -->
      <g transform="translate(40.6375 38.359219)scale(0.1 -0.1)">
       <use xlink:href="#DejaVuSans-36"/>
      </g>
     </g>
    </g>
    <g id="text_19">
     <!-- Y-axix -->
     <g transform="translate(19.815625 157.915938)rotate(-90)scale(0.1 -0.1)">
      <defs>
       <path id="DejaVuSans-59" d="M -13 4666 
L 666 4666 
L 1959 2747 
L 3244 4666 
L 3922 4666 
L 2272 2222 
L 2272 0 
L 1638 0 
L 1638 2222 
L -13 4666 
z
" transform="scale(0.015625)"/>
      </defs>
      <use xlink:href="#DejaVuSans-59"/>
      <use xlink:href="#DejaVuSans-2d" x="49.208984"/>
      <use xlink:href="#DejaVuSans-61" x="85.292969"/>
      <use xlink:href="#DejaVuSans-78" x="146.572266"/>
      <use xlink:href="#DejaVuSans-69" x="205.751953"/>
      <use xlink:href="#DejaVuSans-78" x="233.535156"/>
     </g>
    </g>
   </g>
   <g id="PathCollection_13">
    <path d="M 184.362936 140.993433 
" clip-path="url(#p9f0efea35b)" style="fill: none; stroke: #000004; stroke-width: 1.5"/>
    <path d="M 184.362936 59.453433 
" clip-path="url(#p9f0efea35b)" style="fill: none; stroke: #000004; stroke-width: 1.5"/>
   </g>
   <g id="PathCollection_14">
    <path d="M 104.731567 201.972873 
" clip-path="url(#p9f0efea35b)" style="fill: none; stroke: #000004; stroke-width: 1.5"/>
    <path d="M 235.094503 201.972873 
" clip-path="url(#p9f0efea35b)" style="fill: none; stroke: #000004; stroke-width: 1.5"/>
    <path d="M 104.731567 120.432873 
" clip-path="url(#p9f0efea35b)" style="fill: none; stroke: #000004; stroke-width: 1.5"/>
    <path d="M 235.094503 120.432873 
" clip-path="url(#p9f0efea35b)" style="fill: none; stroke: #000004; stroke-width: 1.5"/>
   </g>
   <g id="PathCollection_15">
    <path d="M 246.799334 214.779632 
" clip-path="url(#p9f0efea35b)" style="fill: none; stroke: #000004; stroke-width: 1.5"/>
    <path d="M 377.16227 214.779632 
" clip-path="url(#p9f0efea35b)" style="fill: none; stroke: #000004; stroke-width: 1.5"/>
    <path d="M 246.799334 133.239632 
" clip-path="url(#p9f0efea35b)" style="fill: none; stroke: #000004; stroke-width: 1.5"/>
    <path d="M 377.16227 133.239632 
" clip-path="url(#p9f0efea35b)" style="fill: none; stroke: #000004; stroke-width: 1.5"/>
   </g>
   <g id="PathCollection_16">
    <path d="M 197.268176 156.756174 
" clip-path="url(#p9f0efea35b)" style="fill: none; stroke: #000004; stroke-width: 1.5"/>
    <path d="M 327.631113 156.756174 
" clip-path="url(#p9f0efea35b)" style="fill: none; stroke: #000004; stroke-width: 1.5"/>
    <path d="M 197.268176 75.216174 
" clip-path="url(#p9f0efea35b)" style="fill: none; stroke: #000004; stroke-width: 1.5"/>
    <path d="M 327.631113 75.216174 
" clip-path="url(#p9f0efea35b)" style="fill: none; stroke: #000004; stroke-width: 1.5"/>
   </g>
   <g id="patch_3">
    <path d="M 54 252 
L 54 34.56 
" style="fill: none; stroke: #000000; stroke-width: 0.8; stroke-linejoin: miter; stroke-linecap: square"/>
   </g>
   <g id="patch_4">
    <path d="M 388.8 252 
L 388.8 34.56 
" style="fill: none; stroke: #000000; stroke-width: 0.8; stroke-linejoin: miter; stroke-linecap: square"/>
   </g>
   <g id="patch_5">
    <path d="M 54 252 
L 388.8 252 
" style="fill: none; stroke: #000000; stroke-width: 0.8; stroke-linejoin: miter; stroke-linecap: square"/>
   </g>
   <g id="patch_6">
    <path d="M 54 34.56 
L 388.8 34.56 
" style="fill: none; stroke: #000000; stroke-width: 0.8; stroke-linejoin: miter; stroke-linecap: square"/>
   </g>
   <g id="text_20">
    <!-- Decision and Contour plot for K = 2 -->
    <g transform="translate(114.734063 28.56)scale(0.12 -0.12)">
     <defs>
      <path id="DejaVuSans-44" d="M 1259 4147 
L 1259 519 
L 2022 519 
Q 2988 519 3436 956 
Q 3884 1394 3884 2338 
Q 3884 3275 3436 3711 
Q 2988 4147 2022 4147 
L 1259 4147 
z
M 628 4666 
L 1925 4666 
Q 3281 4666 3915 4102 
Q 4550 3538 4550 2338 
Q 4550 1131 3912 565 
Q 3275 0 1925 0 
L 628 0 
L 628 4666 
z
" transform="scale(0.015625)"/>
      <path id="DejaVuSans-65" d="M 3597 1894 
L 3597 1613 
L 953 1613 
Q 991 1019 1311 708 
Q 1631 397 2203 397 
Q 2534 397 2845 478 
Q 3156 559 3463 722 
L 3463 178 
Q 3153 47 2828 -22 
Q 2503 -91 2169 -91 
Q 1331 -91 842 396 
Q 353 884 353 1716 
Q 353 2575 817 3079 
Q 1281 3584 2069 3584 
Q 2775 3584 3186 3129 
Q 3597 2675 3597 1894 
z
M 3022 2063 
Q 3016 2534 2758 2815 
Q 2500 3097 2075 3097 
Q 1594 3097 1305 2825 
Q 1016 2553 972 2059 
L 3022 2063 
z
" transform="scale(0.015625)"/>
      <path id="DejaVuSans-63" d="M 3122 3366 
L 3122 2828 
Q 2878 2963 2633 3030 
Q 2388 3097 2138 3097 
Q 1578 3097 1268 2742 
Q 959 2388 959 1747 
Q 959 1106 1268 751 
Q 1578 397 2138 397 
Q 2388 397 2633 464 
Q 2878 531 3122 666 
L 3122 134 
Q 2881 22 2623 -34 
Q 2366 -91 2075 -91 
Q 1284 -91 818 406 
Q 353 903 353 1747 
Q 353 2603 823 3093 
Q 1294 3584 2113 3584 
Q 2378 3584 2631 3529 
Q 2884 3475 3122 3366 
z
" transform="scale(0.015625)"/>
      <path id="DejaVuSans-6f" d="M 1959 3097 
Q 1497 3097 1228 2736 
Q 959 2375 959 1747 
Q 959 1119 1226 758 
Q 1494 397 1959 397 
Q 2419 397 2687 759 
Q 2956 1122 2956 1747 
Q 2956 2369 2687 2733 
Q 2419 3097 1959 3097 
z
M 1959 3584 
Q 2709 3584 3137 3096 
Q 3566 2609 3566 1747 
Q 3566 888 3137 398 
Q 2709 -91 1959 -91 
Q 1206 -91 779 398 
Q 353 888 353 1747 
Q 353 2609 779 3096 
Q 1206 3584 1959 3584 
z
" transform="scale(0.015625)"/>
      <path id="DejaVuSans-6e" d="M 3513 2113 
L 3513 0 
L 2938 0 
L 2938 2094 
Q 2938 2591 2744 2837 
Q 2550 3084 2163 3084 
Q 1697 3084 1428 2787 
Q 1159 2491 1159 1978 
L 1159 0 
L 581 0 
L 581 3500 
L 1159 3500 
L 1159 2956 
Q 1366 3272 1645 3428 
Q 1925 3584 2291 3584 
Q 2894 3584 3203 3211 
Q 3513 2838 3513 2113 
z
" transform="scale(0.015625)"/>
      <path id="DejaVuSans-20" transform="scale(0.015625)"/>
      <path id="DejaVuSans-64" d="M 2906 2969 
L 2906 4863 
L 3481 4863 
L 3481 0 
L 2906 0 
L 2906 525 
Q 2725 213 2448 61 
Q 2172 -91 1784 -91 
Q 1150 -91 751 415 
Q 353 922 353 1747 
Q 353 2572 751 3078 
Q 1150 3584 1784 3584 
Q 2172 3584 2448 3432 
Q 2725 3281 2906 2969 
z
M 947 1747 
Q 947 1113 1208 752 
Q 1469 391 1925 391 
Q 2381 391 2643 752 
Q 2906 1113 2906 1747 
Q 2906 2381 2643 2742 
Q 2381 3103 1925 3103 
Q 1469 3103 1208 2742 
Q 947 2381 947 1747 
z
" transform="scale(0.015625)"/>
      <path id="DejaVuSans-43" d="M 4122 4306 
L 4122 3641 
Q 3803 3938 3442 4084 
Q 3081 4231 2675 4231 
Q 1875 4231 1450 3742 
Q 1025 3253 1025 2328 
Q 1025 1406 1450 917 
Q 1875 428 2675 428 
Q 3081 428 3442 575 
Q 3803 722 4122 1019 
L 4122 359 
Q 3791 134 3420 21 
Q 3050 -91 2638 -91 
Q 1578 -91 968 557 
Q 359 1206 359 2328 
Q 359 3453 968 4101 
Q 1578 4750 2638 4750 
Q 3056 4750 3426 4639 
Q 3797 4528 4122 4306 
z
" transform="scale(0.015625)"/>
      <path id="DejaVuSans-74" d="M 1172 4494 
L 1172 3500 
L 2356 3500 
L 2356 3053 
L 1172 3053 
L 1172 1153 
Q 1172 725 1289 603 
Q 1406 481 1766 481 
L 2356 481 
L 2356 0 
L 1766 0 
Q 1100 0 847 248 
Q 594 497 594 1153 
L 594 3053 
L 172 3053 
L 172 3500 
L 594 3500 
L 594 4494 
L 1172 4494 
z
" transform="scale(0.015625)"/>
      <path id="DejaVuSans-75" d="M 544 1381 
L 544 3500 
L 1119 3500 
L 1119 1403 
Q 1119 906 1312 657 
Q 1506 409 1894 409 
Q 2359 409 2629 706 
Q 2900 1003 2900 1516 
L 2900 3500 
L 3475 3500 
L 3475 0 
L 2900 0 
L 2900 538 
Q 2691 219 2414 64 
Q 2138 -91 1772 -91 
Q 1169 -91 856 284 
Q 544 659 544 1381 
z
M 1991 3584 
L 1991 3584 
z
" transform="scale(0.015625)"/>
      <path id="DejaVuSans-72" d="M 2631 2963 
Q 2534 3019 2420 3045 
Q 2306 3072 2169 3072 
Q 1681 3072 1420 2755 
Q 1159 2438 1159 1844 
L 1159 0 
L 581 0 
L 581 3500 
L 1159 3500 
L 1159 2956 
Q 1341 3275 1631 3429 
Q 1922 3584 2338 3584 
Q 2397 3584 2469 3576 
Q 2541 3569 2628 3553 
L 2631 2963 
z
" transform="scale(0.015625)"/>
      <path id="DejaVuSans-70" d="M 1159 525 
L 1159 -1331 
L 581 -1331 
L 581 3500 
L 1159 3500 
L 1159 2969 
Q 1341 3281 1617 3432 
Q 1894 3584 2278 3584 
Q 2916 3584 3314 3078 
Q 3713 2572 3713 1747 
Q 3713 922 3314 415 
Q 2916 -91 2278 -91 
Q 1894 -91 1617 61 
Q 1341 213 1159 525 
z
M 3116 1747 
Q 3116 2381 2855 2742 
Q 2594 3103 2138 3103 
Q 1681 3103 1420 2742 
Q 1159 2381 1159 1747 
Q 1159 1113 1420 752 
Q 1681 391 2138 391 
Q 2594 391 2855 752 
Q 3116 1113 3116 1747 
z
" transform="scale(0.015625)"/>
      <path id="DejaVuSans-6c" d="M 603 4863 
L 1178 4863 
L 1178 0 
L 603 0 
L 603 4863 
z
" transform="scale(0.015625)"/>
      <path id="DejaVuSans-66" d="M 2375 4863 
L 2375 4384 
L 1825 4384 
Q 1516 4384 1395 4259 
Q 1275 4134 1275 3809 
L 1275 3500 
L 2222 3500 
L 2222 3053 
L 1275 3053 
L 1275 0 
L 697 0 
L 697 3053 
L 147 3053 
L 147 3500 
L 697 3500 
L 697 3744 
Q 697 4328 969 4595 
Q 1241 4863 1831 4863 
L 2375 4863 
z
" transform="scale(0.015625)"/>
      <path id="DejaVuSans-4b" d="M 628 4666 
L 1259 4666 
L 1259 2694 
L 3353 4666 
L 4166 4666 
L 1850 2491 
L 4331 0 
L 3500 0 
L 1259 2247 
L 1259 0 
L 628 0 
L 628 4666 
z
" transform="scale(0.015625)"/>
      <path id="DejaVuSans-3d" d="M 678 2906 
L 4684 2906 
L 4684 2381 
L 678 2381 
L 678 2906 
z
M 678 1631 
L 4684 1631 
L 4684 1100 
L 678 1100 
L 678 1631 
z
" transform="scale(0.015625)"/>
     </defs>
     <use xlink:href="#DejaVuSans-44"/>
     <use xlink:href="#DejaVuSans-65" x="77.001953"/>
     <use xlink:href="#DejaVuSans-63" x="138.525391"/>
     <use xlink:href="#DejaVuSans-69" x="193.505859"/>
     <use xlink:href="#DejaVuSans-73" x="221.289062"/>
     <use xlink:href="#DejaVuSans-69" x="273.388672"/>
     <use xlink:href="#DejaVuSans-6f" x="301.171875"/>
     <use xlink:href="#DejaVuSans-6e" x="362.353516"/>
     <use xlink:href="#DejaVuSans-20" x="425.732422"/>
     <use xlink:href="#DejaVuSans-61" x="457.519531"/>
     <use xlink:href="#DejaVuSans-6e" x="518.798828"/>
     <use xlink:href="#DejaVuSans-64" x="582.177734"/>
     <use xlink:href="#DejaVuSans-20" x="645.654297"/>
     <use xlink:href="#DejaVuSans-43" x="677.441406"/>
     <use xlink:href="#DejaVuSans-6f" x="747.265625"/>
     <use xlink:href="#DejaVuSans-6e" x="808.447266"/>
     <use xlink:href="#DejaVuSans-74" x="871.826172"/>
     <use xlink:href="#DejaVuSans-6f" x="911.035156"/>
     <use xlink:href="#DejaVuSans-75" x="972.216797"/>
     <use xlink:href="#DejaVuSans-72" x="1035.595703"/>
     <use xlink:href="#DejaVuSans-20" x="1076.708984"/>
     <use xlink:href="#DejaVuSans-70" x="1108.496094"/>
     <use xlink:href="#DejaVuSans-6c" x="1171.972656"/>
     <use xlink:href="#DejaVuSans-6f" x="1199.755859"/>
     <use xlink:href="#DejaVuSans-74" x="1260.9375"/>
     <use xlink:href="#DejaVuSans-20" x="1300.146484"/>
     <use xlink:href="#DejaVuSans-66" x="1331.933594"/>
     <use xlink:href="#DejaVuSans-6f" x="1367.138672"/>
     <use xlink:href="#DejaVuSans-72" x="1428.320312"/>
     <use xlink:href="#DejaVuSans-20" x="1469.433594"/>
     <use xlink:href="#DejaVuSans-4b" x="1501.220703"/>
     <use xlink:href="#DejaVuSans-20" x="1566.796875"/>
     <use xlink:href="#DejaVuSans-3d" x="1598.583984"/>
     <use xlink:href="#DejaVuSans-20" x="1682.373047"/>
     <use xlink:href="#DejaVuSans-32" x="1714.160156"/>
    </g>
   </g>
  </g>
 </g>
 <defs>
  <clipPath id="p9f0efea35b">
   <rect x="54" y="34.56" width="334.8" height="217.44"/>
  </clipPath>
 </defs>
</svg>
