<?xml version="1.0" encoding="utf-8" standalone="no"?>
<!DOCTYPE svg PUBLIC "-//W3C//DTD SVG 1.1//EN"
  "http://www.w3.org/Graphics/SVG/1.1/DTD/svg11.dtd">
<svg xmlns:xlink="http://www.w3.org/1999/xlink" width="432pt" height="288pt" viewBox="0 0 432 288" xmlns="http://www.w3.org/2000/svg" version="1.1">
 <metadata>
  <rdf:RDF xmlns:dc="http://purl.org/dc/elements/1.1/" xmlns:cc="http://creativecommons.org/ns#" xmlns:rdf="http://www.w3.org/1999/02/22-rdf-syntax-ns#">
   <cc:Work>
    <dc:type rdf:resource="http://purl.org/dc/dcmitype/StillImage"/>
    <dc:date>2022-04-03T19:20:44.413732</dc:date>
    <dc:format>image/svg+xml</dc:format>
    <dc:creator>
     <cc:Agent>
      <dc:title>Matplotlib v3.5.1, https://matplotlib.org/</dc:title>
     </cc:Agent>
    </dc:creator>
   </cc:Work>
  </rdf:RDF>
 </metadata>
 <defs>
  <style type="text/css">*{stroke-linejoin: round; stroke-linecap: butt}</style>
 </defs>
 <g id="figure_1">
  <g id="patch_1">
   <path d="M 0 288 
L 432 288 
L 432 0 
L 0 0 
L 0 288 
z
" style="fill: none"/>
  </g>
  <g id="axes_1">
   <g id="patch_2">
    <path d="M 54 252 
L 388.8 252 
L 388.8 34.56 
L 54 34.56 
z
" style="fill: #ffffff"/>
   </g>
   <g id="matplotlib.axis_1">
    <g id="xtick_1">
     <g id="line2d_1">
      <defs>
       <path id="mea07dd9f16" d="M 0 0 
L 0 3.5 
" style="stroke: #000000; stroke-width: 0.8"/>
      </defs>
      <g>
       <use xlink:href="#mea07dd9f16" x="91.589789" y="252" style="stroke: #000000; stroke-width: 0.8"/>
      </g>
     </g>
     <g id="text_1">
      <!-- 1% -->
      <g transform="translate(83.657757 266.598437)scale(0.1 -0.1)">
       <defs>
        <path id="DejaVuSans-31" d="M 794 531 
L 1825 531 
L 1825 4091 
L 703 3866 
L 703 4441 
L 1819 4666 
L 2450 4666 
L 2450 531 
L 3481 531 
L 3481 0 
L 794 0 
L 794 531 
z
" transform="scale(0.015625)"/>
        <path id="DejaVuSans-25" d="M 4653 2053 
Q 4381 2053 4226 1822 
Q 4072 1591 4072 1178 
Q 4072 772 4226 539 
Q 4381 306 4653 306 
Q 4919 306 5073 539 
Q 5228 772 5228 1178 
Q 5228 1588 5073 1820 
Q 4919 2053 4653 2053 
z
M 4653 2450 
Q 5147 2450 5437 2106 
Q 5728 1763 5728 1178 
Q 5728 594 5436 251 
Q 5144 -91 4653 -91 
Q 4153 -91 3862 251 
Q 3572 594 3572 1178 
Q 3572 1766 3864 2108 
Q 4156 2450 4653 2450 
z
M 1428 4353 
Q 1159 4353 1004 4120 
Q 850 3888 850 3481 
Q 850 3069 1003 2837 
Q 1156 2606 1428 2606 
Q 1700 2606 1854 2837 
Q 2009 3069 2009 3481 
Q 2009 3884 1853 4118 
Q 1697 4353 1428 4353 
z
M 4250 4750 
L 4750 4750 
L 1831 -91 
L 1331 -91 
L 4250 4750 
z
M 1428 4750 
Q 1922 4750 2215 4408 
Q 2509 4066 2509 3481 
Q 2509 2891 2217 2550 
Q 1925 2209 1428 2209 
Q 931 2209 642 2551 
Q 353 2894 353 3481 
Q 353 4063 643 4406 
Q 934 4750 1428 4750 
z
" transform="scale(0.015625)"/>
       </defs>
       <use xlink:href="#DejaVuSans-31"/>
       <use xlink:href="#DejaVuSans-25" x="63.623047"/>
      </g>
     </g>
    </g>
    <g id="xtick_2">
     <g id="line2d_2">
      <g>
       <use xlink:href="#mea07dd9f16" x="129.617168" y="252" style="stroke: #000000; stroke-width: 0.8"/>
      </g>
     </g>
     <g id="text_2">
      <!-- 5% -->
      <g transform="translate(121.685136 266.598437)scale(0.1 -0.1)">
       <defs>
        <path id="DejaVuSans-35" d="M 691 4666 
L 3169 4666 
L 3169 4134 
L 1269 4134 
L 1269 2991 
Q 1406 3038 1543 3061 
Q 1681 3084 1819 3084 
Q 2600 3084 3056 2656 
Q 3513 2228 3513 1497 
Q 3513 744 3044 326 
Q 2575 -91 1722 -91 
Q 1428 -91 1123 -41 
Q 819 9 494 109 
L 494 744 
Q 775 591 1075 516 
Q 1375 441 1709 441 
Q 2250 441 2565 725 
Q 2881 1009 2881 1497 
Q 2881 1984 2565 2268 
Q 2250 2553 1709 2553 
Q 1456 2553 1204 2497 
Q 953 2441 691 2322 
L 691 4666 
z
" transform="scale(0.015625)"/>
       </defs>
       <use xlink:href="#DejaVuSans-35"/>
       <use xlink:href="#DejaVuSans-25" x="63.623047"/>
      </g>
     </g>
    </g>
    <g id="xtick_3">
     <g id="line2d_3">
      <g>
       <use xlink:href="#mea07dd9f16" x="174.437535" y="252" style="stroke: #000000; stroke-width: 0.8"/>
      </g>
     </g>
     <g id="text_3">
      <!-- 20% -->
      <g transform="translate(163.324254 266.598437)scale(0.1 -0.1)">
       <defs>
        <path id="DejaVuSans-32" d="M 1228 531 
L 3431 531 
L 3431 0 
L 469 0 
L 469 531 
Q 828 903 1448 1529 
Q 2069 2156 2228 2338 
Q 2531 2678 2651 2914 
Q 2772 3150 2772 3378 
Q 2772 3750 2511 3984 
Q 2250 4219 1831 4219 
Q 1534 4219 1204 4116 
Q 875 4013 500 3803 
L 500 4441 
Q 881 4594 1212 4672 
Q 1544 4750 1819 4750 
Q 2544 4750 2975 4387 
Q 3406 4025 3406 3419 
Q 3406 3131 3298 2873 
Q 3191 2616 2906 2266 
Q 2828 2175 2409 1742 
Q 1991 1309 1228 531 
z
" transform="scale(0.015625)"/>
        <path id="DejaVuSans-30" d="M 2034 4250 
Q 1547 4250 1301 3770 
Q 1056 3291 1056 2328 
Q 1056 1369 1301 889 
Q 1547 409 2034 409 
Q 2525 409 2770 889 
Q 3016 1369 3016 2328 
Q 3016 3291 2770 3770 
Q 2525 4250 2034 4250 
z
M 2034 4750 
Q 2819 4750 3233 4129 
Q 3647 3509 3647 2328 
Q 3647 1150 3233 529 
Q 2819 -91 2034 -91 
Q 1250 -91 836 529 
Q 422 1150 422 2328 
Q 422 3509 836 4129 
Q 1250 4750 2034 4750 
z
" transform="scale(0.015625)"/>
       </defs>
       <use xlink:href="#DejaVuSans-32"/>
       <use xlink:href="#DejaVuSans-30" x="63.623047"/>
       <use xlink:href="#DejaVuSans-25" x="127.246094"/>
      </g>
     </g>
    </g>
    <g id="xtick_4">
     <g id="line2d_4">
      <g>
       <use xlink:href="#mea07dd9f16" x="221.4" y="252" style="stroke: #000000; stroke-width: 0.8"/>
      </g>
     </g>
     <g id="text_4">
      <!-- 50% -->
      <g transform="translate(210.286719 266.598437)scale(0.1 -0.1)">
       <use xlink:href="#DejaVuSans-35"/>
       <use xlink:href="#DejaVuSans-30" x="63.623047"/>
       <use xlink:href="#DejaVuSans-25" x="127.246094"/>
      </g>
     </g>
    </g>
    <g id="xtick_5">
     <g id="line2d_5">
      <g>
       <use xlink:href="#mea07dd9f16" x="268.362465" y="252" style="stroke: #000000; stroke-width: 0.8"/>
      </g>
     </g>
     <g id="text_5">
      <!-- 80% -->
      <g transform="translate(257.249184 266.598437)scale(0.1 -0.1)">
       <defs>
        <path id="DejaVuSans-38" d="M 2034 2216 
Q 1584 2216 1326 1975 
Q 1069 1734 1069 1313 
Q 1069 891 1326 650 
Q 1584 409 2034 409 
Q 2484 409 2743 651 
Q 3003 894 3003 1313 
Q 3003 1734 2745 1975 
Q 2488 2216 2034 2216 
z
M 1403 2484 
Q 997 2584 770 2862 
Q 544 3141 544 3541 
Q 544 4100 942 4425 
Q 1341 4750 2034 4750 
Q 2731 4750 3128 4425 
Q 3525 4100 3525 3541 
Q 3525 3141 3298 2862 
Q 3072 2584 2669 2484 
Q 3125 2378 3379 2068 
Q 3634 1759 3634 1313 
Q 3634 634 3220 271 
Q 2806 -91 2034 -91 
Q 1263 -91 848 271 
Q 434 634 434 1313 
Q 434 1759 690 2068 
Q 947 2378 1403 2484 
z
M 1172 3481 
Q 1172 3119 1398 2916 
Q 1625 2713 2034 2713 
Q 2441 2713 2670 2916 
Q 2900 3119 2900 3481 
Q 2900 3844 2670 4047 
Q 2441 4250 2034 4250 
Q 1625 4250 1398 4047 
Q 1172 3844 1172 3481 
z
" transform="scale(0.015625)"/>
       </defs>
       <use xlink:href="#DejaVuSans-38"/>
       <use xlink:href="#DejaVuSans-30" x="63.623047"/>
       <use xlink:href="#DejaVuSans-25" x="127.246094"/>
      </g>
     </g>
    </g>
    <g id="xtick_6">
     <g id="line2d_6">
      <g>
       <use xlink:href="#mea07dd9f16" x="313.182832" y="252" style="stroke: #000000; stroke-width: 0.8"/>
      </g>
     </g>
     <g id="text_6">
      <!-- 95% -->
      <g transform="translate(302.069551 266.598437)scale(0.1 -0.1)">
       <defs>
        <path id="DejaVuSans-39" d="M 703 97 
L 703 672 
Q 941 559 1184 500 
Q 1428 441 1663 441 
Q 2288 441 2617 861 
Q 2947 1281 2994 2138 
Q 2813 1869 2534 1725 
Q 2256 1581 1919 1581 
Q 1219 1581 811 2004 
Q 403 2428 403 3163 
Q 403 3881 828 4315 
Q 1253 4750 1959 4750 
Q 2769 4750 3195 4129 
Q 3622 3509 3622 2328 
Q 3622 1225 3098 567 
Q 2575 -91 1691 -91 
Q 1453 -91 1209 -44 
Q 966 3 703 97 
z
M 1959 2075 
Q 2384 2075 2632 2365 
Q 2881 2656 2881 3163 
Q 2881 3666 2632 3958 
Q 2384 4250 1959 4250 
Q 1534 4250 1286 3958 
Q 1038 3666 1038 3163 
Q 1038 2656 1286 2365 
Q 1534 2075 1959 2075 
z
" transform="scale(0.015625)"/>
       </defs>
       <use xlink:href="#DejaVuSans-39"/>
       <use xlink:href="#DejaVuSans-35" x="63.623047"/>
       <use xlink:href="#DejaVuSans-25" x="127.246094"/>
      </g>
     </g>
    </g>
    <g id="xtick_7">
     <g id="line2d_7">
      <g>
       <use xlink:href="#mea07dd9f16" x="351.210211" y="252" style="stroke: #000000; stroke-width: 0.8"/>
      </g>
     </g>
     <g id="text_7">
      <!-- 99% -->
      <g transform="translate(340.09693 266.598437)scale(0.1 -0.1)">
       <use xlink:href="#DejaVuSans-39"/>
       <use xlink:href="#DejaVuSans-39" x="63.623047"/>
       <use xlink:href="#DejaVuSans-25" x="127.246094"/>
      </g>
     </g>
    </g>
    <g id="text_8">
     <!-- FPR -->
     <g transform="translate(212.035156 280.276563)scale(0.1 -0.1)">
      <defs>
       <path id="DejaVuSans-46" d="M 628 4666 
L 3309 4666 
L 3309 4134 
L 1259 4134 
L 1259 2759 
L 3109 2759 
L 3109 2228 
L 1259 2228 
L 1259 0 
L 628 0 
L 628 4666 
z
" transform="scale(0.015625)"/>
       <path id="DejaVuSans-50" d="M 1259 4147 
L 1259 2394 
L 2053 2394 
Q 2494 2394 2734 2622 
Q 2975 2850 2975 3272 
Q 2975 3691 2734 3919 
Q 2494 4147 2053 4147 
L 1259 4147 
z
M 628 4666 
L 2053 4666 
Q 2838 4666 3239 4311 
Q 3641 3956 3641 3272 
Q 3641 2581 3239 2228 
Q 2838 1875 2053 1875 
L 1259 1875 
L 1259 0 
L 628 0 
L 628 4666 
z
" transform="scale(0.015625)"/>
       <path id="DejaVuSans-52" d="M 2841 2188 
Q 3044 2119 3236 1894 
Q 3428 1669 3622 1275 
L 4263 0 
L 3584 0 
L 2988 1197 
Q 2756 1666 2539 1819 
Q 2322 1972 1947 1972 
L 1259 1972 
L 1259 0 
L 628 0 
L 628 4666 
L 2053 4666 
Q 2853 4666 3247 4331 
Q 3641 3997 3641 3322 
Q 3641 2881 3436 2590 
Q 3231 2300 2841 2188 
z
M 1259 4147 
L 1259 2491 
L 2053 2491 
Q 2509 2491 2742 2702 
Q 2975 2913 2975 3322 
Q 2975 3731 2742 3939 
Q 2509 4147 2053 4147 
L 1259 4147 
z
" transform="scale(0.015625)"/>
      </defs>
      <use xlink:href="#DejaVuSans-46"/>
      <use xlink:href="#DejaVuSans-50" x="57.519531"/>
      <use xlink:href="#DejaVuSans-52" x="117.822266"/>
     </g>
    </g>
   </g>
   <g id="matplotlib.axis_2">
    <g id="ytick_1">
     <g id="line2d_8">
      <defs>
       <path id="mb50db2d1d4" d="M 0 0 
L -3.5 0 
" style="stroke: #000000; stroke-width: 0.8"/>
      </defs>
      <g>
       <use xlink:href="#mb50db2d1d4" x="54" y="227.586847" style="stroke: #000000; stroke-width: 0.8"/>
      </g>
     </g>
     <g id="text_9">
      <!-- 1% -->
      <g transform="translate(31.135937 231.386066)scale(0.1 -0.1)">
       <use xlink:href="#DejaVuSans-31"/>
       <use xlink:href="#DejaVuSans-25" x="63.623047"/>
      </g>
     </g>
    </g>
    <g id="ytick_2">
     <g id="line2d_9">
      <g>
       <use xlink:href="#mb50db2d1d4" x="54" y="202.889495" style="stroke: #000000; stroke-width: 0.8"/>
      </g>
     </g>
     <g id="text_10">
      <!-- 5% -->
      <g transform="translate(31.135937 206.688714)scale(0.1 -0.1)">
       <use xlink:href="#DejaVuSans-35"/>
       <use xlink:href="#DejaVuSans-25" x="63.623047"/>
      </g>
     </g>
    </g>
    <g id="ytick_3">
     <g id="line2d_10">
      <g>
       <use xlink:href="#mb50db2d1d4" x="54" y="173.780354" style="stroke: #000000; stroke-width: 0.8"/>
      </g>
     </g>
     <g id="text_11">
      <!-- 20% -->
      <g transform="translate(24.773438 177.579572)scale(0.1 -0.1)">
       <use xlink:href="#DejaVuSans-32"/>
       <use xlink:href="#DejaVuSans-30" x="63.623047"/>
       <use xlink:href="#DejaVuSans-25" x="127.246094"/>
      </g>
     </g>
    </g>
    <g id="ytick_4">
     <g id="line2d_11">
      <g>
       <use xlink:href="#mb50db2d1d4" x="54" y="143.28" style="stroke: #000000; stroke-width: 0.8"/>
      </g>
     </g>
     <g id="text_12">
      <!-- 50% -->
      <g transform="translate(24.773438 147.079219)scale(0.1 -0.1)">
       <use xlink:href="#DejaVuSans-35"/>
       <use xlink:href="#DejaVuSans-30" x="63.623047"/>
       <use xlink:href="#DejaVuSans-25" x="127.246094"/>
      </g>
     </g>
    </g>
    <g id="ytick_5">
     <g id="line2d_12">
      <g>
       <use xlink:href="#mb50db2d1d4" x="54" y="112.779646" style="stroke: #000000; stroke-width: 0.8"/>
      </g>
     </g>
     <g id="text_13">
      <!-- 80% -->
      <g transform="translate(24.773438 116.578865)scale(0.1 -0.1)">
       <use xlink:href="#DejaVuSans-38"/>
       <use xlink:href="#DejaVuSans-30" x="63.623047"/>
       <use xlink:href="#DejaVuSans-25" x="127.246094"/>
      </g>
     </g>
    </g>
    <g id="ytick_6">
     <g id="line2d_13">
      <g>
       <use xlink:href="#mb50db2d1d4" x="54" y="83.670505" style="stroke: #000000; stroke-width: 0.8"/>
      </g>
     </g>
     <g id="text_14">
      <!-- 95% -->
      <g transform="translate(24.773438 87.469723)scale(0.1 -0.1)">
       <use xlink:href="#DejaVuSans-39"/>
       <use xlink:href="#DejaVuSans-35" x="63.623047"/>
       <use xlink:href="#DejaVuSans-25" x="127.246094"/>
      </g>
     </g>
    </g>
    <g id="ytick_7">
     <g id="line2d_14">
      <g>
       <use xlink:href="#mb50db2d1d4" x="54" y="58.973153" style="stroke: #000000; stroke-width: 0.8"/>
      </g>
     </g>
     <g id="text_15">
      <!-- 99% -->
      <g transform="translate(24.773438 62.772372)scale(0.1 -0.1)">
       <use xlink:href="#DejaVuSans-39"/>
       <use xlink:href="#DejaVuSans-39" x="63.623047"/>
       <use xlink:href="#DejaVuSans-25" x="127.246094"/>
      </g>
     </g>
    </g>
    <g id="text_16">
     <!-- FNR -->
     <g transform="translate(18.69375 153.370625)rotate(-90)scale(0.1 -0.1)">
      <defs>
       <path id="DejaVuSans-4e" d="M 628 4666 
L 1478 4666 
L 3547 763 
L 3547 4666 
L 4159 4666 
L 4159 0 
L 3309 0 
L 1241 3903 
L 1241 0 
L 628 0 
L 628 4666 
z
" transform="scale(0.015625)"/>
      </defs>
      <use xlink:href="#DejaVuSans-46"/>
      <use xlink:href="#DejaVuSans-4e" x="57.519531"/>
      <use xlink:href="#DejaVuSans-52" x="132.324219"/>
     </g>
    </g>
   </g>
   <g id="line2d_15">
    <path d="M 189.866948 247.584581 
L 187.709922 247.584581 
L 184.983692 239.39101 
L 183.234994 239.39101 
L 181.085669 234.32011 
L 179.803915 229.010001 
L 178.311619 229.010001 
L 177.171876 226.282932 
L 176.980124 225.078364 
L 175.426735 221.924075 
L 174.437535 218.472736 
L 173.433351 217.707861 
L 172.413387 214.309095 
L 172.207426 213.699167 
L 170.534911 213.108557 
L 170.109603 211.980093 
L 169.249918 210.402998 
L 168.157579 208.943643 
L 167.492273 208.48004 
L 166.819214 208.48004 
L 165.90925 206.724863 
L 165.448689 205.499949 
L 164.280257 204.342253 
L 164.280257 203.243715 
L 164.043551 202.540881 
L 164.043551 202.540881 
L 162.356814 201.198519 
L 161.86488 200.241554 
L 160.614324 199.322736 
L 160.360528 197.866925 
L 159.849109 196.494229 
L 159.332468 195.965942 
L 158.81045 195.448621 
L 158.81045 195.193899 
L 158.282896 194.941716 
L 157.480818 194.69201 
L 156.938677 194.199793 
L 156.390382 193.716795 
L 155.274538 192.776794 
L 154.131605 192.319031 
L 153.841426 191.426265 
L 152.959731 190.561798 
L 152.662005 190.139479 
L 152.662005 189.930685 
L 152.060609 189.723429 
L 151.756868 188.909203 
L 151.451049 188.909203 
L 151.143114 188.709211 
L 151.143114 188.510594 
L 149.889423 188.313325 
L 149.570303 187.922741 
L 149.248816 187.922741 
L 148.598556 187.729379 
L 147.267505 187.156751 
L 145.892882 186.968291 
L 145.18805 186.225999 
L 143.740697 185.5013 
L 142.997007 185.145203 
L 142.239123 184.793103 
L 141.854643 184.272184 
L 141.466348 183.929557 
L 141.074144 183.929557 
L 140.277605 183.590526 
L 139.464184 183.254987 
L 137.350596 182.92284 
L 135.109032 182.758009 
L 133.694296 181.94582 
L 132.220823 181.626327 
L 130.153942 180.530855 
L 130.153942 180.530855 
L 129.071763 180.377124 
L 127.380305 180.377124 
L 125.59776 179.618271 
L 123.711717 179.319154 
L 121.00921 178.728166 
L 121.00921 178.29104 
L 120.295384 177.858949 
L 118.048364 177.149516 
L 115.620056 176.591182 
L 113.882519 176.314961 
L 112.973137 175.228725 
L 112.03401 175.094962 
L 106.800811 174.432533 
L 105.623106 173.780354 
L 100.308957 173.137905 
L 95.452188 172.129037 
L 93.597472 172.004502 
L 89.398509 171.264282 
L 89.398509 170.295092 
L 81.222347 169.462641 
L 73.414505 168.066735 
L 73.414505 166.931021 
L 60.798575 165.160438 
L 60.798575 163.75953 
" clip-path="url(#p49ab064621)" style="fill: none; stroke: #1f77b4; stroke-width: 1.5; stroke-linecap: square"/>
   </g>
   <g id="line2d_16">
    <path d="M 190.030898 255.270019 
L 187.877605 255.270019 
L 186.357264 255.270019 
L 184.983692 255.270019 
L 183.058074 255.270019 
L 181.988317 247.584581 
L 180.903874 242.859597 
L 179.619019 239.39101 
L 176.980124 234.32011 
L 175.622844 234.32011 
L 175.032805 230.579099 
L 174.037703 229.010001 
L 173.635424 226.282932 
L 173.230647 223.957915 
L 172.413387 221.924075 
L 170.74646 220.993441 
L 169.895828 220.993441 
L 169.249918 219.27265 
L 167.71489 215.593054 
L 167.044446 214.309095 
L 166.138119 212.535932 
L 164.984284 211.980093 
L 164.515939 210.402998 
L 164.043551 209.904474 
L 163.086227 209.418247 
L 162.356814 208.026868 
L 161.61717 207.5836 
L 161.368275 206.724863 
L 160.866869 206.308523 
L 160.360528 206.308523 
L 160.360528 205.90034 
L 158.547375 203.243715 
L 157.210505 202.540881 
L 156.665311 201.198519 
L 156.113866 200.241554 
L 155.274538 200.241554 
L 154.706569 199.624995 
L 154.131605 198.729649 
L 154.131605 198.151052 
L 153.255521 197.308526 
L 152.662005 196.762667 
L 151.451049 195.705946 
L 151.451049 195.193899 
L 149.889423 194.199793 
L 148.924916 193.242592 
L 147.604213 192.319031 
L 145.892882 191.207586 
L 144.470843 190.34984 
L 142.997007 189.723429 
L 141.466348 188.709211 
L 140.677931 188.709211 
L 139.050861 187.922741 
L 138.210383 187.537275 
L 136.913115 186.968291 
L 136.022229 186.968291 
L 134.643633 186.594874 
L 133.694296 186.225999 
L 133.694296 185.680887 
L 132.220823 185.322745 
L 130.153942 184.968662 
L 129.071763 184.100415 
L 124.981265 182.92284 
L 124.35277 182.92284 
L 124.35277 182.59399 
L 123.711717 182.268346 
L 122.389489 182.106698 
L 121.706974 181.626327 
L 119.564619 181.152601 
L 118.815959 180.530855 
L 118.048364 180.224057 
L 115.620056 179.919884 
L 114.764211 179.170512 
L 112.03401 178.581887 
L 110.057053 178.146459 
L 104.391449 177.149516 
L 101.741887 176.730021 
L 101.741887 176.177568 
L 100.308957 175.094962 
L 97.177383 174.564182 
L 93.597472 174.301295 
L 89.398509 174.040029 
L 86.982513 173.393748 
L 81.222347 173.01054 
L 81.222347 172.129037 
L 73.414505 170.415175 
L 68.073799 169.58071 
L 60.798575 168.876405 
L 48.965037 168.181638 
L 48.965037 166.931021 
L 48.965037 166.038938 
L 48.965037 165.051534 
L 48.965037 163.653051 
" clip-path="url(#p49ab064621)" style="fill: none; stroke: #ff7f0e; stroke-width: 1.5; stroke-linecap: square"/>
   </g>
   <g id="line2d_17">
    <path d="M 186.015889 255.270019 
L 183.938881 255.270019 
L 180.538988 255.270019 
L 177.933722 255.270019 
L 175.426735 255.270019 
L 174.437535 255.270019 
L 172.000793 255.270019 
L 169.249918 255.270019 
L 168.157579 255.270019 
L 166.819214 247.584581 
L 164.984284 247.584581 
L 162.844201 247.584581 
L 159.591451 242.859597 
L 158.282896 242.859597 
L 156.113866 242.859597 
L 153.255521 242.859597 
L 151.451049 239.39101 
L 148.269686 239.39101 
L 146.585869 239.39101 
L 145.541979 239.39101 
L 144.470843 239.39101 
L 141.854643 239.39101 
L 140.677931 234.32011 
L 139.050861 234.32011 
L 137.350596 232.331225 
L 136.470378 232.331225 
L 135.568504 232.331225 
L 134.643633 232.331225 
L 134.172121 229.010001 
L 132.71887 229.010001 
L 131.20285 229.010001 
L 128.517392 229.010001 
L 127.953699 229.010001 
L 127.380305 227.586847 
L 124.35277 226.282932 
L 122.389489 225.078364 
L 121.706974 225.078364 
L 120.295384 225.078364 
L 118.815959 225.078364 
L 116.451717 225.078364 
L 115.620056 225.078364 
L 115.620056 223.957915 
L 114.764211 221.924075 
L 112.03401 219.27265 
L 109.013733 219.27265 
L 106.800811 218.472736 
L 105.623106 218.472736 
L 105.623106 218.472736 
L 105.623106 217.707861 
L 104.391449 216.270651 
L 104.391449 214.309095 
L 100.308957 212.535932 
L 97.177383 211.980093 
L 95.452188 211.980093 
L 95.452188 211.43996 
L 95.452188 209.904474 
L 95.452188 208.943643 
L 95.452188 208.026868 
L 95.452188 207.5836 
L 93.597472 206.308523 
L 91.589789 204.342253 
L 89.398509 203.969856 
L 89.398509 203.603758 
L 89.398509 201.859654 
L 89.398509 200.875056 
L 89.398509 199.931225 
L 84.284703 199.624995 
L 84.284703 199.024327 
L 84.284703 198.438593 
L 84.284703 197.866925 
L 81.222347 196.762667 
L 81.222347 195.705946 
L 73.414505 194.941716 
L 73.414505 193.242592 
L 73.414505 192.54693 
L 73.414505 191.868962 
L 73.414505 190.775387 
L 73.414505 188.709211 
L 68.073799 187.537275 
L 68.073799 185.680887 
L 68.073799 184.272184 
L 68.073799 183.422327 
L 60.798575 181.309788 
L 60.798575 179.919884 
L 60.798575 178.728166 
L 48.965037 177.858949 
L 48.965037 177.149516 
L 48.965037 175.362926 
L 48.965037 173.780354 
L 48.965037 173.137905 
L 48.965037 171.509712 
L 48.965037 169.81769 
L 48.965037 167.609587 
L 48.965037 166.260648 
" clip-path="url(#p49ab064621)" style="fill: none; stroke: #2ca02c; stroke-width: 1.5; stroke-linecap: square"/>
   </g>
   <g id="line2d_18">
    <path d="M 60.798575 255.270019 
L 60.798575 255.270019 
L 60.798575 255.270019 
L 60.798575 255.270019 
L 60.798575 255.270019 
L 60.798575 255.270019 
L 60.798575 255.270019 
L 60.798575 255.270019 
L 48.965037 255.270019 
L 48.965037 255.270019 
L 48.965037 255.270019 
L 48.965037 255.270019 
L 48.965037 255.270019 
L 48.965037 255.270019 
L 48.965037 255.270019 
L 48.965037 255.270019 
L 48.965037 247.584581 
L 48.965037 247.584581 
L 48.965037 247.584581 
L 48.965037 247.584581 
L 48.965037 247.584581 
L 48.965037 247.584581 
L 48.965037 247.584581 
L 48.965037 247.584581 
" clip-path="url(#p49ab064621)" style="fill: none; stroke: #d62728; stroke-width: 1.5; stroke-linecap: square"/>
   </g>
   <g id="line2d_19">
    <path d="M 60.798575 255.270019 
L 60.798575 255.270019 
L 60.798575 255.270019 
L 60.798575 255.270019 
L 60.798575 255.270019 
L 60.798575 255.270019 
L 60.798575 255.270019 
L 60.798575 255.270019 
L 60.798575 255.270019 
L 60.798575 255.270019 
L 60.798575 255.270019 
L 60.798575 255.270019 
L 60.798575 255.270019 
L 60.798575 255.270019 
L 60.798575 255.270019 
L 60.798575 255.270019 
L 60.798575 255.270019 
L 60.798575 255.270019 
L 60.798575 255.270019 
L 60.798575 255.270019 
L 60.798575 255.270019 
L 48.965037 247.584581 
L 48.965037 247.584581 
L 48.965037 247.584581 
L 48.965037 247.584581 
L 48.965037 247.584581 
L 48.965037 247.584581 
L 48.965037 247.584581 
L 48.965037 247.584581 
L 48.965037 247.584581 
L 48.965037 247.584581 
L 48.965037 247.584581 
L 48.965037 247.584581 
L 48.965037 247.584581 
L 48.965037 247.584581 
L 48.965037 247.584581 
L 48.965037 247.584581 
L 48.965037 247.584581 
L 48.965037 247.584581 
L 48.965037 247.584581 
L 48.965037 247.584581 
L 48.965037 247.584581 
" clip-path="url(#p49ab064621)" style="fill: none; stroke: #9467bd; stroke-width: 1.5; stroke-linecap: square"/>
   </g>
   <g id="line2d_20">
    <path clip-path="url(#p49ab064621)" style="fill: none; stroke: #8c564b; stroke-width: 1.5; stroke-linecap: square"/>
   </g>
   <g id="line2d_21">
    <path clip-path="url(#p49ab064621)" style="fill: none; stroke: #e377c2; stroke-width: 1.5; stroke-linecap: square"/>
   </g>
   <g id="line2d_22">
    <path clip-path="url(#p49ab064621)" style="fill: none; stroke: #7f7f7f; stroke-width: 1.5; stroke-linecap: square"/>
   </g>
   <g id="line2d_23">
    <path clip-path="url(#p49ab064621)" style="fill: none; stroke: #bcbd22; stroke-width: 1.5; stroke-linecap: square"/>
   </g>
   <g id="patch_3">
    <path d="M 54 252 
L 54 34.56 
" style="fill: none; stroke: #000000; stroke-width: 0.8; stroke-linejoin: miter; stroke-linecap: square"/>
   </g>
   <g id="patch_4">
    <path d="M 388.8 252 
L 388.8 34.56 
" style="fill: none; stroke: #000000; stroke-width: 0.8; stroke-linejoin: miter; stroke-linecap: square"/>
   </g>
   <g id="patch_5">
    <path d="M 54 252 
L 388.8 252 
" style="fill: none; stroke: #000000; stroke-width: 0.8; stroke-linejoin: miter; stroke-linecap: square"/>
   </g>
   <g id="patch_6">
    <path d="M 54 34.56 
L 388.8 34.56 
" style="fill: none; stroke: #000000; stroke-width: 0.8; stroke-linejoin: miter; stroke-linecap: square"/>
   </g>
   <g id="text_17">
    <!-- DET Curves for Diagonal Covariances GMM with different K -->
    <g transform="translate(44.346563 28.56)scale(0.12 -0.12)">
     <defs>
      <path id="DejaVuSans-44" d="M 1259 4147 
L 1259 519 
L 2022 519 
Q 2988 519 3436 956 
Q 3884 1394 3884 2338 
Q 3884 3275 3436 3711 
Q 2988 4147 2022 4147 
L 1259 4147 
z
M 628 4666 
L 1925 4666 
Q 3281 4666 3915 4102 
Q 4550 3538 4550 2338 
Q 4550 1131 3912 565 
Q 3275 0 1925 0 
L 628 0 
L 628 4666 
z
" transform="scale(0.015625)"/>
      <path id="DejaVuSans-45" d="M 628 4666 
L 3578 4666 
L 3578 4134 
L 1259 4134 
L 1259 2753 
L 3481 2753 
L 3481 2222 
L 1259 2222 
L 1259 531 
L 3634 531 
L 3634 0 
L 628 0 
L 628 4666 
z
" transform="scale(0.015625)"/>
      <path id="DejaVuSans-54" d="M -19 4666 
L 3928 4666 
L 3928 4134 
L 2272 4134 
L 2272 0 
L 1638 0 
L 1638 4134 
L -19 4134 
L -19 4666 
z
" transform="scale(0.015625)"/>
      <path id="DejaVuSans-20" transform="scale(0.015625)"/>
      <path id="DejaVuSans-43" d="M 4122 4306 
L 4122 3641 
Q 3803 3938 3442 4084 
Q 3081 4231 2675 4231 
Q 1875 4231 1450 3742 
Q 1025 3253 1025 2328 
Q 1025 1406 1450 917 
Q 1875 428 2675 428 
Q 3081 428 3442 575 
Q 3803 722 4122 1019 
L 4122 359 
Q 3791 134 3420 21 
Q 3050 -91 2638 -91 
Q 1578 -91 968 557 
Q 359 1206 359 2328 
Q 359 3453 968 4101 
Q 1578 4750 2638 4750 
Q 3056 4750 3426 4639 
Q 3797 4528 4122 4306 
z
" transform="scale(0.015625)"/>
      <path id="DejaVuSans-75" d="M 544 1381 
L 544 3500 
L 1119 3500 
L 1119 1403 
Q 1119 906 1312 657 
Q 1506 409 1894 409 
Q 2359 409 2629 706 
Q 2900 1003 2900 1516 
L 2900 3500 
L 3475 3500 
L 3475 0 
L 2900 0 
L 2900 538 
Q 2691 219 2414 64 
Q 2138 -91 1772 -91 
Q 1169 -91 856 284 
Q 544 659 544 1381 
z
M 1991 3584 
L 1991 3584 
z
" transform="scale(0.015625)"/>
      <path id="DejaVuSans-72" d="M 2631 2963 
Q 2534 3019 2420 3045 
Q 2306 3072 2169 3072 
Q 1681 3072 1420 2755 
Q 1159 2438 1159 1844 
L 1159 0 
L 581 0 
L 581 3500 
L 1159 3500 
L 1159 2956 
Q 1341 3275 1631 3429 
Q 1922 3584 2338 3584 
Q 2397 3584 2469 3576 
Q 2541 3569 2628 3553 
L 2631 2963 
z
" transform="scale(0.015625)"/>
      <path id="DejaVuSans-76" d="M 191 3500 
L 800 3500 
L 1894 563 
L 2988 3500 
L 3597 3500 
L 2284 0 
L 1503 0 
L 191 3500 
z
" transform="scale(0.015625)"/>
      <path id="DejaVuSans-65" d="M 3597 1894 
L 3597 1613 
L 953 1613 
Q 991 1019 1311 708 
Q 1631 397 2203 397 
Q 2534 397 2845 478 
Q 3156 559 3463 722 
L 3463 178 
Q 3153 47 2828 -22 
Q 2503 -91 2169 -91 
Q 1331 -91 842 396 
Q 353 884 353 1716 
Q 353 2575 817 3079 
Q 1281 3584 2069 3584 
Q 2775 3584 3186 3129 
Q 3597 2675 3597 1894 
z
M 3022 2063 
Q 3016 2534 2758 2815 
Q 2500 3097 2075 3097 
Q 1594 3097 1305 2825 
Q 1016 2553 972 2059 
L 3022 2063 
z
" transform="scale(0.015625)"/>
      <path id="DejaVuSans-73" d="M 2834 3397 
L 2834 2853 
Q 2591 2978 2328 3040 
Q 2066 3103 1784 3103 
Q 1356 3103 1142 2972 
Q 928 2841 928 2578 
Q 928 2378 1081 2264 
Q 1234 2150 1697 2047 
L 1894 2003 
Q 2506 1872 2764 1633 
Q 3022 1394 3022 966 
Q 3022 478 2636 193 
Q 2250 -91 1575 -91 
Q 1294 -91 989 -36 
Q 684 19 347 128 
L 347 722 
Q 666 556 975 473 
Q 1284 391 1588 391 
Q 1994 391 2212 530 
Q 2431 669 2431 922 
Q 2431 1156 2273 1281 
Q 2116 1406 1581 1522 
L 1381 1569 
Q 847 1681 609 1914 
Q 372 2147 372 2553 
Q 372 3047 722 3315 
Q 1072 3584 1716 3584 
Q 2034 3584 2315 3537 
Q 2597 3491 2834 3397 
z
" transform="scale(0.015625)"/>
      <path id="DejaVuSans-66" d="M 2375 4863 
L 2375 4384 
L 1825 4384 
Q 1516 4384 1395 4259 
Q 1275 4134 1275 3809 
L 1275 3500 
L 2222 3500 
L 2222 3053 
L 1275 3053 
L 1275 0 
L 697 0 
L 697 3053 
L 147 3053 
L 147 3500 
L 697 3500 
L 697 3744 
Q 697 4328 969 4595 
Q 1241 4863 1831 4863 
L 2375 4863 
z
" transform="scale(0.015625)"/>
      <path id="DejaVuSans-6f" d="M 1959 3097 
Q 1497 3097 1228 2736 
Q 959 2375 959 1747 
Q 959 1119 1226 758 
Q 1494 397 1959 397 
Q 2419 397 2687 759 
Q 2956 1122 2956 1747 
Q 2956 2369 2687 2733 
Q 2419 3097 1959 3097 
z
M 1959 3584 
Q 2709 3584 3137 3096 
Q 3566 2609 3566 1747 
Q 3566 888 3137 398 
Q 2709 -91 1959 -91 
Q 1206 -91 779 398 
Q 353 888 353 1747 
Q 353 2609 779 3096 
Q 1206 3584 1959 3584 
z
" transform="scale(0.015625)"/>
      <path id="DejaVuSans-69" d="M 603 3500 
L 1178 3500 
L 1178 0 
L 603 0 
L 603 3500 
z
M 603 4863 
L 1178 4863 
L 1178 4134 
L 603 4134 
L 603 4863 
z
" transform="scale(0.015625)"/>
      <path id="DejaVuSans-61" d="M 2194 1759 
Q 1497 1759 1228 1600 
Q 959 1441 959 1056 
Q 959 750 1161 570 
Q 1363 391 1709 391 
Q 2188 391 2477 730 
Q 2766 1069 2766 1631 
L 2766 1759 
L 2194 1759 
z
M 3341 1997 
L 3341 0 
L 2766 0 
L 2766 531 
Q 2569 213 2275 61 
Q 1981 -91 1556 -91 
Q 1019 -91 701 211 
Q 384 513 384 1019 
Q 384 1609 779 1909 
Q 1175 2209 1959 2209 
L 2766 2209 
L 2766 2266 
Q 2766 2663 2505 2880 
Q 2244 3097 1772 3097 
Q 1472 3097 1187 3025 
Q 903 2953 641 2809 
L 641 3341 
Q 956 3463 1253 3523 
Q 1550 3584 1831 3584 
Q 2591 3584 2966 3190 
Q 3341 2797 3341 1997 
z
" transform="scale(0.015625)"/>
      <path id="DejaVuSans-67" d="M 2906 1791 
Q 2906 2416 2648 2759 
Q 2391 3103 1925 3103 
Q 1463 3103 1205 2759 
Q 947 2416 947 1791 
Q 947 1169 1205 825 
Q 1463 481 1925 481 
Q 2391 481 2648 825 
Q 2906 1169 2906 1791 
z
M 3481 434 
Q 3481 -459 3084 -895 
Q 2688 -1331 1869 -1331 
Q 1566 -1331 1297 -1286 
Q 1028 -1241 775 -1147 
L 775 -588 
Q 1028 -725 1275 -790 
Q 1522 -856 1778 -856 
Q 2344 -856 2625 -561 
Q 2906 -266 2906 331 
L 2906 616 
Q 2728 306 2450 153 
Q 2172 0 1784 0 
Q 1141 0 747 490 
Q 353 981 353 1791 
Q 353 2603 747 3093 
Q 1141 3584 1784 3584 
Q 2172 3584 2450 3431 
Q 2728 3278 2906 2969 
L 2906 3500 
L 3481 3500 
L 3481 434 
z
" transform="scale(0.015625)"/>
      <path id="DejaVuSans-6e" d="M 3513 2113 
L 3513 0 
L 2938 0 
L 2938 2094 
Q 2938 2591 2744 2837 
Q 2550 3084 2163 3084 
Q 1697 3084 1428 2787 
Q 1159 2491 1159 1978 
L 1159 0 
L 581 0 
L 581 3500 
L 1159 3500 
L 1159 2956 
Q 1366 3272 1645 3428 
Q 1925 3584 2291 3584 
Q 2894 3584 3203 3211 
Q 3513 2838 3513 2113 
z
" transform="scale(0.015625)"/>
      <path id="DejaVuSans-6c" d="M 603 4863 
L 1178 4863 
L 1178 0 
L 603 0 
L 603 4863 
z
" transform="scale(0.015625)"/>
      <path id="DejaVuSans-63" d="M 3122 3366 
L 3122 2828 
Q 2878 2963 2633 3030 
Q 2388 3097 2138 3097 
Q 1578 3097 1268 2742 
Q 959 2388 959 1747 
Q 959 1106 1268 751 
Q 1578 397 2138 397 
Q 2388 397 2633 464 
Q 2878 531 3122 666 
L 3122 134 
Q 2881 22 2623 -34 
Q 2366 -91 2075 -91 
Q 1284 -91 818 406 
Q 353 903 353 1747 
Q 353 2603 823 3093 
Q 1294 3584 2113 3584 
Q 2378 3584 2631 3529 
Q 2884 3475 3122 3366 
z
" transform="scale(0.015625)"/>
      <path id="DejaVuSans-47" d="M 3809 666 
L 3809 1919 
L 2778 1919 
L 2778 2438 
L 4434 2438 
L 4434 434 
Q 4069 175 3628 42 
Q 3188 -91 2688 -91 
Q 1594 -91 976 548 
Q 359 1188 359 2328 
Q 359 3472 976 4111 
Q 1594 4750 2688 4750 
Q 3144 4750 3555 4637 
Q 3966 4525 4313 4306 
L 4313 3634 
Q 3963 3931 3569 4081 
Q 3175 4231 2741 4231 
Q 1884 4231 1454 3753 
Q 1025 3275 1025 2328 
Q 1025 1384 1454 906 
Q 1884 428 2741 428 
Q 3075 428 3337 486 
Q 3600 544 3809 666 
z
" transform="scale(0.015625)"/>
      <path id="DejaVuSans-4d" d="M 628 4666 
L 1569 4666 
L 2759 1491 
L 3956 4666 
L 4897 4666 
L 4897 0 
L 4281 0 
L 4281 4097 
L 3078 897 
L 2444 897 
L 1241 4097 
L 1241 0 
L 628 0 
L 628 4666 
z
" transform="scale(0.015625)"/>
      <path id="DejaVuSans-77" d="M 269 3500 
L 844 3500 
L 1563 769 
L 2278 3500 
L 2956 3500 
L 3675 769 
L 4391 3500 
L 4966 3500 
L 4050 0 
L 3372 0 
L 2619 2869 
L 1863 0 
L 1184 0 
L 269 3500 
z
" transform="scale(0.015625)"/>
      <path id="DejaVuSans-74" d="M 1172 4494 
L 1172 3500 
L 2356 3500 
L 2356 3053 
L 1172 3053 
L 1172 1153 
Q 1172 725 1289 603 
Q 1406 481 1766 481 
L 2356 481 
L 2356 0 
L 1766 0 
Q 1100 0 847 248 
Q 594 497 594 1153 
L 594 3053 
L 172 3053 
L 172 3500 
L 594 3500 
L 594 4494 
L 1172 4494 
z
" transform="scale(0.015625)"/>
      <path id="DejaVuSans-68" d="M 3513 2113 
L 3513 0 
L 2938 0 
L 2938 2094 
Q 2938 2591 2744 2837 
Q 2550 3084 2163 3084 
Q 1697 3084 1428 2787 
Q 1159 2491 1159 1978 
L 1159 0 
L 581 0 
L 581 4863 
L 1159 4863 
L 1159 2956 
Q 1366 3272 1645 3428 
Q 1925 3584 2291 3584 
Q 2894 3584 3203 3211 
Q 3513 2838 3513 2113 
z
" transform="scale(0.015625)"/>
      <path id="DejaVuSans-64" d="M 2906 2969 
L 2906 4863 
L 3481 4863 
L 3481 0 
L 2906 0 
L 2906 525 
Q 2725 213 2448 61 
Q 2172 -91 1784 -91 
Q 1150 -91 751 415 
Q 353 922 353 1747 
Q 353 2572 751 3078 
Q 1150 3584 1784 3584 
Q 2172 3584 2448 3432 
Q 2725 3281 2906 2969 
z
M 947 1747 
Q 947 1113 1208 752 
Q 1469 391 1925 391 
Q 2381 391 2643 752 
Q 2906 1113 2906 1747 
Q 2906 2381 2643 2742 
Q 2381 3103 1925 3103 
Q 1469 3103 1208 2742 
Q 947 2381 947 1747 
z
" transform="scale(0.015625)"/>
      <path id="DejaVuSans-4b" d="M 628 4666 
L 1259 4666 
L 1259 2694 
L 3353 4666 
L 4166 4666 
L 1850 2491 
L 4331 0 
L 3500 0 
L 1259 2247 
L 1259 0 
L 628 0 
L 628 4666 
z
" transform="scale(0.015625)"/>
     </defs>
     <use xlink:href="#DejaVuSans-44"/>
     <use xlink:href="#DejaVuSans-45" x="77.001953"/>
     <use xlink:href="#DejaVuSans-54" x="140.185547"/>
     <use xlink:href="#DejaVuSans-20" x="201.269531"/>
     <use xlink:href="#DejaVuSans-43" x="233.056641"/>
     <use xlink:href="#DejaVuSans-75" x="302.880859"/>
     <use xlink:href="#DejaVuSans-72" x="366.259766"/>
     <use xlink:href="#DejaVuSans-76" x="407.373047"/>
     <use xlink:href="#DejaVuSans-65" x="466.552734"/>
     <use xlink:href="#DejaVuSans-73" x="528.076172"/>
     <use xlink:href="#DejaVuSans-20" x="580.175781"/>
     <use xlink:href="#DejaVuSans-66" x="611.962891"/>
     <use xlink:href="#DejaVuSans-6f" x="647.167969"/>
     <use xlink:href="#DejaVuSans-72" x="708.349609"/>
     <use xlink:href="#DejaVuSans-20" x="749.462891"/>
     <use xlink:href="#DejaVuSans-44" x="781.25"/>
     <use xlink:href="#DejaVuSans-69" x="858.251953"/>
     <use xlink:href="#DejaVuSans-61" x="886.035156"/>
     <use xlink:href="#DejaVuSans-67" x="947.314453"/>
     <use xlink:href="#DejaVuSans-6f" x="1010.791016"/>
     <use xlink:href="#DejaVuSans-6e" x="1071.972656"/>
     <use xlink:href="#DejaVuSans-61" x="1135.351562"/>
     <use xlink:href="#DejaVuSans-6c" x="1196.630859"/>
     <use xlink:href="#DejaVuSans-20" x="1224.414062"/>
     <use xlink:href="#DejaVuSans-43" x="1256.201172"/>
     <use xlink:href="#DejaVuSans-6f" x="1326.025391"/>
     <use xlink:href="#DejaVuSans-76" x="1387.207031"/>
     <use xlink:href="#DejaVuSans-61" x="1446.386719"/>
     <use xlink:href="#DejaVuSans-72" x="1507.666016"/>
     <use xlink:href="#DejaVuSans-69" x="1548.779297"/>
     <use xlink:href="#DejaVuSans-61" x="1576.5625"/>
     <use xlink:href="#DejaVuSans-6e" x="1637.841797"/>
     <use xlink:href="#DejaVuSans-63" x="1701.220703"/>
     <use xlink:href="#DejaVuSans-65" x="1756.201172"/>
     <use xlink:href="#DejaVuSans-73" x="1817.724609"/>
     <use xlink:href="#DejaVuSans-20" x="1869.824219"/>
     <use xlink:href="#DejaVuSans-47" x="1901.611328"/>
     <use xlink:href="#DejaVuSans-4d" x="1979.101562"/>
     <use xlink:href="#DejaVuSans-4d" x="2065.380859"/>
     <use xlink:href="#DejaVuSans-20" x="2151.660156"/>
     <use xlink:href="#DejaVuSans-77" x="2183.447266"/>
     <use xlink:href="#DejaVuSans-69" x="2265.234375"/>
     <use xlink:href="#DejaVuSans-74" x="2293.017578"/>
     <use xlink:href="#DejaVuSans-68" x="2332.226562"/>
     <use xlink:href="#DejaVuSans-20" x="2395.605469"/>
     <use xlink:href="#DejaVuSans-64" x="2427.392578"/>
     <use xlink:href="#DejaVuSans-69" x="2490.869141"/>
     <use xlink:href="#DejaVuSans-66" x="2518.652344"/>
     <use xlink:href="#DejaVuSans-66" x="2553.857422"/>
     <use xlink:href="#DejaVuSans-65" x="2589.0625"/>
     <use xlink:href="#DejaVuSans-72" x="2650.585938"/>
     <use xlink:href="#DejaVuSans-65" x="2689.449219"/>
     <use xlink:href="#DejaVuSans-6e" x="2750.972656"/>
     <use xlink:href="#DejaVuSans-74" x="2814.351562"/>
     <use xlink:href="#DejaVuSans-20" x="2853.560547"/>
     <use xlink:href="#DejaVuSans-4b" x="2885.347656"/>
    </g>
   </g>
   <g id="legend_1">
    <g id="patch_7">
     <path d="M 315.78125 247 
L 381.8 247 
Q 383.8 247 383.8 245 
L 383.8 113.896875 
Q 383.8 111.896875 381.8 111.896875 
L 315.78125 111.896875 
Q 313.78125 111.896875 313.78125 113.896875 
L 313.78125 245 
Q 313.78125 247 315.78125 247 
z
" style="fill: #ffffff; opacity: 0.8; stroke: #cccccc; stroke-linejoin: miter"/>
    </g>
    <g id="line2d_24">
     <path d="M 317.78125 119.995313 
L 327.78125 119.995313 
L 337.78125 119.995313 
" style="fill: none; stroke: #1f77b4; stroke-width: 1.5; stroke-linecap: square"/>
    </g>
    <g id="text_18">
     <!-- K = 2 -->
     <g transform="translate(345.78125 123.495313)scale(0.1 -0.1)">
      <defs>
       <path id="DejaVuSans-3d" d="M 678 2906 
L 4684 2906 
L 4684 2381 
L 678 2381 
L 678 2906 
z
M 678 1631 
L 4684 1631 
L 4684 1100 
L 678 1100 
L 678 1631 
z
" transform="scale(0.015625)"/>
      </defs>
      <use xlink:href="#DejaVuSans-4b"/>
      <use xlink:href="#DejaVuSans-20" x="65.576172"/>
      <use xlink:href="#DejaVuSans-3d" x="97.363281"/>
      <use xlink:href="#DejaVuSans-20" x="181.152344"/>
      <use xlink:href="#DejaVuSans-32" x="212.939453"/>
     </g>
    </g>
    <g id="line2d_25">
     <path d="M 317.78125 134.673438 
L 327.78125 134.673438 
L 337.78125 134.673438 
" style="fill: none; stroke: #ff7f0e; stroke-width: 1.5; stroke-linecap: square"/>
    </g>
    <g id="text_19">
     <!-- K = 3 -->
     <g transform="translate(345.78125 138.173438)scale(0.1 -0.1)">
      <defs>
       <path id="DejaVuSans-33" d="M 2597 2516 
Q 3050 2419 3304 2112 
Q 3559 1806 3559 1356 
Q 3559 666 3084 287 
Q 2609 -91 1734 -91 
Q 1441 -91 1130 -33 
Q 819 25 488 141 
L 488 750 
Q 750 597 1062 519 
Q 1375 441 1716 441 
Q 2309 441 2620 675 
Q 2931 909 2931 1356 
Q 2931 1769 2642 2001 
Q 2353 2234 1838 2234 
L 1294 2234 
L 1294 2753 
L 1863 2753 
Q 2328 2753 2575 2939 
Q 2822 3125 2822 3475 
Q 2822 3834 2567 4026 
Q 2313 4219 1838 4219 
Q 1578 4219 1281 4162 
Q 984 4106 628 3988 
L 628 4550 
Q 988 4650 1302 4700 
Q 1616 4750 1894 4750 
Q 2613 4750 3031 4423 
Q 3450 4097 3450 3541 
Q 3450 3153 3228 2886 
Q 3006 2619 2597 2516 
z
" transform="scale(0.015625)"/>
      </defs>
      <use xlink:href="#DejaVuSans-4b"/>
      <use xlink:href="#DejaVuSans-20" x="65.576172"/>
      <use xlink:href="#DejaVuSans-3d" x="97.363281"/>
      <use xlink:href="#DejaVuSans-20" x="181.152344"/>
      <use xlink:href="#DejaVuSans-33" x="212.939453"/>
     </g>
    </g>
    <g id="line2d_26">
     <path d="M 317.78125 149.351562 
L 327.78125 149.351562 
L 337.78125 149.351562 
" style="fill: none; stroke: #2ca02c; stroke-width: 1.5; stroke-linecap: square"/>
    </g>
    <g id="text_20">
     <!-- K = 4 -->
     <g transform="translate(345.78125 152.851562)scale(0.1 -0.1)">
      <defs>
       <path id="DejaVuSans-34" d="M 2419 4116 
L 825 1625 
L 2419 1625 
L 2419 4116 
z
M 2253 4666 
L 3047 4666 
L 3047 1625 
L 3713 1625 
L 3713 1100 
L 3047 1100 
L 3047 0 
L 2419 0 
L 2419 1100 
L 313 1100 
L 313 1709 
L 2253 4666 
z
" transform="scale(0.015625)"/>
      </defs>
      <use xlink:href="#DejaVuSans-4b"/>
      <use xlink:href="#DejaVuSans-20" x="65.576172"/>
      <use xlink:href="#DejaVuSans-3d" x="97.363281"/>
      <use xlink:href="#DejaVuSans-20" x="181.152344"/>
      <use xlink:href="#DejaVuSans-34" x="212.939453"/>
     </g>
    </g>
    <g id="line2d_27">
     <path d="M 317.78125 164.029688 
L 327.78125 164.029688 
L 337.78125 164.029688 
" style="fill: none; stroke: #d62728; stroke-width: 1.5; stroke-linecap: square"/>
    </g>
    <g id="text_21">
     <!-- K = 5 -->
     <g transform="translate(345.78125 167.529688)scale(0.1 -0.1)">
      <use xlink:href="#DejaVuSans-4b"/>
      <use xlink:href="#DejaVuSans-20" x="65.576172"/>
      <use xlink:href="#DejaVuSans-3d" x="97.363281"/>
      <use xlink:href="#DejaVuSans-20" x="181.152344"/>
      <use xlink:href="#DejaVuSans-35" x="212.939453"/>
     </g>
    </g>
    <g id="line2d_28">
     <path d="M 317.78125 178.707813 
L 327.78125 178.707813 
L 337.78125 178.707813 
" style="fill: none; stroke: #9467bd; stroke-width: 1.5; stroke-linecap: square"/>
    </g>
    <g id="text_22">
     <!-- K = 6 -->
     <g transform="translate(345.78125 182.207813)scale(0.1 -0.1)">
      <defs>
       <path id="DejaVuSans-36" d="M 2113 2584 
Q 1688 2584 1439 2293 
Q 1191 2003 1191 1497 
Q 1191 994 1439 701 
Q 1688 409 2113 409 
Q 2538 409 2786 701 
Q 3034 994 3034 1497 
Q 3034 2003 2786 2293 
Q 2538 2584 2113 2584 
z
M 3366 4563 
L 3366 3988 
Q 3128 4100 2886 4159 
Q 2644 4219 2406 4219 
Q 1781 4219 1451 3797 
Q 1122 3375 1075 2522 
Q 1259 2794 1537 2939 
Q 1816 3084 2150 3084 
Q 2853 3084 3261 2657 
Q 3669 2231 3669 1497 
Q 3669 778 3244 343 
Q 2819 -91 2113 -91 
Q 1303 -91 875 529 
Q 447 1150 447 2328 
Q 447 3434 972 4092 
Q 1497 4750 2381 4750 
Q 2619 4750 2861 4703 
Q 3103 4656 3366 4563 
z
" transform="scale(0.015625)"/>
      </defs>
      <use xlink:href="#DejaVuSans-4b"/>
      <use xlink:href="#DejaVuSans-20" x="65.576172"/>
      <use xlink:href="#DejaVuSans-3d" x="97.363281"/>
      <use xlink:href="#DejaVuSans-20" x="181.152344"/>
      <use xlink:href="#DejaVuSans-36" x="212.939453"/>
     </g>
    </g>
    <g id="line2d_29">
     <path d="M 317.78125 193.385938 
L 327.78125 193.385938 
L 337.78125 193.385938 
" style="fill: none; stroke: #8c564b; stroke-width: 1.5; stroke-linecap: square"/>
    </g>
    <g id="text_23">
     <!-- K = 11 -->
     <g transform="translate(345.78125 196.885938)scale(0.1 -0.1)">
      <use xlink:href="#DejaVuSans-4b"/>
      <use xlink:href="#DejaVuSans-20" x="65.576172"/>
      <use xlink:href="#DejaVuSans-3d" x="97.363281"/>
      <use xlink:href="#DejaVuSans-20" x="181.152344"/>
      <use xlink:href="#DejaVuSans-31" x="212.939453"/>
      <use xlink:href="#DejaVuSans-31" x="276.5625"/>
     </g>
    </g>
    <g id="line2d_30">
     <path d="M 317.78125 208.064063 
L 327.78125 208.064063 
L 337.78125 208.064063 
" style="fill: none; stroke: #e377c2; stroke-width: 1.5; stroke-linecap: square"/>
    </g>
    <g id="text_24">
     <!-- K = 16 -->
     <g transform="translate(345.78125 211.564063)scale(0.1 -0.1)">
      <use xlink:href="#DejaVuSans-4b"/>
      <use xlink:href="#DejaVuSans-20" x="65.576172"/>
      <use xlink:href="#DejaVuSans-3d" x="97.363281"/>
      <use xlink:href="#DejaVuSans-20" x="181.152344"/>
      <use xlink:href="#DejaVuSans-31" x="212.939453"/>
      <use xlink:href="#DejaVuSans-36" x="276.5625"/>
     </g>
    </g>
    <g id="line2d_31">
     <path d="M 317.78125 222.742188 
L 327.78125 222.742188 
L 337.78125 222.742188 
" style="fill: none; stroke: #7f7f7f; stroke-width: 1.5; stroke-linecap: square"/>
    </g>
    <g id="text_25">
     <!-- K = 20 -->
     <g transform="translate(345.78125 226.242188)scale(0.1 -0.1)">
      <use xlink:href="#DejaVuSans-4b"/>
      <use xlink:href="#DejaVuSans-20" x="65.576172"/>
      <use xlink:href="#DejaVuSans-3d" x="97.363281"/>
      <use xlink:href="#DejaVuSans-20" x="181.152344"/>
      <use xlink:href="#DejaVuSans-32" x="212.939453"/>
      <use xlink:href="#DejaVuSans-30" x="276.5625"/>
     </g>
    </g>
    <g id="line2d_32">
     <path d="M 317.78125 237.420312 
L 327.78125 237.420312 
L 337.78125 237.420312 
" style="fill: none; stroke: #bcbd22; stroke-width: 1.5; stroke-linecap: square"/>
    </g>
    <g id="text_26">
     <!-- K = 25 -->
     <g transform="translate(345.78125 240.920312)scale(0.1 -0.1)">
      <use xlink:href="#DejaVuSans-4b"/>
      <use xlink:href="#DejaVuSans-20" x="65.576172"/>
      <use xlink:href="#DejaVuSans-3d" x="97.363281"/>
      <use xlink:href="#DejaVuSans-20" x="181.152344"/>
      <use xlink:href="#DejaVuSans-32" x="212.939453"/>
      <use xlink:href="#DejaVuSans-35" x="276.5625"/>
     </g>
    </g>
   </g>
  </g>
 </g>
 <defs>
  <clipPath id="p49ab064621">
   <rect x="54" y="34.56" width="334.8" height="217.44"/>
  </clipPath>
 </defs>
</svg>
