<?xml version="1.0" encoding="utf-8" standalone="no"?>
<!DOCTYPE svg PUBLIC "-//W3C//DTD SVG 1.1//EN"
  "http://www.w3.org/Graphics/SVG/1.1/DTD/svg11.dtd">
<svg xmlns:xlink="http://www.w3.org/1999/xlink" width="432pt" height="288pt" viewBox="0 0 432 288" xmlns="http://www.w3.org/2000/svg" version="1.1">
 <metadata>
  <rdf:RDF xmlns:dc="http://purl.org/dc/elements/1.1/" xmlns:cc="http://creativecommons.org/ns#" xmlns:rdf="http://www.w3.org/1999/02/22-rdf-syntax-ns#">
   <cc:Work>
    <dc:type rdf:resource="http://purl.org/dc/dcmitype/StillImage"/>
    <dc:date>2022-04-03T19:09:57.102593</dc:date>
    <dc:format>image/svg+xml</dc:format>
    <dc:creator>
     <cc:Agent>
      <dc:title>Matplotlib v3.5.1, https://matplotlib.org/</dc:title>
     </cc:Agent>
    </dc:creator>
   </cc:Work>
  </rdf:RDF>
 </metadata>
 <defs>
  <style type="text/css">*{stroke-linejoin: round; stroke-linecap: butt}</style>
 </defs>
 <g id="figure_1">
  <g id="patch_1">
   <path d="M 0 288 
L 432 288 
L 432 0 
L 0 0 
L 0 288 
z
" style="fill: none"/>
  </g>
  <g id="axes_1">
   <g id="patch_2">
    <path d="M 54 252 
L 388.8 252 
L 388.8 34.56 
L 54 34.56 
z
" style="fill: #ffffff"/>
   </g>
   <g id="matplotlib.axis_1">
    <g id="xtick_1">
     <g id="line2d_1">
      <defs>
       <path id="mefdf867752" d="M 0 0 
L 0 3.5 
" style="stroke: #000000; stroke-width: 0.8"/>
      </defs>
      <g>
       <use xlink:href="#mefdf867752" x="69.218182" y="252" style="stroke: #000000; stroke-width: 0.8"/>
      </g>
     </g>
     <g id="text_1">
      <!-- 0.0 -->
      <g transform="translate(61.266619 266.598437)scale(0.1 -0.1)">
       <defs>
        <path id="DejaVuSans-30" d="M 2034 4250 
Q 1547 4250 1301 3770 
Q 1056 3291 1056 2328 
Q 1056 1369 1301 889 
Q 1547 409 2034 409 
Q 2525 409 2770 889 
Q 3016 1369 3016 2328 
Q 3016 3291 2770 3770 
Q 2525 4250 2034 4250 
z
M 2034 4750 
Q 2819 4750 3233 4129 
Q 3647 3509 3647 2328 
Q 3647 1150 3233 529 
Q 2819 -91 2034 -91 
Q 1250 -91 836 529 
Q 422 1150 422 2328 
Q 422 3509 836 4129 
Q 1250 4750 2034 4750 
z
" transform="scale(0.015625)"/>
        <path id="DejaVuSans-2e" d="M 684 794 
L 1344 794 
L 1344 0 
L 684 0 
L 684 794 
z
" transform="scale(0.015625)"/>
       </defs>
       <use xlink:href="#DejaVuSans-30"/>
       <use xlink:href="#DejaVuSans-2e" x="63.623047"/>
       <use xlink:href="#DejaVuSans-30" x="95.410156"/>
      </g>
     </g>
    </g>
    <g id="xtick_2">
     <g id="line2d_2">
      <g>
       <use xlink:href="#mefdf867752" x="130.090909" y="252" style="stroke: #000000; stroke-width: 0.8"/>
      </g>
     </g>
     <g id="text_2">
      <!-- 0.2 -->
      <g transform="translate(122.139347 266.598437)scale(0.1 -0.1)">
       <defs>
        <path id="DejaVuSans-32" d="M 1228 531 
L 3431 531 
L 3431 0 
L 469 0 
L 469 531 
Q 828 903 1448 1529 
Q 2069 2156 2228 2338 
Q 2531 2678 2651 2914 
Q 2772 3150 2772 3378 
Q 2772 3750 2511 3984 
Q 2250 4219 1831 4219 
Q 1534 4219 1204 4116 
Q 875 4013 500 3803 
L 500 4441 
Q 881 4594 1212 4672 
Q 1544 4750 1819 4750 
Q 2544 4750 2975 4387 
Q 3406 4025 3406 3419 
Q 3406 3131 3298 2873 
Q 3191 2616 2906 2266 
Q 2828 2175 2409 1742 
Q 1991 1309 1228 531 
z
" transform="scale(0.015625)"/>
       </defs>
       <use xlink:href="#DejaVuSans-30"/>
       <use xlink:href="#DejaVuSans-2e" x="63.623047"/>
       <use xlink:href="#DejaVuSans-32" x="95.410156"/>
      </g>
     </g>
    </g>
    <g id="xtick_3">
     <g id="line2d_3">
      <g>
       <use xlink:href="#mefdf867752" x="190.963636" y="252" style="stroke: #000000; stroke-width: 0.8"/>
      </g>
     </g>
     <g id="text_3">
      <!-- 0.4 -->
      <g transform="translate(183.012074 266.598437)scale(0.1 -0.1)">
       <defs>
        <path id="DejaVuSans-34" d="M 2419 4116 
L 825 1625 
L 2419 1625 
L 2419 4116 
z
M 2253 4666 
L 3047 4666 
L 3047 1625 
L 3713 1625 
L 3713 1100 
L 3047 1100 
L 3047 0 
L 2419 0 
L 2419 1100 
L 313 1100 
L 313 1709 
L 2253 4666 
z
" transform="scale(0.015625)"/>
       </defs>
       <use xlink:href="#DejaVuSans-30"/>
       <use xlink:href="#DejaVuSans-2e" x="63.623047"/>
       <use xlink:href="#DejaVuSans-34" x="95.410156"/>
      </g>
     </g>
    </g>
    <g id="xtick_4">
     <g id="line2d_4">
      <g>
       <use xlink:href="#mefdf867752" x="251.836364" y="252" style="stroke: #000000; stroke-width: 0.8"/>
      </g>
     </g>
     <g id="text_4">
      <!-- 0.6 -->
      <g transform="translate(243.884801 266.598437)scale(0.1 -0.1)">
       <defs>
        <path id="DejaVuSans-36" d="M 2113 2584 
Q 1688 2584 1439 2293 
Q 1191 2003 1191 1497 
Q 1191 994 1439 701 
Q 1688 409 2113 409 
Q 2538 409 2786 701 
Q 3034 994 3034 1497 
Q 3034 2003 2786 2293 
Q 2538 2584 2113 2584 
z
M 3366 4563 
L 3366 3988 
Q 3128 4100 2886 4159 
Q 2644 4219 2406 4219 
Q 1781 4219 1451 3797 
Q 1122 3375 1075 2522 
Q 1259 2794 1537 2939 
Q 1816 3084 2150 3084 
Q 2853 3084 3261 2657 
Q 3669 2231 3669 1497 
Q 3669 778 3244 343 
Q 2819 -91 2113 -91 
Q 1303 -91 875 529 
Q 447 1150 447 2328 
Q 447 3434 972 4092 
Q 1497 4750 2381 4750 
Q 2619 4750 2861 4703 
Q 3103 4656 3366 4563 
z
" transform="scale(0.015625)"/>
       </defs>
       <use xlink:href="#DejaVuSans-30"/>
       <use xlink:href="#DejaVuSans-2e" x="63.623047"/>
       <use xlink:href="#DejaVuSans-36" x="95.410156"/>
      </g>
     </g>
    </g>
    <g id="xtick_5">
     <g id="line2d_5">
      <g>
       <use xlink:href="#mefdf867752" x="312.709091" y="252" style="stroke: #000000; stroke-width: 0.8"/>
      </g>
     </g>
     <g id="text_5">
      <!-- 0.8 -->
      <g transform="translate(304.757528 266.598437)scale(0.1 -0.1)">
       <defs>
        <path id="DejaVuSans-38" d="M 2034 2216 
Q 1584 2216 1326 1975 
Q 1069 1734 1069 1313 
Q 1069 891 1326 650 
Q 1584 409 2034 409 
Q 2484 409 2743 651 
Q 3003 894 3003 1313 
Q 3003 1734 2745 1975 
Q 2488 2216 2034 2216 
z
M 1403 2484 
Q 997 2584 770 2862 
Q 544 3141 544 3541 
Q 544 4100 942 4425 
Q 1341 4750 2034 4750 
Q 2731 4750 3128 4425 
Q 3525 4100 3525 3541 
Q 3525 3141 3298 2862 
Q 3072 2584 2669 2484 
Q 3125 2378 3379 2068 
Q 3634 1759 3634 1313 
Q 3634 634 3220 271 
Q 2806 -91 2034 -91 
Q 1263 -91 848 271 
Q 434 634 434 1313 
Q 434 1759 690 2068 
Q 947 2378 1403 2484 
z
M 1172 3481 
Q 1172 3119 1398 2916 
Q 1625 2713 2034 2713 
Q 2441 2713 2670 2916 
Q 2900 3119 2900 3481 
Q 2900 3844 2670 4047 
Q 2441 4250 2034 4250 
Q 1625 4250 1398 4047 
Q 1172 3844 1172 3481 
z
" transform="scale(0.015625)"/>
       </defs>
       <use xlink:href="#DejaVuSans-30"/>
       <use xlink:href="#DejaVuSans-2e" x="63.623047"/>
       <use xlink:href="#DejaVuSans-38" x="95.410156"/>
      </g>
     </g>
    </g>
    <g id="xtick_6">
     <g id="line2d_6">
      <g>
       <use xlink:href="#mefdf867752" x="373.581818" y="252" style="stroke: #000000; stroke-width: 0.8"/>
      </g>
     </g>
     <g id="text_6">
      <!-- 1.0 -->
      <g transform="translate(365.630256 266.598437)scale(0.1 -0.1)">
       <defs>
        <path id="DejaVuSans-31" d="M 794 531 
L 1825 531 
L 1825 4091 
L 703 3866 
L 703 4441 
L 1819 4666 
L 2450 4666 
L 2450 531 
L 3481 531 
L 3481 0 
L 794 0 
L 794 531 
z
" transform="scale(0.015625)"/>
       </defs>
       <use xlink:href="#DejaVuSans-31"/>
       <use xlink:href="#DejaVuSans-2e" x="63.623047"/>
       <use xlink:href="#DejaVuSans-30" x="95.410156"/>
      </g>
     </g>
    </g>
    <g id="text_7">
     <!-- FPR -->
     <g transform="translate(212.035156 280.276563)scale(0.1 -0.1)">
      <defs>
       <path id="DejaVuSans-46" d="M 628 4666 
L 3309 4666 
L 3309 4134 
L 1259 4134 
L 1259 2759 
L 3109 2759 
L 3109 2228 
L 1259 2228 
L 1259 0 
L 628 0 
L 628 4666 
z
" transform="scale(0.015625)"/>
       <path id="DejaVuSans-50" d="M 1259 4147 
L 1259 2394 
L 2053 2394 
Q 2494 2394 2734 2622 
Q 2975 2850 2975 3272 
Q 2975 3691 2734 3919 
Q 2494 4147 2053 4147 
L 1259 4147 
z
M 628 4666 
L 2053 4666 
Q 2838 4666 3239 4311 
Q 3641 3956 3641 3272 
Q 3641 2581 3239 2228 
Q 2838 1875 2053 1875 
L 1259 1875 
L 1259 0 
L 628 0 
L 628 4666 
z
" transform="scale(0.015625)"/>
       <path id="DejaVuSans-52" d="M 2841 2188 
Q 3044 2119 3236 1894 
Q 3428 1669 3622 1275 
L 4263 0 
L 3584 0 
L 2988 1197 
Q 2756 1666 2539 1819 
Q 2322 1972 1947 1972 
L 1259 1972 
L 1259 0 
L 628 0 
L 628 4666 
L 2053 4666 
Q 2853 4666 3247 4331 
Q 3641 3997 3641 3322 
Q 3641 2881 3436 2590 
Q 3231 2300 2841 2188 
z
M 1259 4147 
L 1259 2491 
L 2053 2491 
Q 2509 2491 2742 2702 
Q 2975 2913 2975 3322 
Q 2975 3731 2742 3939 
Q 2509 4147 2053 4147 
L 1259 4147 
z
" transform="scale(0.015625)"/>
      </defs>
      <use xlink:href="#DejaVuSans-46"/>
      <use xlink:href="#DejaVuSans-50" x="57.519531"/>
      <use xlink:href="#DejaVuSans-52" x="117.822266"/>
     </g>
    </g>
   </g>
   <g id="matplotlib.axis_2">
    <g id="ytick_1">
     <g id="line2d_7">
      <defs>
       <path id="m7dbee5b9ab" d="M 0 0 
L -3.5 0 
" style="stroke: #000000; stroke-width: 0.8"/>
      </defs>
      <g>
       <use xlink:href="#m7dbee5b9ab" x="54" y="242.314234" style="stroke: #000000; stroke-width: 0.8"/>
      </g>
     </g>
     <g id="text_8">
      <!-- 0.0 -->
      <g transform="translate(31.096875 246.113453)scale(0.1 -0.1)">
       <use xlink:href="#DejaVuSans-30"/>
       <use xlink:href="#DejaVuSans-2e" x="63.623047"/>
       <use xlink:href="#DejaVuSans-30" x="95.410156"/>
      </g>
     </g>
    </g>
    <g id="ytick_2">
     <g id="line2d_8">
      <g>
       <use xlink:href="#m7dbee5b9ab" x="54" y="202.740115" style="stroke: #000000; stroke-width: 0.8"/>
      </g>
     </g>
     <g id="text_9">
      <!-- 0.2 -->
      <g transform="translate(31.096875 206.539333)scale(0.1 -0.1)">
       <use xlink:href="#DejaVuSans-30"/>
       <use xlink:href="#DejaVuSans-2e" x="63.623047"/>
       <use xlink:href="#DejaVuSans-32" x="95.410156"/>
      </g>
     </g>
    </g>
    <g id="ytick_3">
     <g id="line2d_9">
      <g>
       <use xlink:href="#m7dbee5b9ab" x="54" y="163.165995" style="stroke: #000000; stroke-width: 0.8"/>
      </g>
     </g>
     <g id="text_10">
      <!-- 0.4 -->
      <g transform="translate(31.096875 166.965214)scale(0.1 -0.1)">
       <use xlink:href="#DejaVuSans-30"/>
       <use xlink:href="#DejaVuSans-2e" x="63.623047"/>
       <use xlink:href="#DejaVuSans-34" x="95.410156"/>
      </g>
     </g>
    </g>
    <g id="ytick_4">
     <g id="line2d_10">
      <g>
       <use xlink:href="#m7dbee5b9ab" x="54" y="123.591876" style="stroke: #000000; stroke-width: 0.8"/>
      </g>
     </g>
     <g id="text_11">
      <!-- 0.6 -->
      <g transform="translate(31.096875 127.391094)scale(0.1 -0.1)">
       <use xlink:href="#DejaVuSans-30"/>
       <use xlink:href="#DejaVuSans-2e" x="63.623047"/>
       <use xlink:href="#DejaVuSans-36" x="95.410156"/>
      </g>
     </g>
    </g>
    <g id="ytick_5">
     <g id="line2d_11">
      <g>
       <use xlink:href="#m7dbee5b9ab" x="54" y="84.017756" style="stroke: #000000; stroke-width: 0.8"/>
      </g>
     </g>
     <g id="text_12">
      <!-- 0.8 -->
      <g transform="translate(31.096875 87.816975)scale(0.1 -0.1)">
       <use xlink:href="#DejaVuSans-30"/>
       <use xlink:href="#DejaVuSans-2e" x="63.623047"/>
       <use xlink:href="#DejaVuSans-38" x="95.410156"/>
      </g>
     </g>
    </g>
    <g id="ytick_6">
     <g id="line2d_12">
      <g>
       <use xlink:href="#m7dbee5b9ab" x="54" y="44.443636" style="stroke: #000000; stroke-width: 0.8"/>
      </g>
     </g>
     <g id="text_13">
      <!-- 1.0 -->
      <g transform="translate(31.096875 48.242855)scale(0.1 -0.1)">
       <use xlink:href="#DejaVuSans-31"/>
       <use xlink:href="#DejaVuSans-2e" x="63.623047"/>
       <use xlink:href="#DejaVuSans-30" x="95.410156"/>
      </g>
     </g>
    </g>
    <g id="text_14">
     <!-- TPR -->
     <g transform="translate(25.017187 152.822969)rotate(-90)scale(0.1 -0.1)">
      <defs>
       <path id="DejaVuSans-54" d="M -19 4666 
L 3928 4666 
L 3928 4134 
L 2272 4134 
L 2272 0 
L 1638 0 
L 1638 4134 
L -19 4134 
L -19 4666 
z
" transform="scale(0.015625)"/>
      </defs>
      <use xlink:href="#DejaVuSans-54"/>
      <use xlink:href="#DejaVuSans-50" x="61.083984"/>
      <use xlink:href="#DejaVuSans-52" x="121.386719"/>
     </g>
    </g>
   </g>
   <g id="line2d_13">
    <path d="M 69.218182 242.116364 
L 69.218182 122.008911 
L 69.218182 109.938804 
L 69.218182 102.815463 
L 69.218182 98.264439 
L 69.218182 94.109156 
L 70.435636 91.338968 
L 70.435636 89.558133 
L 70.435636 88.76665 
L 71.957455 86.590074 
L 71.957455 86.392203 
L 71.957455 85.007109 
L 72.870545 84.017756 
L 73.479273 82.632662 
L 74.696727 81.643309 
L 75.001091 80.456085 
L 75.609818 80.258215 
L 76.218545 78.87312 
L 76.827273 78.67525 
L 77.740364 77.685897 
L 78.349091 77.092285 
L 79.870909 76.498673 
L 80.175273 76.102932 
L 80.175273 75.707191 
L 80.175273 74.915708 
L 80.784 74.124226 
L 81.392727 73.728485 
L 82.305818 72.739132 
L 82.914545 72.343391 
L 83.827636 71.947649 
L 85.045091 71.749779 
L 85.958182 71.156167 
L 86.871273 70.760426 
L 86.871273 70.166814 
L 87.48 69.177461 
L 88.697455 68.78172 
L 89.914909 68.385979 
L 91.741091 68.385979 
L 92.045455 68.385979 
L 92.045455 68.188108 
L 92.349818 67.396626 
L 92.349818 67.000885 
L 92.654182 66.209402 
L 93.262909 65.61579 
L 93.871636 65.220049 
L 95.697818 64.824308 
L 96.002182 64.824308 
L 96.915273 64.626437 
L 97.524 64.032826 
L 98.132727 63.834955 
L 99.045818 63.241343 
L 99.350182 62.845602 
L 100.263273 62.449861 
L 100.567636 61.856249 
L 100.567636 61.658378 
L 101.176364 60.471155 
L 101.785091 60.075414 
L 102.698182 59.679672 
L 103.915636 59.481802 
L 104.524364 59.481802 
L 105.741818 59.283931 
L 106.046182 59.283931 
L 106.046182 59.086061 
L 106.046182 57.898837 
L 106.654909 57.107355 
L 107.263636 56.315872 
L 108.785455 55.920131 
L 109.698545 55.920131 
L 110.307273 55.326519 
L 111.220364 54.732907 
L 111.524727 53.941425 
L 112.133455 53.347813 
L 112.742182 52.952072 
L 114.264 52.35846 
L 114.872727 51.962719 
L 116.090182 51.566978 
L 117.307636 51.566978 
L 117.916364 51.566978 
L 118.525091 51.369107 
L 119.438182 50.379754 
L 120.351273 49.984013 
L 121.873091 49.390401 
L 122.177455 48.99466 
L 124.308 48.598919 
L 124.612364 48.203178 
L 126.438545 48.005307 
L 127.960364 47.213825 
L 130.090909 46.818084 
L 131.612727 46.224472 
L 133.743273 46.224472 
L 134.047636 46.224472 
L 137.395636 45.235119 
L 138.613091 45.235119 
L 141.352364 45.235119 
L 145.613455 44.443636 
L 152.005091 44.443636 
L 159.005455 44.443636 
L 169.962545 44.443636 
L 188.528727 44.443636 
L 373.581818 44.443636 
" clip-path="url(#pa25322e5aa)" style="fill: none; stroke: #1f77b4; stroke-width: 1.5; stroke-linecap: square"/>
   </g>
   <g id="line2d_14">
    <path d="M 69.218182 242.116364 
L 69.218182 113.104734 
L 69.218182 104.200557 
L 69.522545 101.232498 
L 69.522545 98.066568 
L 69.522545 95.889992 
L 69.522545 93.317674 
L 69.826909 91.734709 
L 70.131273 90.547486 
L 70.131273 89.558133 
L 70.435636 88.56878 
L 71.044364 86.985815 
L 71.348727 84.809238 
L 71.957455 82.236921 
L 72.261818 81.445438 
L 72.566182 80.258215 
L 72.566182 79.862473 
L 72.566182 79.466732 
L 72.566182 78.67525 
L 72.870545 78.081638 
L 73.479273 77.290156 
L 73.783636 76.300803 
L 74.088 75.50932 
L 75.001091 75.113579 
L 75.609818 74.124226 
L 76.827273 73.530614 
L 77.131636 71.947649 
L 77.740364 70.958296 
L 79.262182 70.166814 
L 79.870909 69.573202 
L 81.392727 69.375332 
L 82.610182 68.188108 
L 83.218909 67.594496 
L 83.827636 67.198755 
L 84.436364 67.000885 
L 84.436364 66.605143 
L 85.349455 66.011532 
L 85.349455 65.813661 
L 85.958182 65.41792 
L 86.566909 64.824308 
L 87.175636 64.626437 
L 88.088727 64.230696 
L 89.001818 64.032826 
L 89.306182 64.032826 
L 90.219273 63.043473 
L 90.523636 62.647731 
L 91.436727 61.658378 
L 91.741091 61.262637 
L 92.045455 60.669025 
L 92.654182 60.273284 
L 93.567273 59.679672 
L 94.176 59.283931 
L 95.089091 59.086061 
L 95.697818 58.88819 
L 97.219636 58.294578 
L 97.828364 58.096708 
L 99.350182 57.503096 
L 99.350182 57.305225 
L 99.654545 56.711613 
L 100.263273 56.118002 
L 100.567636 55.72226 
L 101.480727 55.326519 
L 102.089455 54.930778 
L 102.393818 54.930778 
L 103.306909 54.337166 
L 103.915636 54.337166 
L 104.22 53.941425 
L 104.828727 53.545684 
L 105.741818 53.149943 
L 107.568 52.35846 
L 107.872364 51.369107 
L 108.785455 50.973366 
L 110.002909 49.984013 
L 111.524727 49.588272 
L 113.959636 49.390401 
L 114.872727 48.598919 
L 116.394545 48.203178 
L 117.003273 47.609566 
L 118.220727 47.411695 
L 119.742545 47.213825 
L 120.96 46.818084 
L 121.873091 46.620213 
L 123.090545 46.620213 
L 123.699273 46.620213 
L 124.308 46.620213 
L 126.134182 46.422342 
L 127.351636 46.224472 
L 131.308364 45.828731 
L 134.656364 45.63086 
L 137.091273 45.235119 
L 138.613091 45.037248 
L 140.134909 45.037248 
L 141.961091 44.839378 
L 144.396 44.641507 
L 148.352727 44.641507 
L 151.700727 44.641507 
L 156.570545 44.641507 
L 161.136 44.443636 
L 174.832364 44.443636 
L 373.581818 44.443636 
" clip-path="url(#pa25322e5aa)" style="fill: none; stroke: #ff7f0e; stroke-width: 1.5; stroke-linecap: square"/>
   </g>
   <g id="line2d_15">
    <path d="M 69.218182 242.116364 
L 69.218182 91.141097 
L 69.218182 81.247568 
L 69.218182 77.685897 
L 69.218182 74.519967 
L 69.218182 72.14552 
L 69.218182 69.573202 
L 69.522545 68.583849 
L 69.522545 66.803014 
L 69.522545 65.41792 
L 69.522545 64.824308 
L 69.826909 63.439214 
L 69.826909 63.043473 
L 69.826909 61.658378 
L 69.826909 61.064767 
L 69.826909 60.075414 
L 69.826909 59.481802 
L 69.826909 58.88819 
L 69.826909 58.492449 
L 69.826909 58.294578 
L 69.826909 58.096708 
L 69.826909 57.503096 
L 69.826909 56.909484 
L 70.131273 56.315872 
L 70.131273 56.118002 
L 70.131273 55.52439 
L 70.131273 54.732907 
L 70.131273 54.732907 
L 70.131273 54.337166 
L 70.435636 54.139296 
L 70.435636 53.743554 
L 70.435636 52.754201 
L 70.435636 52.556331 
L 70.435636 52.35846 
L 70.435636 51.962719 
L 70.435636 51.764848 
L 70.74 51.369107 
L 70.74 50.577625 
L 70.74 50.379754 
L 70.74 50.181884 
L 71.044364 50.181884 
L 71.348727 49.390401 
L 71.348727 49.390401 
L 71.348727 48.99466 
L 71.653091 48.79679 
L 71.957455 48.401048 
L 71.957455 48.203178 
L 73.479273 48.005307 
L 73.783636 48.005307 
L 74.088 47.807437 
L 74.392364 47.609566 
L 74.696727 47.411695 
L 74.696727 47.213825 
L 75.001091 46.224472 
L 75.305455 46.224472 
L 75.914182 46.026601 
L 76.218545 45.828731 
L 76.827273 45.828731 
L 76.827273 45.828731 
L 78.044727 45.63086 
L 78.044727 45.432989 
L 78.349091 45.432989 
L 78.653455 45.432989 
L 79.870909 45.432989 
L 80.479636 45.235119 
L 80.784 45.235119 
L 81.392727 45.235119 
L 81.697091 45.235119 
L 82.001455 45.235119 
L 83.523273 45.235119 
L 84.132 45.235119 
L 84.436364 45.037248 
L 85.045091 45.037248 
L 85.045091 45.037248 
L 86.262545 45.037248 
L 87.175636 45.037248 
L 87.48 45.037248 
L 88.393091 44.839378 
L 89.306182 44.839378 
L 90.219273 44.839378 
L 90.523636 44.839378 
L 90.828 44.839378 
L 91.436727 44.839378 
L 92.349818 44.839378 
L 93.262909 44.839378 
L 94.784727 44.839378 
L 95.697818 44.839378 
L 97.828364 44.839378 
L 98.437091 44.839378 
L 100.567636 44.641507 
L 101.480727 44.641507 
L 103.611273 44.641507 
L 106.350545 44.641507 
L 107.872364 44.443636 
L 111.829091 44.443636 
L 115.481455 44.443636 
L 120.351273 44.443636 
L 125.829818 44.443636 
L 141.048 44.443636 
L 373.581818 44.443636 
" clip-path="url(#pa25322e5aa)" style="fill: none; stroke: #2ca02c; stroke-width: 1.5; stroke-linecap: square"/>
   </g>
   <g id="line2d_16">
    <path d="M 69.218182 215.008092 
L 69.218182 46.224472 
L 69.218182 45.828731 
L 69.218182 45.235119 
L 69.218182 45.235119 
L 69.218182 45.235119 
L 69.218182 45.235119 
L 69.218182 45.235119 
L 69.218182 45.037248 
L 69.218182 44.839378 
L 69.218182 44.839378 
L 69.218182 44.839378 
L 69.218182 44.839378 
L 69.218182 44.839378 
L 69.218182 44.839378 
L 69.218182 44.641507 
L 69.218182 44.641507 
L 69.218182 44.641507 
L 69.218182 44.641507 
L 69.218182 44.641507 
L 69.218182 44.641507 
L 69.218182 44.641507 
L 69.218182 44.641507 
L 69.218182 44.641507 
L 69.218182 44.641507 
L 69.218182 44.641507 
L 69.218182 44.641507 
L 69.218182 44.641507 
L 69.218182 44.641507 
L 69.218182 44.641507 
L 69.218182 44.641507 
L 69.218182 44.641507 
L 69.218182 44.641507 
L 69.218182 44.641507 
L 69.218182 44.641507 
L 69.218182 44.641507 
L 69.218182 44.641507 
L 69.218182 44.641507 
L 69.218182 44.641507 
L 69.218182 44.443636 
L 69.218182 44.443636 
L 69.218182 44.443636 
L 69.218182 44.443636 
L 69.218182 44.443636 
L 69.218182 44.443636 
L 69.218182 44.443636 
L 69.218182 44.443636 
L 69.218182 44.443636 
L 69.218182 44.443636 
L 69.218182 44.443636 
L 69.218182 44.443636 
L 69.218182 44.443636 
L 69.218182 44.443636 
L 69.218182 44.443636 
L 69.218182 44.443636 
L 69.218182 44.443636 
L 69.218182 44.443636 
L 69.218182 44.443636 
L 69.218182 44.443636 
L 69.218182 44.443636 
L 69.218182 44.443636 
L 69.522545 44.443636 
L 69.522545 44.443636 
L 69.522545 44.443636 
L 69.522545 44.443636 
L 69.522545 44.443636 
L 69.522545 44.443636 
L 69.522545 44.443636 
L 69.522545 44.443636 
L 69.522545 44.443636 
L 69.522545 44.443636 
L 69.522545 44.443636 
L 69.522545 44.443636 
L 69.522545 44.443636 
L 69.522545 44.443636 
L 69.522545 44.443636 
L 69.522545 44.443636 
L 69.522545 44.443636 
L 69.522545 44.443636 
L 69.522545 44.443636 
L 69.522545 44.443636 
L 69.522545 44.443636 
L 69.522545 44.443636 
L 69.522545 44.443636 
L 69.522545 44.443636 
L 69.826909 44.443636 
L 69.826909 44.443636 
L 69.826909 44.443636 
L 69.826909 44.443636 
L 69.826909 44.443636 
L 69.826909 44.443636 
L 70.131273 44.443636 
L 70.435636 44.443636 
L 70.435636 44.443636 
L 70.435636 44.443636 
L 70.435636 44.443636 
L 70.435636 44.443636 
L 71.348727 44.443636 
L 71.957455 44.443636 
L 373.581818 44.443636 
" clip-path="url(#pa25322e5aa)" style="fill: none; stroke: #d62728; stroke-width: 1.5; stroke-linecap: square"/>
   </g>
   <g id="line2d_17">
    <path d="M 69.218182 203.333726 
L 69.218182 46.818084 
L 69.218182 45.828731 
L 69.218182 45.235119 
L 69.218182 45.235119 
L 69.218182 45.235119 
L 69.218182 45.235119 
L 69.218182 45.235119 
L 69.218182 45.037248 
L 69.218182 45.037248 
L 69.218182 45.037248 
L 69.218182 45.037248 
L 69.218182 44.839378 
L 69.218182 44.839378 
L 69.218182 44.839378 
L 69.218182 44.839378 
L 69.218182 44.839378 
L 69.218182 44.839378 
L 69.218182 44.839378 
L 69.218182 44.641507 
L 69.218182 44.641507 
L 69.218182 44.641507 
L 69.218182 44.641507 
L 69.218182 44.641507 
L 69.218182 44.641507 
L 69.218182 44.641507 
L 69.218182 44.641507 
L 69.218182 44.641507 
L 69.218182 44.641507 
L 69.218182 44.641507 
L 69.218182 44.641507 
L 69.218182 44.641507 
L 69.218182 44.641507 
L 69.218182 44.641507 
L 69.218182 44.641507 
L 69.218182 44.641507 
L 69.218182 44.641507 
L 69.218182 44.641507 
L 69.218182 44.641507 
L 69.218182 44.641507 
L 69.218182 44.641507 
L 69.218182 44.641507 
L 69.218182 44.641507 
L 69.218182 44.443636 
L 69.218182 44.443636 
L 69.218182 44.443636 
L 69.218182 44.443636 
L 69.218182 44.443636 
L 69.218182 44.443636 
L 69.218182 44.443636 
L 69.218182 44.443636 
L 69.218182 44.443636 
L 69.218182 44.443636 
L 69.218182 44.443636 
L 69.218182 44.443636 
L 69.218182 44.443636 
L 69.218182 44.443636 
L 69.522545 44.443636 
L 69.522545 44.443636 
L 69.522545 44.443636 
L 69.522545 44.443636 
L 69.522545 44.443636 
L 69.522545 44.443636 
L 69.522545 44.443636 
L 69.522545 44.443636 
L 69.522545 44.443636 
L 69.522545 44.443636 
L 69.522545 44.443636 
L 69.522545 44.443636 
L 69.522545 44.443636 
L 69.522545 44.443636 
L 69.522545 44.443636 
L 69.522545 44.443636 
L 69.522545 44.443636 
L 69.522545 44.443636 
L 69.522545 44.443636 
L 69.522545 44.443636 
L 69.522545 44.443636 
L 69.522545 44.443636 
L 69.522545 44.443636 
L 69.522545 44.443636 
L 69.826909 44.443636 
L 69.826909 44.443636 
L 69.826909 44.443636 
L 69.826909 44.443636 
L 69.826909 44.443636 
L 69.826909 44.443636 
L 69.826909 44.443636 
L 70.131273 44.443636 
L 70.131273 44.443636 
L 70.131273 44.443636 
L 70.131273 44.443636 
L 70.435636 44.443636 
L 70.435636 44.443636 
L 70.435636 44.443636 
L 70.435636 44.443636 
L 70.435636 44.443636 
L 71.348727 44.443636 
L 72.870545 44.443636 
L 373.581818 44.443636 
" clip-path="url(#pa25322e5aa)" style="fill: none; stroke: #9467bd; stroke-width: 1.5; stroke-linecap: square"/>
   </g>
   <g id="line2d_18">
    <path d="M 69.218182 178.995643 
L 69.218182 44.641507 
L 69.218182 44.641507 
L 69.218182 44.641507 
L 69.218182 44.443636 
L 69.218182 44.443636 
L 69.218182 44.443636 
L 69.218182 44.443636 
L 69.218182 44.443636 
L 69.218182 44.443636 
L 69.218182 44.443636 
L 69.218182 44.443636 
L 69.218182 44.443636 
L 69.218182 44.443636 
L 69.218182 44.443636 
L 69.218182 44.443636 
L 69.218182 44.443636 
L 69.218182 44.443636 
L 69.218182 44.443636 
L 69.218182 44.443636 
L 69.218182 44.443636 
L 69.218182 44.443636 
L 69.218182 44.443636 
L 69.218182 44.443636 
L 69.218182 44.443636 
L 69.218182 44.443636 
L 69.218182 44.443636 
L 69.218182 44.443636 
L 69.218182 44.443636 
L 69.218182 44.443636 
L 69.218182 44.443636 
L 69.218182 44.443636 
L 69.218182 44.443636 
L 69.218182 44.443636 
L 69.218182 44.443636 
L 69.218182 44.443636 
L 69.218182 44.443636 
L 69.218182 44.443636 
L 69.218182 44.443636 
L 69.218182 44.443636 
L 69.218182 44.443636 
L 69.218182 44.443636 
L 69.218182 44.443636 
L 69.218182 44.443636 
L 69.218182 44.443636 
L 69.218182 44.443636 
L 69.218182 44.443636 
L 69.218182 44.443636 
L 69.218182 44.443636 
L 69.218182 44.443636 
L 69.218182 44.443636 
L 69.218182 44.443636 
L 69.218182 44.443636 
L 69.218182 44.443636 
L 69.218182 44.443636 
L 69.218182 44.443636 
L 69.218182 44.443636 
L 69.218182 44.443636 
L 69.218182 44.443636 
L 69.218182 44.443636 
L 69.218182 44.443636 
L 69.218182 44.443636 
L 69.218182 44.443636 
L 69.218182 44.443636 
L 69.218182 44.443636 
L 69.218182 44.443636 
L 69.218182 44.443636 
L 69.218182 44.443636 
L 69.218182 44.443636 
L 69.218182 44.443636 
L 69.218182 44.443636 
L 69.218182 44.443636 
L 69.218182 44.443636 
L 69.218182 44.443636 
L 69.218182 44.443636 
L 69.218182 44.443636 
L 69.218182 44.443636 
L 69.218182 44.443636 
L 69.218182 44.443636 
L 69.218182 44.443636 
L 69.218182 44.443636 
L 69.218182 44.443636 
L 69.218182 44.443636 
L 69.218182 44.443636 
L 69.218182 44.443636 
L 69.218182 44.443636 
L 69.218182 44.443636 
L 69.218182 44.443636 
L 69.218182 44.443636 
L 69.218182 44.443636 
L 69.218182 44.443636 
L 69.218182 44.443636 
L 69.218182 44.443636 
L 69.218182 44.443636 
L 69.218182 44.443636 
L 69.218182 44.443636 
L 69.522545 44.443636 
L 69.522545 44.443636 
L 69.522545 44.443636 
L 373.581818 44.443636 
" clip-path="url(#pa25322e5aa)" style="fill: none; stroke: #8c564b; stroke-width: 1.5; stroke-linecap: square"/>
   </g>
   <g id="line2d_19">
    <path d="M 69.218182 127.351417 
L 69.218182 44.443636 
L 69.218182 44.443636 
L 69.218182 44.443636 
L 69.218182 44.443636 
L 69.218182 44.443636 
L 69.218182 44.443636 
L 69.218182 44.443636 
L 69.218182 44.443636 
L 69.218182 44.443636 
L 69.218182 44.443636 
L 69.218182 44.443636 
L 69.218182 44.443636 
L 69.218182 44.443636 
L 69.218182 44.443636 
L 69.218182 44.443636 
L 69.218182 44.443636 
L 69.218182 44.443636 
L 69.218182 44.443636 
L 69.218182 44.443636 
L 69.218182 44.443636 
L 69.218182 44.443636 
L 69.218182 44.443636 
L 69.218182 44.443636 
L 69.218182 44.443636 
L 69.218182 44.443636 
L 69.218182 44.443636 
L 69.218182 44.443636 
L 69.218182 44.443636 
L 69.218182 44.443636 
L 69.218182 44.443636 
L 69.218182 44.443636 
L 69.218182 44.443636 
L 69.218182 44.443636 
L 69.218182 44.443636 
L 69.218182 44.443636 
L 69.218182 44.443636 
L 69.218182 44.443636 
L 69.218182 44.443636 
L 69.218182 44.443636 
L 69.218182 44.443636 
L 69.218182 44.443636 
L 69.218182 44.443636 
L 69.218182 44.443636 
L 69.218182 44.443636 
L 69.218182 44.443636 
L 69.218182 44.443636 
L 69.218182 44.443636 
L 69.218182 44.443636 
L 69.218182 44.443636 
L 69.218182 44.443636 
L 69.218182 44.443636 
L 69.218182 44.443636 
L 69.218182 44.443636 
L 69.218182 44.443636 
L 69.218182 44.443636 
L 69.218182 44.443636 
L 69.218182 44.443636 
L 69.218182 44.443636 
L 69.218182 44.443636 
L 69.218182 44.443636 
L 69.218182 44.443636 
L 69.218182 44.443636 
L 69.218182 44.443636 
L 69.218182 44.443636 
L 69.218182 44.443636 
L 69.218182 44.443636 
L 69.218182 44.443636 
L 69.218182 44.443636 
L 69.218182 44.443636 
L 69.218182 44.443636 
L 69.218182 44.443636 
L 69.218182 44.443636 
L 69.218182 44.443636 
L 69.218182 44.443636 
L 69.218182 44.443636 
L 69.218182 44.443636 
L 69.218182 44.443636 
L 69.218182 44.443636 
L 69.218182 44.443636 
L 69.218182 44.443636 
L 69.218182 44.443636 
L 69.218182 44.443636 
L 69.218182 44.443636 
L 69.218182 44.443636 
L 69.218182 44.443636 
L 69.218182 44.443636 
L 69.218182 44.443636 
L 69.218182 44.443636 
L 69.218182 44.443636 
L 69.218182 44.443636 
L 69.218182 44.443636 
L 69.218182 44.443636 
L 69.218182 44.443636 
L 69.218182 44.443636 
L 69.218182 44.443636 
L 69.218182 44.443636 
L 69.218182 44.443636 
L 69.218182 44.443636 
L 373.581818 44.443636 
" clip-path="url(#pa25322e5aa)" style="fill: none; stroke: #e377c2; stroke-width: 1.5; stroke-linecap: square"/>
   </g>
   <g id="line2d_20">
    <path d="M 69.218182 104.992039 
L 69.218182 44.443636 
L 69.218182 44.443636 
L 69.218182 44.443636 
L 69.218182 44.443636 
L 69.218182 44.443636 
L 69.218182 44.443636 
L 69.218182 44.443636 
L 69.218182 44.443636 
L 69.218182 44.443636 
L 69.218182 44.443636 
L 69.218182 44.443636 
L 69.218182 44.443636 
L 69.218182 44.443636 
L 69.218182 44.443636 
L 69.218182 44.443636 
L 69.218182 44.443636 
L 69.218182 44.443636 
L 69.218182 44.443636 
L 69.218182 44.443636 
L 69.218182 44.443636 
L 69.218182 44.443636 
L 69.218182 44.443636 
L 69.218182 44.443636 
L 69.218182 44.443636 
L 69.218182 44.443636 
L 69.218182 44.443636 
L 69.218182 44.443636 
L 69.218182 44.443636 
L 69.218182 44.443636 
L 69.218182 44.443636 
L 69.218182 44.443636 
L 69.218182 44.443636 
L 69.218182 44.443636 
L 69.218182 44.443636 
L 69.218182 44.443636 
L 69.218182 44.443636 
L 69.218182 44.443636 
L 69.218182 44.443636 
L 69.218182 44.443636 
L 69.218182 44.443636 
L 69.218182 44.443636 
L 69.218182 44.443636 
L 69.218182 44.443636 
L 69.218182 44.443636 
L 69.218182 44.443636 
L 69.218182 44.443636 
L 69.218182 44.443636 
L 69.218182 44.443636 
L 69.218182 44.443636 
L 69.218182 44.443636 
L 69.218182 44.443636 
L 69.218182 44.443636 
L 69.218182 44.443636 
L 69.218182 44.443636 
L 69.218182 44.443636 
L 69.218182 44.443636 
L 69.218182 44.443636 
L 69.218182 44.443636 
L 69.218182 44.443636 
L 69.218182 44.443636 
L 69.218182 44.443636 
L 69.218182 44.443636 
L 69.218182 44.443636 
L 69.218182 44.443636 
L 69.218182 44.443636 
L 69.218182 44.443636 
L 69.218182 44.443636 
L 69.218182 44.443636 
L 69.218182 44.443636 
L 69.218182 44.443636 
L 69.218182 44.443636 
L 69.218182 44.443636 
L 69.218182 44.443636 
L 69.218182 44.443636 
L 69.218182 44.443636 
L 69.218182 44.443636 
L 69.218182 44.443636 
L 69.218182 44.443636 
L 69.218182 44.443636 
L 69.218182 44.443636 
L 69.218182 44.443636 
L 69.218182 44.443636 
L 69.218182 44.443636 
L 69.218182 44.443636 
L 69.218182 44.443636 
L 69.218182 44.443636 
L 69.218182 44.443636 
L 69.218182 44.443636 
L 69.218182 44.443636 
L 69.218182 44.443636 
L 69.218182 44.443636 
L 69.218182 44.443636 
L 69.218182 44.443636 
L 69.218182 44.443636 
L 69.218182 44.443636 
L 69.218182 44.443636 
L 69.218182 44.443636 
L 69.218182 44.443636 
L 373.581818 44.443636 
" clip-path="url(#pa25322e5aa)" style="fill: none; stroke: #7f7f7f; stroke-width: 1.5; stroke-linecap: square"/>
   </g>
   <g id="line2d_21">
    <path d="M 69.218182 70.364685 
L 69.218182 44.443636 
L 69.218182 44.443636 
L 69.218182 44.443636 
L 69.218182 44.443636 
L 69.218182 44.443636 
L 69.218182 44.443636 
L 69.218182 44.443636 
L 69.218182 44.443636 
L 69.218182 44.443636 
L 69.218182 44.443636 
L 69.218182 44.443636 
L 69.218182 44.443636 
L 69.218182 44.443636 
L 69.218182 44.443636 
L 69.218182 44.443636 
L 69.218182 44.443636 
L 69.218182 44.443636 
L 69.218182 44.443636 
L 69.218182 44.443636 
L 69.218182 44.443636 
L 69.218182 44.443636 
L 69.218182 44.443636 
L 69.218182 44.443636 
L 69.218182 44.443636 
L 69.218182 44.443636 
L 69.218182 44.443636 
L 69.218182 44.443636 
L 69.218182 44.443636 
L 69.218182 44.443636 
L 69.218182 44.443636 
L 69.218182 44.443636 
L 69.218182 44.443636 
L 69.218182 44.443636 
L 69.218182 44.443636 
L 69.218182 44.443636 
L 69.218182 44.443636 
L 69.218182 44.443636 
L 69.218182 44.443636 
L 69.218182 44.443636 
L 69.218182 44.443636 
L 69.218182 44.443636 
L 69.218182 44.443636 
L 69.218182 44.443636 
L 69.218182 44.443636 
L 69.218182 44.443636 
L 69.218182 44.443636 
L 69.218182 44.443636 
L 69.218182 44.443636 
L 69.218182 44.443636 
L 69.218182 44.443636 
L 69.218182 44.443636 
L 69.218182 44.443636 
L 69.218182 44.443636 
L 69.218182 44.443636 
L 69.218182 44.443636 
L 69.218182 44.443636 
L 69.218182 44.443636 
L 69.218182 44.443636 
L 69.218182 44.443636 
L 69.218182 44.443636 
L 69.218182 44.443636 
L 69.218182 44.443636 
L 69.218182 44.443636 
L 69.218182 44.443636 
L 69.218182 44.443636 
L 69.218182 44.443636 
L 69.218182 44.443636 
L 69.218182 44.443636 
L 69.218182 44.443636 
L 69.218182 44.443636 
L 69.218182 44.443636 
L 69.218182 44.443636 
L 69.218182 44.443636 
L 69.218182 44.443636 
L 69.218182 44.443636 
L 69.218182 44.443636 
L 69.218182 44.443636 
L 69.218182 44.443636 
L 69.218182 44.443636 
L 69.218182 44.443636 
L 69.218182 44.443636 
L 69.218182 44.443636 
L 69.218182 44.443636 
L 69.218182 44.443636 
L 69.218182 44.443636 
L 69.218182 44.443636 
L 69.218182 44.443636 
L 69.218182 44.443636 
L 69.218182 44.443636 
L 69.218182 44.443636 
L 69.218182 44.443636 
L 69.218182 44.443636 
L 69.218182 44.443636 
L 69.218182 44.443636 
L 69.218182 44.443636 
L 69.218182 44.443636 
L 69.218182 44.443636 
L 69.218182 44.443636 
L 373.581818 44.443636 
" clip-path="url(#pa25322e5aa)" style="fill: none; stroke: #bcbd22; stroke-width: 1.5; stroke-linecap: square"/>
   </g>
   <g id="patch_3">
    <path d="M 54 252 
L 54 34.56 
" style="fill: none; stroke: #000000; stroke-width: 0.8; stroke-linejoin: miter; stroke-linecap: square"/>
   </g>
   <g id="patch_4">
    <path d="M 388.8 252 
L 388.8 34.56 
" style="fill: none; stroke: #000000; stroke-width: 0.8; stroke-linejoin: miter; stroke-linecap: square"/>
   </g>
   <g id="patch_5">
    <path d="M 54 252 
L 388.8 252 
" style="fill: none; stroke: #000000; stroke-width: 0.8; stroke-linejoin: miter; stroke-linecap: square"/>
   </g>
   <g id="patch_6">
    <path d="M 54 34.56 
L 388.8 34.56 
" style="fill: none; stroke: #000000; stroke-width: 0.8; stroke-linejoin: miter; stroke-linecap: square"/>
   </g>
   <g id="text_15">
    <!-- ROC Curves for GMM with different K -->
    <g transform="translate(110.563125 28.56)scale(0.12 -0.12)">
     <defs>
      <path id="DejaVuSans-4f" d="M 2522 4238 
Q 1834 4238 1429 3725 
Q 1025 3213 1025 2328 
Q 1025 1447 1429 934 
Q 1834 422 2522 422 
Q 3209 422 3611 934 
Q 4013 1447 4013 2328 
Q 4013 3213 3611 3725 
Q 3209 4238 2522 4238 
z
M 2522 4750 
Q 3503 4750 4090 4092 
Q 4678 3434 4678 2328 
Q 4678 1225 4090 567 
Q 3503 -91 2522 -91 
Q 1538 -91 948 565 
Q 359 1222 359 2328 
Q 359 3434 948 4092 
Q 1538 4750 2522 4750 
z
" transform="scale(0.015625)"/>
      <path id="DejaVuSans-43" d="M 4122 4306 
L 4122 3641 
Q 3803 3938 3442 4084 
Q 3081 4231 2675 4231 
Q 1875 4231 1450 3742 
Q 1025 3253 1025 2328 
Q 1025 1406 1450 917 
Q 1875 428 2675 428 
Q 3081 428 3442 575 
Q 3803 722 4122 1019 
L 4122 359 
Q 3791 134 3420 21 
Q 3050 -91 2638 -91 
Q 1578 -91 968 557 
Q 359 1206 359 2328 
Q 359 3453 968 4101 
Q 1578 4750 2638 4750 
Q 3056 4750 3426 4639 
Q 3797 4528 4122 4306 
z
" transform="scale(0.015625)"/>
      <path id="DejaVuSans-20" transform="scale(0.015625)"/>
      <path id="DejaVuSans-75" d="M 544 1381 
L 544 3500 
L 1119 3500 
L 1119 1403 
Q 1119 906 1312 657 
Q 1506 409 1894 409 
Q 2359 409 2629 706 
Q 2900 1003 2900 1516 
L 2900 3500 
L 3475 3500 
L 3475 0 
L 2900 0 
L 2900 538 
Q 2691 219 2414 64 
Q 2138 -91 1772 -91 
Q 1169 -91 856 284 
Q 544 659 544 1381 
z
M 1991 3584 
L 1991 3584 
z
" transform="scale(0.015625)"/>
      <path id="DejaVuSans-72" d="M 2631 2963 
Q 2534 3019 2420 3045 
Q 2306 3072 2169 3072 
Q 1681 3072 1420 2755 
Q 1159 2438 1159 1844 
L 1159 0 
L 581 0 
L 581 3500 
L 1159 3500 
L 1159 2956 
Q 1341 3275 1631 3429 
Q 1922 3584 2338 3584 
Q 2397 3584 2469 3576 
Q 2541 3569 2628 3553 
L 2631 2963 
z
" transform="scale(0.015625)"/>
      <path id="DejaVuSans-76" d="M 191 3500 
L 800 3500 
L 1894 563 
L 2988 3500 
L 3597 3500 
L 2284 0 
L 1503 0 
L 191 3500 
z
" transform="scale(0.015625)"/>
      <path id="DejaVuSans-65" d="M 3597 1894 
L 3597 1613 
L 953 1613 
Q 991 1019 1311 708 
Q 1631 397 2203 397 
Q 2534 397 2845 478 
Q 3156 559 3463 722 
L 3463 178 
Q 3153 47 2828 -22 
Q 2503 -91 2169 -91 
Q 1331 -91 842 396 
Q 353 884 353 1716 
Q 353 2575 817 3079 
Q 1281 3584 2069 3584 
Q 2775 3584 3186 3129 
Q 3597 2675 3597 1894 
z
M 3022 2063 
Q 3016 2534 2758 2815 
Q 2500 3097 2075 3097 
Q 1594 3097 1305 2825 
Q 1016 2553 972 2059 
L 3022 2063 
z
" transform="scale(0.015625)"/>
      <path id="DejaVuSans-73" d="M 2834 3397 
L 2834 2853 
Q 2591 2978 2328 3040 
Q 2066 3103 1784 3103 
Q 1356 3103 1142 2972 
Q 928 2841 928 2578 
Q 928 2378 1081 2264 
Q 1234 2150 1697 2047 
L 1894 2003 
Q 2506 1872 2764 1633 
Q 3022 1394 3022 966 
Q 3022 478 2636 193 
Q 2250 -91 1575 -91 
Q 1294 -91 989 -36 
Q 684 19 347 128 
L 347 722 
Q 666 556 975 473 
Q 1284 391 1588 391 
Q 1994 391 2212 530 
Q 2431 669 2431 922 
Q 2431 1156 2273 1281 
Q 2116 1406 1581 1522 
L 1381 1569 
Q 847 1681 609 1914 
Q 372 2147 372 2553 
Q 372 3047 722 3315 
Q 1072 3584 1716 3584 
Q 2034 3584 2315 3537 
Q 2597 3491 2834 3397 
z
" transform="scale(0.015625)"/>
      <path id="DejaVuSans-66" d="M 2375 4863 
L 2375 4384 
L 1825 4384 
Q 1516 4384 1395 4259 
Q 1275 4134 1275 3809 
L 1275 3500 
L 2222 3500 
L 2222 3053 
L 1275 3053 
L 1275 0 
L 697 0 
L 697 3053 
L 147 3053 
L 147 3500 
L 697 3500 
L 697 3744 
Q 697 4328 969 4595 
Q 1241 4863 1831 4863 
L 2375 4863 
z
" transform="scale(0.015625)"/>
      <path id="DejaVuSans-6f" d="M 1959 3097 
Q 1497 3097 1228 2736 
Q 959 2375 959 1747 
Q 959 1119 1226 758 
Q 1494 397 1959 397 
Q 2419 397 2687 759 
Q 2956 1122 2956 1747 
Q 2956 2369 2687 2733 
Q 2419 3097 1959 3097 
z
M 1959 3584 
Q 2709 3584 3137 3096 
Q 3566 2609 3566 1747 
Q 3566 888 3137 398 
Q 2709 -91 1959 -91 
Q 1206 -91 779 398 
Q 353 888 353 1747 
Q 353 2609 779 3096 
Q 1206 3584 1959 3584 
z
" transform="scale(0.015625)"/>
      <path id="DejaVuSans-47" d="M 3809 666 
L 3809 1919 
L 2778 1919 
L 2778 2438 
L 4434 2438 
L 4434 434 
Q 4069 175 3628 42 
Q 3188 -91 2688 -91 
Q 1594 -91 976 548 
Q 359 1188 359 2328 
Q 359 3472 976 4111 
Q 1594 4750 2688 4750 
Q 3144 4750 3555 4637 
Q 3966 4525 4313 4306 
L 4313 3634 
Q 3963 3931 3569 4081 
Q 3175 4231 2741 4231 
Q 1884 4231 1454 3753 
Q 1025 3275 1025 2328 
Q 1025 1384 1454 906 
Q 1884 428 2741 428 
Q 3075 428 3337 486 
Q 3600 544 3809 666 
z
" transform="scale(0.015625)"/>
      <path id="DejaVuSans-4d" d="M 628 4666 
L 1569 4666 
L 2759 1491 
L 3956 4666 
L 4897 4666 
L 4897 0 
L 4281 0 
L 4281 4097 
L 3078 897 
L 2444 897 
L 1241 4097 
L 1241 0 
L 628 0 
L 628 4666 
z
" transform="scale(0.015625)"/>
      <path id="DejaVuSans-77" d="M 269 3500 
L 844 3500 
L 1563 769 
L 2278 3500 
L 2956 3500 
L 3675 769 
L 4391 3500 
L 4966 3500 
L 4050 0 
L 3372 0 
L 2619 2869 
L 1863 0 
L 1184 0 
L 269 3500 
z
" transform="scale(0.015625)"/>
      <path id="DejaVuSans-69" d="M 603 3500 
L 1178 3500 
L 1178 0 
L 603 0 
L 603 3500 
z
M 603 4863 
L 1178 4863 
L 1178 4134 
L 603 4134 
L 603 4863 
z
" transform="scale(0.015625)"/>
      <path id="DejaVuSans-74" d="M 1172 4494 
L 1172 3500 
L 2356 3500 
L 2356 3053 
L 1172 3053 
L 1172 1153 
Q 1172 725 1289 603 
Q 1406 481 1766 481 
L 2356 481 
L 2356 0 
L 1766 0 
Q 1100 0 847 248 
Q 594 497 594 1153 
L 594 3053 
L 172 3053 
L 172 3500 
L 594 3500 
L 594 4494 
L 1172 4494 
z
" transform="scale(0.015625)"/>
      <path id="DejaVuSans-68" d="M 3513 2113 
L 3513 0 
L 2938 0 
L 2938 2094 
Q 2938 2591 2744 2837 
Q 2550 3084 2163 3084 
Q 1697 3084 1428 2787 
Q 1159 2491 1159 1978 
L 1159 0 
L 581 0 
L 581 4863 
L 1159 4863 
L 1159 2956 
Q 1366 3272 1645 3428 
Q 1925 3584 2291 3584 
Q 2894 3584 3203 3211 
Q 3513 2838 3513 2113 
z
" transform="scale(0.015625)"/>
      <path id="DejaVuSans-64" d="M 2906 2969 
L 2906 4863 
L 3481 4863 
L 3481 0 
L 2906 0 
L 2906 525 
Q 2725 213 2448 61 
Q 2172 -91 1784 -91 
Q 1150 -91 751 415 
Q 353 922 353 1747 
Q 353 2572 751 3078 
Q 1150 3584 1784 3584 
Q 2172 3584 2448 3432 
Q 2725 3281 2906 2969 
z
M 947 1747 
Q 947 1113 1208 752 
Q 1469 391 1925 391 
Q 2381 391 2643 752 
Q 2906 1113 2906 1747 
Q 2906 2381 2643 2742 
Q 2381 3103 1925 3103 
Q 1469 3103 1208 2742 
Q 947 2381 947 1747 
z
" transform="scale(0.015625)"/>
      <path id="DejaVuSans-6e" d="M 3513 2113 
L 3513 0 
L 2938 0 
L 2938 2094 
Q 2938 2591 2744 2837 
Q 2550 3084 2163 3084 
Q 1697 3084 1428 2787 
Q 1159 2491 1159 1978 
L 1159 0 
L 581 0 
L 581 3500 
L 1159 3500 
L 1159 2956 
Q 1366 3272 1645 3428 
Q 1925 3584 2291 3584 
Q 2894 3584 3203 3211 
Q 3513 2838 3513 2113 
z
" transform="scale(0.015625)"/>
      <path id="DejaVuSans-4b" d="M 628 4666 
L 1259 4666 
L 1259 2694 
L 3353 4666 
L 4166 4666 
L 1850 2491 
L 4331 0 
L 3500 0 
L 1259 2247 
L 1259 0 
L 628 0 
L 628 4666 
z
" transform="scale(0.015625)"/>
     </defs>
     <use xlink:href="#DejaVuSans-52"/>
     <use xlink:href="#DejaVuSans-4f" x="69.482422"/>
     <use xlink:href="#DejaVuSans-43" x="148.193359"/>
     <use xlink:href="#DejaVuSans-20" x="218.017578"/>
     <use xlink:href="#DejaVuSans-43" x="249.804688"/>
     <use xlink:href="#DejaVuSans-75" x="319.628906"/>
     <use xlink:href="#DejaVuSans-72" x="383.007812"/>
     <use xlink:href="#DejaVuSans-76" x="424.121094"/>
     <use xlink:href="#DejaVuSans-65" x="483.300781"/>
     <use xlink:href="#DejaVuSans-73" x="544.824219"/>
     <use xlink:href="#DejaVuSans-20" x="596.923828"/>
     <use xlink:href="#DejaVuSans-66" x="628.710938"/>
     <use xlink:href="#DejaVuSans-6f" x="663.916016"/>
     <use xlink:href="#DejaVuSans-72" x="725.097656"/>
     <use xlink:href="#DejaVuSans-20" x="766.210938"/>
     <use xlink:href="#DejaVuSans-47" x="797.998047"/>
     <use xlink:href="#DejaVuSans-4d" x="875.488281"/>
     <use xlink:href="#DejaVuSans-4d" x="961.767578"/>
     <use xlink:href="#DejaVuSans-20" x="1048.046875"/>
     <use xlink:href="#DejaVuSans-77" x="1079.833984"/>
     <use xlink:href="#DejaVuSans-69" x="1161.621094"/>
     <use xlink:href="#DejaVuSans-74" x="1189.404297"/>
     <use xlink:href="#DejaVuSans-68" x="1228.613281"/>
     <use xlink:href="#DejaVuSans-20" x="1291.992188"/>
     <use xlink:href="#DejaVuSans-64" x="1323.779297"/>
     <use xlink:href="#DejaVuSans-69" x="1387.255859"/>
     <use xlink:href="#DejaVuSans-66" x="1415.039062"/>
     <use xlink:href="#DejaVuSans-66" x="1450.244141"/>
     <use xlink:href="#DejaVuSans-65" x="1485.449219"/>
     <use xlink:href="#DejaVuSans-72" x="1546.972656"/>
     <use xlink:href="#DejaVuSans-65" x="1585.835938"/>
     <use xlink:href="#DejaVuSans-6e" x="1647.359375"/>
     <use xlink:href="#DejaVuSans-74" x="1710.738281"/>
     <use xlink:href="#DejaVuSans-20" x="1749.947266"/>
     <use xlink:href="#DejaVuSans-4b" x="1781.734375"/>
    </g>
   </g>
   <g id="legend_1">
    <g id="patch_7">
     <path d="M 109 247 
L 381.8 247 
Q 383.8 247 383.8 245 
L 383.8 113.896875 
Q 383.8 111.896875 381.8 111.896875 
L 109 111.896875 
Q 107 111.896875 107 113.896875 
L 107 245 
Q 107 247 109 247 
z
" style="fill: #ffffff; opacity: 0.8; stroke: #cccccc; stroke-linejoin: miter"/>
    </g>
    <g id="line2d_22">
     <path d="M 111 119.995313 
L 121 119.995313 
L 131 119.995313 
" style="fill: none; stroke: #1f77b4; stroke-width: 1.5; stroke-linecap: square"/>
    </g>
    <g id="text_16">
     <!-- Area of ROC for K = 2 is : 0.9806414999999999 -->
     <g transform="translate(139 123.495313)scale(0.1 -0.1)">
      <defs>
       <path id="DejaVuSans-41" d="M 2188 4044 
L 1331 1722 
L 3047 1722 
L 2188 4044 
z
M 1831 4666 
L 2547 4666 
L 4325 0 
L 3669 0 
L 3244 1197 
L 1141 1197 
L 716 0 
L 50 0 
L 1831 4666 
z
" transform="scale(0.015625)"/>
       <path id="DejaVuSans-61" d="M 2194 1759 
Q 1497 1759 1228 1600 
Q 959 1441 959 1056 
Q 959 750 1161 570 
Q 1363 391 1709 391 
Q 2188 391 2477 730 
Q 2766 1069 2766 1631 
L 2766 1759 
L 2194 1759 
z
M 3341 1997 
L 3341 0 
L 2766 0 
L 2766 531 
Q 2569 213 2275 61 
Q 1981 -91 1556 -91 
Q 1019 -91 701 211 
Q 384 513 384 1019 
Q 384 1609 779 1909 
Q 1175 2209 1959 2209 
L 2766 2209 
L 2766 2266 
Q 2766 2663 2505 2880 
Q 2244 3097 1772 3097 
Q 1472 3097 1187 3025 
Q 903 2953 641 2809 
L 641 3341 
Q 956 3463 1253 3523 
Q 1550 3584 1831 3584 
Q 2591 3584 2966 3190 
Q 3341 2797 3341 1997 
z
" transform="scale(0.015625)"/>
       <path id="DejaVuSans-3d" d="M 678 2906 
L 4684 2906 
L 4684 2381 
L 678 2381 
L 678 2906 
z
M 678 1631 
L 4684 1631 
L 4684 1100 
L 678 1100 
L 678 1631 
z
" transform="scale(0.015625)"/>
       <path id="DejaVuSans-3a" d="M 750 794 
L 1409 794 
L 1409 0 
L 750 0 
L 750 794 
z
M 750 3309 
L 1409 3309 
L 1409 2516 
L 750 2516 
L 750 3309 
z
" transform="scale(0.015625)"/>
       <path id="DejaVuSans-39" d="M 703 97 
L 703 672 
Q 941 559 1184 500 
Q 1428 441 1663 441 
Q 2288 441 2617 861 
Q 2947 1281 2994 2138 
Q 2813 1869 2534 1725 
Q 2256 1581 1919 1581 
Q 1219 1581 811 2004 
Q 403 2428 403 3163 
Q 403 3881 828 4315 
Q 1253 4750 1959 4750 
Q 2769 4750 3195 4129 
Q 3622 3509 3622 2328 
Q 3622 1225 3098 567 
Q 2575 -91 1691 -91 
Q 1453 -91 1209 -44 
Q 966 3 703 97 
z
M 1959 2075 
Q 2384 2075 2632 2365 
Q 2881 2656 2881 3163 
Q 2881 3666 2632 3958 
Q 2384 4250 1959 4250 
Q 1534 4250 1286 3958 
Q 1038 3666 1038 3163 
Q 1038 2656 1286 2365 
Q 1534 2075 1959 2075 
z
" transform="scale(0.015625)"/>
      </defs>
      <use xlink:href="#DejaVuSans-41"/>
      <use xlink:href="#DejaVuSans-72" x="68.408203"/>
      <use xlink:href="#DejaVuSans-65" x="107.271484"/>
      <use xlink:href="#DejaVuSans-61" x="168.794922"/>
      <use xlink:href="#DejaVuSans-20" x="230.074219"/>
      <use xlink:href="#DejaVuSans-6f" x="261.861328"/>
      <use xlink:href="#DejaVuSans-66" x="323.042969"/>
      <use xlink:href="#DejaVuSans-20" x="358.248047"/>
      <use xlink:href="#DejaVuSans-52" x="390.035156"/>
      <use xlink:href="#DejaVuSans-4f" x="459.517578"/>
      <use xlink:href="#DejaVuSans-43" x="538.228516"/>
      <use xlink:href="#DejaVuSans-20" x="608.052734"/>
      <use xlink:href="#DejaVuSans-66" x="639.839844"/>
      <use xlink:href="#DejaVuSans-6f" x="675.044922"/>
      <use xlink:href="#DejaVuSans-72" x="736.226562"/>
      <use xlink:href="#DejaVuSans-20" x="777.339844"/>
      <use xlink:href="#DejaVuSans-4b" x="809.126953"/>
      <use xlink:href="#DejaVuSans-20" x="874.703125"/>
      <use xlink:href="#DejaVuSans-3d" x="906.490234"/>
      <use xlink:href="#DejaVuSans-20" x="990.279297"/>
      <use xlink:href="#DejaVuSans-32" x="1022.066406"/>
      <use xlink:href="#DejaVuSans-20" x="1085.689453"/>
      <use xlink:href="#DejaVuSans-69" x="1117.476562"/>
      <use xlink:href="#DejaVuSans-73" x="1145.259766"/>
      <use xlink:href="#DejaVuSans-20" x="1197.359375"/>
      <use xlink:href="#DejaVuSans-3a" x="1229.146484"/>
      <use xlink:href="#DejaVuSans-20" x="1262.837891"/>
      <use xlink:href="#DejaVuSans-30" x="1294.625"/>
      <use xlink:href="#DejaVuSans-2e" x="1358.248047"/>
      <use xlink:href="#DejaVuSans-39" x="1390.035156"/>
      <use xlink:href="#DejaVuSans-38" x="1453.658203"/>
      <use xlink:href="#DejaVuSans-30" x="1517.28125"/>
      <use xlink:href="#DejaVuSans-36" x="1580.904297"/>
      <use xlink:href="#DejaVuSans-34" x="1644.527344"/>
      <use xlink:href="#DejaVuSans-31" x="1708.150391"/>
      <use xlink:href="#DejaVuSans-34" x="1771.773438"/>
      <use xlink:href="#DejaVuSans-39" x="1835.396484"/>
      <use xlink:href="#DejaVuSans-39" x="1899.019531"/>
      <use xlink:href="#DejaVuSans-39" x="1962.642578"/>
      <use xlink:href="#DejaVuSans-39" x="2026.265625"/>
      <use xlink:href="#DejaVuSans-39" x="2089.888672"/>
      <use xlink:href="#DejaVuSans-39" x="2153.511719"/>
      <use xlink:href="#DejaVuSans-39" x="2217.134766"/>
      <use xlink:href="#DejaVuSans-39" x="2280.757812"/>
      <use xlink:href="#DejaVuSans-39" x="2344.380859"/>
     </g>
    </g>
    <g id="line2d_23">
     <path d="M 111 134.673438 
L 121 134.673438 
L 131 134.673438 
" style="fill: none; stroke: #ff7f0e; stroke-width: 1.5; stroke-linecap: square"/>
    </g>
    <g id="text_17">
     <!-- Area of ROC for K = 3 is : 0.9851055 -->
     <g transform="translate(139 138.173438)scale(0.1 -0.1)">
      <defs>
       <path id="DejaVuSans-33" d="M 2597 2516 
Q 3050 2419 3304 2112 
Q 3559 1806 3559 1356 
Q 3559 666 3084 287 
Q 2609 -91 1734 -91 
Q 1441 -91 1130 -33 
Q 819 25 488 141 
L 488 750 
Q 750 597 1062 519 
Q 1375 441 1716 441 
Q 2309 441 2620 675 
Q 2931 909 2931 1356 
Q 2931 1769 2642 2001 
Q 2353 2234 1838 2234 
L 1294 2234 
L 1294 2753 
L 1863 2753 
Q 2328 2753 2575 2939 
Q 2822 3125 2822 3475 
Q 2822 3834 2567 4026 
Q 2313 4219 1838 4219 
Q 1578 4219 1281 4162 
Q 984 4106 628 3988 
L 628 4550 
Q 988 4650 1302 4700 
Q 1616 4750 1894 4750 
Q 2613 4750 3031 4423 
Q 3450 4097 3450 3541 
Q 3450 3153 3228 2886 
Q 3006 2619 2597 2516 
z
" transform="scale(0.015625)"/>
       <path id="DejaVuSans-35" d="M 691 4666 
L 3169 4666 
L 3169 4134 
L 1269 4134 
L 1269 2991 
Q 1406 3038 1543 3061 
Q 1681 3084 1819 3084 
Q 2600 3084 3056 2656 
Q 3513 2228 3513 1497 
Q 3513 744 3044 326 
Q 2575 -91 1722 -91 
Q 1428 -91 1123 -41 
Q 819 9 494 109 
L 494 744 
Q 775 591 1075 516 
Q 1375 441 1709 441 
Q 2250 441 2565 725 
Q 2881 1009 2881 1497 
Q 2881 1984 2565 2268 
Q 2250 2553 1709 2553 
Q 1456 2553 1204 2497 
Q 953 2441 691 2322 
L 691 4666 
z
" transform="scale(0.015625)"/>
      </defs>
      <use xlink:href="#DejaVuSans-41"/>
      <use xlink:href="#DejaVuSans-72" x="68.408203"/>
      <use xlink:href="#DejaVuSans-65" x="107.271484"/>
      <use xlink:href="#DejaVuSans-61" x="168.794922"/>
      <use xlink:href="#DejaVuSans-20" x="230.074219"/>
      <use xlink:href="#DejaVuSans-6f" x="261.861328"/>
      <use xlink:href="#DejaVuSans-66" x="323.042969"/>
      <use xlink:href="#DejaVuSans-20" x="358.248047"/>
      <use xlink:href="#DejaVuSans-52" x="390.035156"/>
      <use xlink:href="#DejaVuSans-4f" x="459.517578"/>
      <use xlink:href="#DejaVuSans-43" x="538.228516"/>
      <use xlink:href="#DejaVuSans-20" x="608.052734"/>
      <use xlink:href="#DejaVuSans-66" x="639.839844"/>
      <use xlink:href="#DejaVuSans-6f" x="675.044922"/>
      <use xlink:href="#DejaVuSans-72" x="736.226562"/>
      <use xlink:href="#DejaVuSans-20" x="777.339844"/>
      <use xlink:href="#DejaVuSans-4b" x="809.126953"/>
      <use xlink:href="#DejaVuSans-20" x="874.703125"/>
      <use xlink:href="#DejaVuSans-3d" x="906.490234"/>
      <use xlink:href="#DejaVuSans-20" x="990.279297"/>
      <use xlink:href="#DejaVuSans-33" x="1022.066406"/>
      <use xlink:href="#DejaVuSans-20" x="1085.689453"/>
      <use xlink:href="#DejaVuSans-69" x="1117.476562"/>
      <use xlink:href="#DejaVuSans-73" x="1145.259766"/>
      <use xlink:href="#DejaVuSans-20" x="1197.359375"/>
      <use xlink:href="#DejaVuSans-3a" x="1229.146484"/>
      <use xlink:href="#DejaVuSans-20" x="1262.837891"/>
      <use xlink:href="#DejaVuSans-30" x="1294.625"/>
      <use xlink:href="#DejaVuSans-2e" x="1358.248047"/>
      <use xlink:href="#DejaVuSans-39" x="1390.035156"/>
      <use xlink:href="#DejaVuSans-38" x="1453.658203"/>
      <use xlink:href="#DejaVuSans-35" x="1517.28125"/>
      <use xlink:href="#DejaVuSans-31" x="1580.904297"/>
      <use xlink:href="#DejaVuSans-30" x="1644.527344"/>
      <use xlink:href="#DejaVuSans-35" x="1708.150391"/>
      <use xlink:href="#DejaVuSans-35" x="1771.773438"/>
     </g>
    </g>
    <g id="line2d_24">
     <path d="M 111 149.351562 
L 121 149.351562 
L 131 149.351562 
" style="fill: none; stroke: #2ca02c; stroke-width: 1.5; stroke-linecap: square"/>
    </g>
    <g id="text_18">
     <!-- Area of ROC for K = 4 is : 0.9990585000000001 -->
     <g transform="translate(139 152.851562)scale(0.1 -0.1)">
      <use xlink:href="#DejaVuSans-41"/>
      <use xlink:href="#DejaVuSans-72" x="68.408203"/>
      <use xlink:href="#DejaVuSans-65" x="107.271484"/>
      <use xlink:href="#DejaVuSans-61" x="168.794922"/>
      <use xlink:href="#DejaVuSans-20" x="230.074219"/>
      <use xlink:href="#DejaVuSans-6f" x="261.861328"/>
      <use xlink:href="#DejaVuSans-66" x="323.042969"/>
      <use xlink:href="#DejaVuSans-20" x="358.248047"/>
      <use xlink:href="#DejaVuSans-52" x="390.035156"/>
      <use xlink:href="#DejaVuSans-4f" x="459.517578"/>
      <use xlink:href="#DejaVuSans-43" x="538.228516"/>
      <use xlink:href="#DejaVuSans-20" x="608.052734"/>
      <use xlink:href="#DejaVuSans-66" x="639.839844"/>
      <use xlink:href="#DejaVuSans-6f" x="675.044922"/>
      <use xlink:href="#DejaVuSans-72" x="736.226562"/>
      <use xlink:href="#DejaVuSans-20" x="777.339844"/>
      <use xlink:href="#DejaVuSans-4b" x="809.126953"/>
      <use xlink:href="#DejaVuSans-20" x="874.703125"/>
      <use xlink:href="#DejaVuSans-3d" x="906.490234"/>
      <use xlink:href="#DejaVuSans-20" x="990.279297"/>
      <use xlink:href="#DejaVuSans-34" x="1022.066406"/>
      <use xlink:href="#DejaVuSans-20" x="1085.689453"/>
      <use xlink:href="#DejaVuSans-69" x="1117.476562"/>
      <use xlink:href="#DejaVuSans-73" x="1145.259766"/>
      <use xlink:href="#DejaVuSans-20" x="1197.359375"/>
      <use xlink:href="#DejaVuSans-3a" x="1229.146484"/>
      <use xlink:href="#DejaVuSans-20" x="1262.837891"/>
      <use xlink:href="#DejaVuSans-30" x="1294.625"/>
      <use xlink:href="#DejaVuSans-2e" x="1358.248047"/>
      <use xlink:href="#DejaVuSans-39" x="1390.035156"/>
      <use xlink:href="#DejaVuSans-39" x="1453.658203"/>
      <use xlink:href="#DejaVuSans-39" x="1517.28125"/>
      <use xlink:href="#DejaVuSans-30" x="1580.904297"/>
      <use xlink:href="#DejaVuSans-35" x="1644.527344"/>
      <use xlink:href="#DejaVuSans-38" x="1708.150391"/>
      <use xlink:href="#DejaVuSans-35" x="1771.773438"/>
      <use xlink:href="#DejaVuSans-30" x="1835.396484"/>
      <use xlink:href="#DejaVuSans-30" x="1899.019531"/>
      <use xlink:href="#DejaVuSans-30" x="1962.642578"/>
      <use xlink:href="#DejaVuSans-30" x="2026.265625"/>
      <use xlink:href="#DejaVuSans-30" x="2089.888672"/>
      <use xlink:href="#DejaVuSans-30" x="2153.511719"/>
      <use xlink:href="#DejaVuSans-30" x="2217.134766"/>
      <use xlink:href="#DejaVuSans-30" x="2280.757812"/>
      <use xlink:href="#DejaVuSans-31" x="2344.380859"/>
     </g>
    </g>
    <g id="line2d_25">
     <path d="M 111 164.029688 
L 121 164.029688 
L 131 164.029688 
" style="fill: none; stroke: #d62728; stroke-width: 1.5; stroke-linecap: square"/>
    </g>
    <g id="text_19">
     <!-- Area of ROC for K = 5 is : 1.0 -->
     <g transform="translate(139 167.529688)scale(0.1 -0.1)">
      <use xlink:href="#DejaVuSans-41"/>
      <use xlink:href="#DejaVuSans-72" x="68.408203"/>
      <use xlink:href="#DejaVuSans-65" x="107.271484"/>
      <use xlink:href="#DejaVuSans-61" x="168.794922"/>
      <use xlink:href="#DejaVuSans-20" x="230.074219"/>
      <use xlink:href="#DejaVuSans-6f" x="261.861328"/>
      <use xlink:href="#DejaVuSans-66" x="323.042969"/>
      <use xlink:href="#DejaVuSans-20" x="358.248047"/>
      <use xlink:href="#DejaVuSans-52" x="390.035156"/>
      <use xlink:href="#DejaVuSans-4f" x="459.517578"/>
      <use xlink:href="#DejaVuSans-43" x="538.228516"/>
      <use xlink:href="#DejaVuSans-20" x="608.052734"/>
      <use xlink:href="#DejaVuSans-66" x="639.839844"/>
      <use xlink:href="#DejaVuSans-6f" x="675.044922"/>
      <use xlink:href="#DejaVuSans-72" x="736.226562"/>
      <use xlink:href="#DejaVuSans-20" x="777.339844"/>
      <use xlink:href="#DejaVuSans-4b" x="809.126953"/>
      <use xlink:href="#DejaVuSans-20" x="874.703125"/>
      <use xlink:href="#DejaVuSans-3d" x="906.490234"/>
      <use xlink:href="#DejaVuSans-20" x="990.279297"/>
      <use xlink:href="#DejaVuSans-35" x="1022.066406"/>
      <use xlink:href="#DejaVuSans-20" x="1085.689453"/>
      <use xlink:href="#DejaVuSans-69" x="1117.476562"/>
      <use xlink:href="#DejaVuSans-73" x="1145.259766"/>
      <use xlink:href="#DejaVuSans-20" x="1197.359375"/>
      <use xlink:href="#DejaVuSans-3a" x="1229.146484"/>
      <use xlink:href="#DejaVuSans-20" x="1262.837891"/>
      <use xlink:href="#DejaVuSans-31" x="1294.625"/>
      <use xlink:href="#DejaVuSans-2e" x="1358.248047"/>
      <use xlink:href="#DejaVuSans-30" x="1390.035156"/>
     </g>
    </g>
    <g id="line2d_26">
     <path d="M 111 178.707813 
L 121 178.707813 
L 131 178.707813 
" style="fill: none; stroke: #9467bd; stroke-width: 1.5; stroke-linecap: square"/>
    </g>
    <g id="text_20">
     <!-- Area of ROC for K = 6 is : 1.0 -->
     <g transform="translate(139 182.207813)scale(0.1 -0.1)">
      <use xlink:href="#DejaVuSans-41"/>
      <use xlink:href="#DejaVuSans-72" x="68.408203"/>
      <use xlink:href="#DejaVuSans-65" x="107.271484"/>
      <use xlink:href="#DejaVuSans-61" x="168.794922"/>
      <use xlink:href="#DejaVuSans-20" x="230.074219"/>
      <use xlink:href="#DejaVuSans-6f" x="261.861328"/>
      <use xlink:href="#DejaVuSans-66" x="323.042969"/>
      <use xlink:href="#DejaVuSans-20" x="358.248047"/>
      <use xlink:href="#DejaVuSans-52" x="390.035156"/>
      <use xlink:href="#DejaVuSans-4f" x="459.517578"/>
      <use xlink:href="#DejaVuSans-43" x="538.228516"/>
      <use xlink:href="#DejaVuSans-20" x="608.052734"/>
      <use xlink:href="#DejaVuSans-66" x="639.839844"/>
      <use xlink:href="#DejaVuSans-6f" x="675.044922"/>
      <use xlink:href="#DejaVuSans-72" x="736.226562"/>
      <use xlink:href="#DejaVuSans-20" x="777.339844"/>
      <use xlink:href="#DejaVuSans-4b" x="809.126953"/>
      <use xlink:href="#DejaVuSans-20" x="874.703125"/>
      <use xlink:href="#DejaVuSans-3d" x="906.490234"/>
      <use xlink:href="#DejaVuSans-20" x="990.279297"/>
      <use xlink:href="#DejaVuSans-36" x="1022.066406"/>
      <use xlink:href="#DejaVuSans-20" x="1085.689453"/>
      <use xlink:href="#DejaVuSans-69" x="1117.476562"/>
      <use xlink:href="#DejaVuSans-73" x="1145.259766"/>
      <use xlink:href="#DejaVuSans-20" x="1197.359375"/>
      <use xlink:href="#DejaVuSans-3a" x="1229.146484"/>
      <use xlink:href="#DejaVuSans-20" x="1262.837891"/>
      <use xlink:href="#DejaVuSans-31" x="1294.625"/>
      <use xlink:href="#DejaVuSans-2e" x="1358.248047"/>
      <use xlink:href="#DejaVuSans-30" x="1390.035156"/>
     </g>
    </g>
    <g id="line2d_27">
     <path d="M 111 193.385938 
L 121 193.385938 
L 131 193.385938 
" style="fill: none; stroke: #8c564b; stroke-width: 1.5; stroke-linecap: square"/>
    </g>
    <g id="text_21">
     <!-- Area of ROC for K = 11 is : 1.0 -->
     <g transform="translate(139 196.885938)scale(0.1 -0.1)">
      <use xlink:href="#DejaVuSans-41"/>
      <use xlink:href="#DejaVuSans-72" x="68.408203"/>
      <use xlink:href="#DejaVuSans-65" x="107.271484"/>
      <use xlink:href="#DejaVuSans-61" x="168.794922"/>
      <use xlink:href="#DejaVuSans-20" x="230.074219"/>
      <use xlink:href="#DejaVuSans-6f" x="261.861328"/>
      <use xlink:href="#DejaVuSans-66" x="323.042969"/>
      <use xlink:href="#DejaVuSans-20" x="358.248047"/>
      <use xlink:href="#DejaVuSans-52" x="390.035156"/>
      <use xlink:href="#DejaVuSans-4f" x="459.517578"/>
      <use xlink:href="#DejaVuSans-43" x="538.228516"/>
      <use xlink:href="#DejaVuSans-20" x="608.052734"/>
      <use xlink:href="#DejaVuSans-66" x="639.839844"/>
      <use xlink:href="#DejaVuSans-6f" x="675.044922"/>
      <use xlink:href="#DejaVuSans-72" x="736.226562"/>
      <use xlink:href="#DejaVuSans-20" x="777.339844"/>
      <use xlink:href="#DejaVuSans-4b" x="809.126953"/>
      <use xlink:href="#DejaVuSans-20" x="874.703125"/>
      <use xlink:href="#DejaVuSans-3d" x="906.490234"/>
      <use xlink:href="#DejaVuSans-20" x="990.279297"/>
      <use xlink:href="#DejaVuSans-31" x="1022.066406"/>
      <use xlink:href="#DejaVuSans-31" x="1085.689453"/>
      <use xlink:href="#DejaVuSans-20" x="1149.3125"/>
      <use xlink:href="#DejaVuSans-69" x="1181.099609"/>
      <use xlink:href="#DejaVuSans-73" x="1208.882812"/>
      <use xlink:href="#DejaVuSans-20" x="1260.982422"/>
      <use xlink:href="#DejaVuSans-3a" x="1292.769531"/>
      <use xlink:href="#DejaVuSans-20" x="1326.460938"/>
      <use xlink:href="#DejaVuSans-31" x="1358.248047"/>
      <use xlink:href="#DejaVuSans-2e" x="1421.871094"/>
      <use xlink:href="#DejaVuSans-30" x="1453.658203"/>
     </g>
    </g>
    <g id="line2d_28">
     <path d="M 111 208.064063 
L 121 208.064063 
L 131 208.064063 
" style="fill: none; stroke: #e377c2; stroke-width: 1.5; stroke-linecap: square"/>
    </g>
    <g id="text_22">
     <!-- Area of ROC for K = 16 is : 1.0 -->
     <g transform="translate(139 211.564063)scale(0.1 -0.1)">
      <use xlink:href="#DejaVuSans-41"/>
      <use xlink:href="#DejaVuSans-72" x="68.408203"/>
      <use xlink:href="#DejaVuSans-65" x="107.271484"/>
      <use xlink:href="#DejaVuSans-61" x="168.794922"/>
      <use xlink:href="#DejaVuSans-20" x="230.074219"/>
      <use xlink:href="#DejaVuSans-6f" x="261.861328"/>
      <use xlink:href="#DejaVuSans-66" x="323.042969"/>
      <use xlink:href="#DejaVuSans-20" x="358.248047"/>
      <use xlink:href="#DejaVuSans-52" x="390.035156"/>
      <use xlink:href="#DejaVuSans-4f" x="459.517578"/>
      <use xlink:href="#DejaVuSans-43" x="538.228516"/>
      <use xlink:href="#DejaVuSans-20" x="608.052734"/>
      <use xlink:href="#DejaVuSans-66" x="639.839844"/>
      <use xlink:href="#DejaVuSans-6f" x="675.044922"/>
      <use xlink:href="#DejaVuSans-72" x="736.226562"/>
      <use xlink:href="#DejaVuSans-20" x="777.339844"/>
      <use xlink:href="#DejaVuSans-4b" x="809.126953"/>
      <use xlink:href="#DejaVuSans-20" x="874.703125"/>
      <use xlink:href="#DejaVuSans-3d" x="906.490234"/>
      <use xlink:href="#DejaVuSans-20" x="990.279297"/>
      <use xlink:href="#DejaVuSans-31" x="1022.066406"/>
      <use xlink:href="#DejaVuSans-36" x="1085.689453"/>
      <use xlink:href="#DejaVuSans-20" x="1149.3125"/>
      <use xlink:href="#DejaVuSans-69" x="1181.099609"/>
      <use xlink:href="#DejaVuSans-73" x="1208.882812"/>
      <use xlink:href="#DejaVuSans-20" x="1260.982422"/>
      <use xlink:href="#DejaVuSans-3a" x="1292.769531"/>
      <use xlink:href="#DejaVuSans-20" x="1326.460938"/>
      <use xlink:href="#DejaVuSans-31" x="1358.248047"/>
      <use xlink:href="#DejaVuSans-2e" x="1421.871094"/>
      <use xlink:href="#DejaVuSans-30" x="1453.658203"/>
     </g>
    </g>
    <g id="line2d_29">
     <path d="M 111 222.742188 
L 121 222.742188 
L 131 222.742188 
" style="fill: none; stroke: #7f7f7f; stroke-width: 1.5; stroke-linecap: square"/>
    </g>
    <g id="text_23">
     <!-- Area of ROC for K = 20 is : 1.0 -->
     <g transform="translate(139 226.242188)scale(0.1 -0.1)">
      <use xlink:href="#DejaVuSans-41"/>
      <use xlink:href="#DejaVuSans-72" x="68.408203"/>
      <use xlink:href="#DejaVuSans-65" x="107.271484"/>
      <use xlink:href="#DejaVuSans-61" x="168.794922"/>
      <use xlink:href="#DejaVuSans-20" x="230.074219"/>
      <use xlink:href="#DejaVuSans-6f" x="261.861328"/>
      <use xlink:href="#DejaVuSans-66" x="323.042969"/>
      <use xlink:href="#DejaVuSans-20" x="358.248047"/>
      <use xlink:href="#DejaVuSans-52" x="390.035156"/>
      <use xlink:href="#DejaVuSans-4f" x="459.517578"/>
      <use xlink:href="#DejaVuSans-43" x="538.228516"/>
      <use xlink:href="#DejaVuSans-20" x="608.052734"/>
      <use xlink:href="#DejaVuSans-66" x="639.839844"/>
      <use xlink:href="#DejaVuSans-6f" x="675.044922"/>
      <use xlink:href="#DejaVuSans-72" x="736.226562"/>
      <use xlink:href="#DejaVuSans-20" x="777.339844"/>
      <use xlink:href="#DejaVuSans-4b" x="809.126953"/>
      <use xlink:href="#DejaVuSans-20" x="874.703125"/>
      <use xlink:href="#DejaVuSans-3d" x="906.490234"/>
      <use xlink:href="#DejaVuSans-20" x="990.279297"/>
      <use xlink:href="#DejaVuSans-32" x="1022.066406"/>
      <use xlink:href="#DejaVuSans-30" x="1085.689453"/>
      <use xlink:href="#DejaVuSans-20" x="1149.3125"/>
      <use xlink:href="#DejaVuSans-69" x="1181.099609"/>
      <use xlink:href="#DejaVuSans-73" x="1208.882812"/>
      <use xlink:href="#DejaVuSans-20" x="1260.982422"/>
      <use xlink:href="#DejaVuSans-3a" x="1292.769531"/>
      <use xlink:href="#DejaVuSans-20" x="1326.460938"/>
      <use xlink:href="#DejaVuSans-31" x="1358.248047"/>
      <use xlink:href="#DejaVuSans-2e" x="1421.871094"/>
      <use xlink:href="#DejaVuSans-30" x="1453.658203"/>
     </g>
    </g>
    <g id="line2d_30">
     <path d="M 111 237.420312 
L 121 237.420312 
L 131 237.420312 
" style="fill: none; stroke: #bcbd22; stroke-width: 1.5; stroke-linecap: square"/>
    </g>
    <g id="text_24">
     <!-- Area of ROC for K = 25 is : 1.0 -->
     <g transform="translate(139 240.920312)scale(0.1 -0.1)">
      <use xlink:href="#DejaVuSans-41"/>
      <use xlink:href="#DejaVuSans-72" x="68.408203"/>
      <use xlink:href="#DejaVuSans-65" x="107.271484"/>
      <use xlink:href="#DejaVuSans-61" x="168.794922"/>
      <use xlink:href="#DejaVuSans-20" x="230.074219"/>
      <use xlink:href="#DejaVuSans-6f" x="261.861328"/>
      <use xlink:href="#DejaVuSans-66" x="323.042969"/>
      <use xlink:href="#DejaVuSans-20" x="358.248047"/>
      <use xlink:href="#DejaVuSans-52" x="390.035156"/>
      <use xlink:href="#DejaVuSans-4f" x="459.517578"/>
      <use xlink:href="#DejaVuSans-43" x="538.228516"/>
      <use xlink:href="#DejaVuSans-20" x="608.052734"/>
      <use xlink:href="#DejaVuSans-66" x="639.839844"/>
      <use xlink:href="#DejaVuSans-6f" x="675.044922"/>
      <use xlink:href="#DejaVuSans-72" x="736.226562"/>
      <use xlink:href="#DejaVuSans-20" x="777.339844"/>
      <use xlink:href="#DejaVuSans-4b" x="809.126953"/>
      <use xlink:href="#DejaVuSans-20" x="874.703125"/>
      <use xlink:href="#DejaVuSans-3d" x="906.490234"/>
      <use xlink:href="#DejaVuSans-20" x="990.279297"/>
      <use xlink:href="#DejaVuSans-32" x="1022.066406"/>
      <use xlink:href="#DejaVuSans-35" x="1085.689453"/>
      <use xlink:href="#DejaVuSans-20" x="1149.3125"/>
      <use xlink:href="#DejaVuSans-69" x="1181.099609"/>
      <use xlink:href="#DejaVuSans-73" x="1208.882812"/>
      <use xlink:href="#DejaVuSans-20" x="1260.982422"/>
      <use xlink:href="#DejaVuSans-3a" x="1292.769531"/>
      <use xlink:href="#DejaVuSans-20" x="1326.460938"/>
      <use xlink:href="#DejaVuSans-31" x="1358.248047"/>
      <use xlink:href="#DejaVuSans-2e" x="1421.871094"/>
      <use xlink:href="#DejaVuSans-30" x="1453.658203"/>
     </g>
    </g>
   </g>
  </g>
 </g>
 <defs>
  <clipPath id="pa25322e5aa">
   <rect x="54" y="34.56" width="334.8" height="217.44"/>
  </clipPath>
 </defs>
</svg>
